<svg id="Слой_1" data-name="Слой 1" xmlns="http://www.w3.org/2000/svg" xmlns:xlink="http://www.w3.org/1999/xlink" viewBox="0 0 581.61 333.66"><defs><style>.cls-1{fill:none;}.cls-2{clip-path:url(#clip-path);}.cls-3{fill:#fff;}.cls-4{fill:#87003d;}</style><clipPath id="clip-path"><rect class="cls-1" x="-71.88" y="2.84" width="722.61" height="404.66"/></clipPath></defs><title>Лого_Бюст_Мост</title><g class="cls-2"><path class="cls-3" d="M347.91,77.45a74.31,74.31,0,0,0-58.49,25.44,74.29,74.29,0,0,0-58.48-25.44c-40.41,1.32-72,35.57-72,76v17.94a2.91,2.91,0,0,0,2.91,2.91h31.07a2.91,2.91,0,0,0,2.91-2.91V153c0-20.21,15.5-37.61,35.67-38.61A37.6,37.6,0,0,1,271,151.87v19.51a2.91,2.91,0,0,0,2.92,2.91H305a2.91,2.91,0,0,0,2.91-2.91V153c0-20.2,15.49-37.61,35.67-38.61A37.6,37.6,0,0,1,383,151.87v19.51a2.91,2.91,0,0,0,2.91,2.91H417a2.91,2.91,0,0,0,2.92-2.91V153.45c0-40.43-31.57-74.68-72-76"/><path class="cls-4" d="M42.74,259a16.31,16.31,0,0,0-5.47-2.08,27.78,27.78,0,0,0-4.94-.52,21.85,21.85,0,0,0-4.33.43,32.54,32.54,0,0,0-3.64,1,27.67,27.67,0,0,0-3.29,1.56V235.79l19.14,3a3.58,3.58,0,0,0,4-2.46l3.5-11.17a2.75,2.75,0,0,0-2.62-3.58H6.48a2.75,2.75,0,0,0-2.75,2.75V329.14a2.75,2.75,0,0,0,2.75,2.75H28.35q10.4,0,15.43-4.51t5-12.31L49,270.81A12.9,12.9,0,0,0,42.74,259M32,307.45q0,5.9-2.34,8.14c-1.56,1.51-4.42,1.56-8.58.18v-45a13.94,13.94,0,0,1,5.8-.95,5.07,5.07,0,0,1,4.77,4,12,12,0,0,1,.35,2.69Z"/><path class="cls-4" d="M127.78,225.3q-5.9-5.62-16.47-5.64T94.66,225.3q-6.06,5.64-6.06,17.08v42.35H82.53V224.32a2.75,2.75,0,0,0-2.75-2.75H67.94a2.75,2.75,0,0,0-2.75,2.75V329.14a2.75,2.75,0,0,0,2.75,2.75H79.78a2.75,2.75,0,0,0,2.75-2.75V301.9H88.6v6.76a41.48,41.48,0,0,0,1.56,12.57A15,15,0,0,0,102,332.07a48.13,48.13,0,0,0,9.45.86,44.49,44.49,0,0,0,9.11-.86,15.29,15.29,0,0,0,7-3.47,17.06,17.06,0,0,0,4.59-7.37,39.36,39.36,0,0,0,1.65-12.57l-.17-66.28q0-11.44-5.9-17.08M117,304.67a40.42,40.42,0,0,1-.87,9.19c-.58,2.43-2.19,3.64-4.85,3.64s-4.3-1.21-4.94-3.64a36.78,36.78,0,0,1-1-9.19V246.54a26.86,26.86,0,0,1,1-7.8,4.55,4.55,0,0,1,4.85-3.47,4.61,4.61,0,0,1,3,.95,6.33,6.33,0,0,1,1.73,2.52,13.33,13.33,0,0,1,.78,3.64c.11,1.38.17,2.77.17,4.16Z"/><path class="cls-4" d="M172.6,219.84q-10.59,0-16.56,5.46t-6,16.9v66.63a39,39,0,0,0,1.64,12.4,16.56,16.56,0,0,0,4.69,7.37,15.89,15.89,0,0,0,7.36,3.47,49.38,49.38,0,0,0,9.54.86,37.34,37.34,0,0,0,9.28-1,14.88,14.88,0,0,0,6.85-3.73,17.2,17.2,0,0,0,4.24-7.45,41.26,41.26,0,0,0,1.47-12V299.8a2.76,2.76,0,0,0-2.75-2.76H181.24a2.76,2.76,0,0,0-2.75,2.76v4.87a41.07,41.07,0,0,1-.86,9.19q-.87,3.64-4.86,3.64a4.71,4.71,0,0,1-5-3.64,34.25,34.25,0,0,1-1-9.19v-58.3a27.35,27.35,0,0,1,.95-7.63q.94-3.3,4.94-3.3c2.66,0,4.3,1.07,4.94,3.21a27.55,27.55,0,0,1,1,7.72v13.54a2.75,2.75,0,0,0,2.75,2.75h11.14a2.75,2.75,0,0,0,2.75-2.75V242.2q0-11.44-6-16.9t-16.56-5.46"/><path class="cls-4" d="M479.23,219.84q-10.58,0-16.55,5.46t-6,16.9v66.63a38.69,38.69,0,0,0,1.65,12.4A16.64,16.64,0,0,0,463,328.6a15.93,15.93,0,0,0,7.37,3.47,49.35,49.35,0,0,0,9.53.86,37.34,37.34,0,0,0,9.28-1,14.83,14.83,0,0,0,6.85-3.73,17.21,17.21,0,0,0,4.25-7.45,41.6,41.6,0,0,0,1.47-12V299.8A2.76,2.76,0,0,0,499,297H487.88a2.76,2.76,0,0,0-2.75,2.76v4.87a40.42,40.42,0,0,1-.87,9.19q-.87,3.64-4.86,3.64a4.69,4.69,0,0,1-5-3.64,33.81,33.81,0,0,1-1-9.19v-58.3a27.35,27.35,0,0,1,1-7.63c.64-2.2,2.28-3.3,4.94-3.3s4.31,1.07,4.95,3.21a27.55,27.55,0,0,1,.95,7.72v13.54a2.75,2.75,0,0,0,2.75,2.75H499a2.75,2.75,0,0,0,2.75-2.75V242.2q0-11.44-6-16.9t-16.56-5.46"/><path class="cls-4" d="M379,221.57H354.88a2.76,2.76,0,0,0-2.75,2.59l-5.22,87.62h-1.39l-3.86-87.58a2.76,2.76,0,0,0-2.75-2.63H313.08a2.75,2.75,0,0,0-2.75,2.75V329.14a2.75,2.75,0,0,0,2.75,2.75h10.05a2.75,2.75,0,0,0,2.75-2.8l-1.68-92.43h2.25l6.75,92.66a2.75,2.75,0,0,0,2.76,2.55l19.86-.13a2.77,2.77,0,0,0,2.73-2.55l7.09-92.53h2.25l-1.68,92.43a2.75,2.75,0,0,0,2.75,2.8H379a2.75,2.75,0,0,0,2.75-2.75V224.32a2.75,2.75,0,0,0-2.75-2.75"/><path class="cls-4" d="M435.79,225.3q-5.91-5.62-16.48-5.64c-7,0-12.6,1.89-16.64,5.64s-6.07,9.45-6.07,17.08v66.28a41.48,41.48,0,0,0,1.56,12.57A14.95,14.95,0,0,0,410,332.07a48,48,0,0,0,9.45.86,44.46,44.46,0,0,0,9.1-.86,15.25,15.25,0,0,0,7-3.47,16.87,16.87,0,0,0,4.59-7.37,39.36,39.36,0,0,0,1.65-12.57l-.17-66.28q0-11.44-5.89-17.08M425,304.67a40.42,40.42,0,0,1-.87,9.19q-.87,3.64-4.86,3.64t-4.94-3.64a37.31,37.31,0,0,1-.95-9.19V246.54a27.22,27.22,0,0,1,1-7.8,5.19,5.19,0,0,1,7.89-2.52,6.25,6.25,0,0,1,1.74,2.52,13,13,0,0,1,.77,3.64c.12,1.38.18,2.77.18,4.16Z"/><path class="cls-4" d="M265.73,221.57H202.91a2.76,2.76,0,0,0-2.63,3.58l3.5,11.14a3.57,3.57,0,0,0,4,2.46l17.88-3v93.35a2.75,2.75,0,0,0,2.75,2.75h11.83a2.76,2.76,0,0,0,2.76-2.75V235.68h0v.11l17.87,3a3.59,3.59,0,0,0,4-2.46l3.49-11.14a2.75,2.75,0,0,0-2.62-3.58"/><path class="cls-4" d="M572.36,221.57H509.54a2.75,2.75,0,0,0-2.62,3.58l3.49,11.14a3.58,3.58,0,0,0,4,2.46l17.87-3v93.35a2.75,2.75,0,0,0,2.75,2.75h11.84a2.75,2.75,0,0,0,2.75-2.75V235.68h0v.11l17.88,3a3.58,3.58,0,0,0,4-2.46l3.5-11.14a2.76,2.76,0,0,0-2.63-3.58"/></g></svg>