<?xml version="1.0" encoding="UTF-8"?><svg xmlns="http://www.w3.org/2000/svg" viewBox="0 0 1468.42 329.24"><defs><style>.d{fill-rule:evenodd;}.d,.e{fill:#455788;}</style></defs><g id="a"/><g id="b"><g id="c"><g><g><path class="e" d="M1369.69,154.55c-10.36,6-24.62,9.68-40.4,9.68-31.78,0-57.41-14.93-57.41-33.66s25.63-33.65,57.41-33.65c15.77,0,30.04,3.68,40.4,9.68v-16.34c-11.49-5.11-25.4-8.02-40.4-8.02-39.7,0-71.77,20.36-71.77,48.09s31.85,48.06,71.77,48.06c15.04,0,28.92-2.91,40.4-8v-15.84Z"/><polygon class="e" points="1233.82 82.72 1201.69 130.92 1169.54 82.72 1153.53 82.72 1193.68 142.94 1169.73 178.87 1185.75 178.87 1249.84 82.72 1233.82 82.72"/><polygon class="e" points="1113.64 82.72 1113.64 123.37 1049.55 123.37 1049.55 82.72 1033.52 82.72 1033.52 178.87 1049.55 178.87 1049.55 139.4 1113.64 139.4 1113.64 178.87 1129.67 178.87 1129.67 82.72 1113.64 82.72"/><polygon class="e" points="825.12 67.01 825.12 179.16 809.11 179.16 809.11 67.01 745.06 67.01 761.03 50.97 1386.03 50.97 1370.02 67.01 825.12 67.01"/><path class="e" d="M887.36,130.57h0c0,18.73,25.75,33.66,57.69,33.66s57.68-14.93,57.68-33.66-25.76-33.65-57.68-33.65-57.69,14.93-57.69,33.65m-14.42-.24c0-27.73,32.21-48.09,72.11-48.09s72.11,20.36,72.11,48.09-31.99,48.06-72.11,48.06-72.11-20.48-72.11-48.06Z"/><path class="e" d="M1166.62,217.29c2.48-1.98,6.13-5.09,5.61-8.34-7.55-2.47-11.55,2.35-13.72,8.28-1.27,3.45,3.42,3.79,8.1,.06"/><path class="e" d="M927.1,223.44h0c-3.45-1.45-2.82-3.98-.38-2.97,.75,.31,1.2,1.58,.38,2.97m-75.7,26.06h0c-16.8,12.73-21.7-.36-6.9-5.18,4.74-1.54,10.72-2,14.72-2.4-2.1,2.15-4.83,5.32-7.82,7.58Zm145.58-17.38h0c.34,3.07-9.22,6.84-12.63,8.06,.97-4.26,12.3-11.13,12.63-8.06Zm438.27,1.22c-14.54,3.01-37.03,10.45-48.8,13.9-6.29,1.84-12.7,3.37-19.47,4.29-4.96,.68-6.27-2.48-3.23-8.28,1.31-2.52,3.18-5.06,4.69-7.62,4.87-8.24,1.28-11.71-10.24-8.86-10.02,2.55-13.99,4.55-21.64,8.62,3.71-14.95-28.62-.47-28.62-.47,0,0,3.89-5.08,3.42-7.58-.92-3.07-5.53-1.64-8.66-.66-19.78,6.19-27.75,15.53-45.31,22.41-3.07,1.21-17.04,6.7-14.5-.94,1.71-5.16,7.17-10.39,10.46-14.32,4.42-5.29,6.63-8.04,.47-8.04-2.49,0-4.25,.18-7.59,2.75-3.02,2.32-6.97,7.74-9.78,9.57-5.4,3.53-15.7,8.16-21.76,10.13-11.95,3.9-10.68,1.32-5.58-6.61,1.45-2.26,3.5-4.69,5.02-7.24,4.51-7.48,4.46-8.53-.58-8.53-3.89,0-6.34,.51-9.46,4.17-2.28,1.41-2.89,2.24-5.03,3.16-12.93,5.56-26.05,13.09-38.78,18.19-4.98,1.99-12.2,5.03-12.89,1.8-1.92-3.42,4.36-14.01,8.8-18.72,5.33-5.63,6.97-8.69,3.02-8.69-6.9,0-6.73,1.25-8.64,2.55-5.88,4.01-13.39,14.36-13.39,14.36,0,0-27.45,12.02-34.97,10.88-4.12-.63-.85-7.87,.35-11.29,1.12-3.21,9.07-11.66,4.54-15.37-3.53-2.88-22.12,6.12-26.03,7.91,2.62-4.59-1.37-8.71-6.33-8.09-2.53,.32-9.16,2.37-13.43,4.68-2.2,1.19-12.18,7.07-12.18,7.07,0,0,2.16-3.49,2.18-5.84,.02-3.71-2.6-6.45-6.66-5.66-6.95,1.36-13.14,5.94-19.19,9.24-5,2.72-10.07,5.58-15.05,8.14-6.97,3.58-13.85,6.89-20.95,8.66-3.52,.88-6.98,.93-7.56-1.76-.46-2.22,.75-6.36,.75-6.36,0,0,13.03-5.32,15.75-7.5,3.76-3.02,5.38-6.08,5.09-8.43-.43-3.57-5.27-5.5-13.76-3.14-12.89,3.58-18.98,12.66-20.98,17.53,0,0-8.42,3.49-15.28,5.99-.16,.06-.32,.13-.49,.2,0,0-.02-.02-.02-.02,0,0-10.13,3.73-14.67,4.85-5.81,1.43-8.04,.56-8.04-2.21,0-.71,.27-1.48,.79-2.32,.54-.85,7.57-8.89,8.8-10.76,1.23-1.87,1.87-3.72,1.85-5.55-.03-2.34-1.61-4.02-3.05-4.9-2.55-1.58-6.65-3.69-7.56-4-.32-.11-.65-.19-.97-.28,1.92-2.92,1.22-5.93-2.52-7.02-6.5-1.9-15.67,4.94-9.1,10.2-7.29,1.7-16,3.31-22.4,4.43-4.75,.76-9.51,1.53-14.33,2.28,19.31-36.64,7.18-54.8-33.3-46.7,8.64-11.92,10.43-15.01,20.28-21.67,4.79-3.24,6.93-7.46-.3-4.81-6.41,2.36-20.48,11.94-35.21,29.99-43.01,9.7-96.75,28.82-121.91,51.35-1.78,1.59-4.69,6,.67,6.07,3.71,.05,7.61-2.54,9.74-5.98,1.21-1.98,3.17-5.66,7.38-8.02,29.14-16.4,50.27-26.67,99.94-38.75-17.46,23.71-20.88,33.96-37.07,58.52-4.45,6.76-8.24,13.89-12.84,20.71-20.13,29.86-34.63,40.79-51.35,49.48-6.12,3.18-5.08,6.87,1.29,3.47,26.27-11.85,44.6-24.46,65.47-53.33,4.9-6.79,23.15-33.58,27.1-41.2,3.56-6.89,24.25-41.04,24.25-41.04,43.5-10.82,34.18,22.28,18.15,44.19-8.86,.9-20.52,2.32-27.25,7.74-12.35,9.96-4.39,22.05,19.2,10.93,8.2-3.85,16.79-9.5,22.97-15.75,7.15-1.61,15.66-3.5,23.74-5.22,6.23-1.1,13.34-2.58,19.19-4.41,.14-.05,.27-.1,.41-.15,.61,.24,1.28,.47,1.99,.7,5.86,3.98,5.65,4.21,3.37,7.87-.99,1.59-6.22,7.07-7.84,9.23-1.62,2.14-2.44,4.21-2.44,6.18,0,1.76,.68,3.15,2.02,4.18,2.76,2.12,11.71,2.92,17.9,1.1,2.32-.68,4.73-1.56,7.2-2.65,.27-.11,.51-.25,.77-.36,7.33-2.55,14.23-5.12,21.31-7.29,.58,8.6,5.97,11.77,14.19,11.77s22.08-8.45,28.49-11.76c7.25-3.74,14.63-7.98,22.21-11.47,3.56-1.64,11.99-6.65,10.8-4.3-1.18,2.36-14.46,18.13-16.13,20.57-3.78,5.54-2.85,5.77,.84,5.77,5.85,0,7.7-.2,10.39-2.94,.71-.71,1.45-1.55,2.31-2.54,4.52-5.25,9.49-9.7,15.76-13.36,3.24-1.9,6.33-3.36,9.72-4.63,7.22-2.71,5.73,.89,3.03,4.24-2.06,2.59-6.56,7.74-9.29,10.91-.86,1-1.5,1.71-1.96,2.31-2.45,3.23-1.74,3.59,1.27,3.59,4.27,0,4.61-.19,6.94-2.36,.8-.74,1.86-1.8,3.39-3.38,4.08-4.19,8.27-8.66,9.1-9.66,4.73-2.29,9.23-5.18,14.29-7.18,3.05-1.21,4.44-.24,1.96,2.93-4.29,5.47-7.03,12.77-2.08,19.06,3.25,4.12,10.2,3.54,16.26,1.66,10.61-3.27,20.3-7.85,28.38-11.16-6.12,8.06,.24,16.1,9.82,14.21,17.51-3.44,33.75-17.83,51.02-22.97-2.7,4.6-8.38,10.08-9.34,17.03-1.3,9.47,10.6,4.18,15.26,2.33,8.94-3.55,19.97-8.24,27.2-12.17-4.63,7.77-1.32,15.14,5.53,15.14,7.95,0,32.96-12.91,38.93-16.13,6.27-3.38,27.71-15.31,23.27-9.44-1.7,2.26-4.82,5.82-9.17,11.11-1.08,1.32-2.97,3.84-4.73,5.94-3.67,4.41-6.01,7.45-1.18,7.56,8,.17,7.65-.25,11.5-5.57,2.12-2.93,4.1-5.75,6.7-8.02,4.66-4.04,18.28-10.71,23.91-11.53,2.83-.42,1.64,2.9-.35,6.21-1.37,2.27-2.96,4.81-4.4,7.05-5.66,8.86-4.5,8.85-.97,8.85,4.7,0,5.32,.71,8.82-5.89,2.12-4.02,3.32-5.54,5.63-9.05,10.2-6.37,27.47-12.23,27.06-9.26-.27,2.09-9.3,9.27-12.71,16.81-5.25,11.63,1.17,13.13,23.25,7.09,7.44-2.03,16.28-5.01,25.34-7.97,20.62-6.72,37.47-12.88,48.77-13.21,3.23-.09,6.26-.06,9.48,.45,2.41,1.36,2.33,3.68,4.13,6.38,2.66,3.95,8.88,5.01,9.11-.89,.45-12.26-23.63-9.37-33.17-7.4Z"/></g><g><path class="e" d="M563.95,290.57h-.01c-2.36,0-4.76-.05-7.13-.17-43.38-2.13-84.38-25.14-109.68-61.54-22.81-32.84-30.75-74.62-21.78-114.61,8.92-39.76,36.02-75.34,72.5-95.17,20.55-11.18,44.13-17.09,68.18-17.09,16.26,0,32.23,2.64,47.49,7.86,41.14,14.07,74.16,48,88.32,90.74,16.89,51,3.1,108.93-35.14,147.59-27.51,27.33-64,42.38-102.75,42.38m147.49-151.68c-2.01-41.16-21.95-79.92-54.71-106.32C630.67,11.57,597.74,0,563.99,0c-2.78,0-5.59,.09-8.35,.24-41.09,2.36-79.6,22.68-105.65,55.76-24.99,31.7-35.46,73.31-28.74,114.14,6.67,40.49,30.77,76.6,66.11,99.07,23.82,15.16,51.29,23.16,79.43,23.16,2.8,0,5.63-.09,8.42-.24,34.98-2,68.28-17.04,93.79-42.34l.07-.07c28.94-29.26,44.39-69.65,42.38-110.82Z"/><path class="e" d="M686.92,291.59h-241.73c-1.04,0,.1-.07,.1,.54V49.91c-.45,.26-.91,.51-1.36,.77h241.73c1.03,0-.11,.06-.11-.55v242.23c0,.99,2.01,.65,2.01-.18V49.91c0-.34-.29-.58-.64-.58h-242.28c-.41,0-1.36,.18-1.36,.76v242.27c0,.35,.29,.58,.65,.58h242.28c.89,0,2.05-1.35,.72-1.35"/><polygon class="d" points="646.36 264.27 646.36 265.97 644.79 266.96 643.5 266.99 643.5 267.85 640 270.34 639.49 270.34 639.27 271.06 639.07 271.06 637.29 272.32 635.21 272.7 630.93 272.96 629.79 274.93 627.48 276.79 625.59 277.37 623.27 276.7 621.64 274.43 646.36 264.27"/><polygon class="d" points="580.84 288.9 585.35 290.14 588.88 290.35 591.42 290.49 593.53 290.35 595.89 289.7 597.27 290.49 600.12 290.03 601.6 288.76 601.6 286.29 599.58 285.88 596.95 286.08 593.56 285.66 580.84 288.9"/><path class="e" d="M554.16,56.3l.75-.15-.15-.14h-.15c-1.8,.05,1.6-1.83,1.96-2.1l.12-.17,.18-.13c.68-.78,1.37,0,2.12-.92l-.17-.13-1.2,.3c-.71,.02-.66,.11-1.05,.45l-.18,.12-.13,.18-.6,.3h0l-.9,.75-.6,.3c-1.54,0-1.74,.7-2.82,1.85,1.09,.06,1.45-1.03,2.82-.5Z"/><path class="e" d="M553.71,54.36h.3c.17,0,.89-.49,1.06-.6l.6-.3c.26,0,.15-.12,.15-.45,.27-.7,.81-1.25,1.65-1.64h.61c.75,0,.81-.26,1.35-.85-1.64-.06-3.2,.03-4.77,.15l-.39,.19-.39,.59c1.25,.31,.48-.39,1.18-.39,.5,0,.48,.13,.57,.51l-.11,.11v.3h.3l-.15,.15-.45,.15,.15,.6c-.62,.05-.4,.29-.88,.31l-.48,.43h-.15c-.2,0-1.04,.49-1.2,.6l-.3,.15v.3h.75c.27-.18,.26-.3,.6-.3Z"/><path class="e" d="M477.47,94.44c.02,.69,.16,.51,.16,1.05,0,.4-.07,.41-.17,.75l.17,.59c-.11,.21-.16,.25-.16,.6,0,.33,.12,.33,.3,.6l-.15,1.19v.44h.6l.04-.6-.19-4.64h-.61Z"/><path class="e" d="M576.56,62.31v-.32c.61,.05,1,.28,1.06,.9h.45c-.02-.95-.38-.8-.9-1.35l-1.2-.16c.04-.39,.44-1.09,.6-1.78v-.44l.3-.15,.17-1.2c0-.45-.22-.41-.62-.44v1.49h-.45l-.29-.15-.44,.33-.02,.28,.9,.17-.3,.58h-.29l-.28-.33c-.53,.93-1.09,2.13,.57,2.42h.15l.6,.17Z"/><path class="e" d="M531.01,102.48c-3.34,.06-4.95-1.3-8.28-2.06-.74-.09-.74-.16-1.35-.3-.42-.27-1.44-.24-2.31-.19h0c-.96-.13-1.71-.26-2.65-.26-1.81-.45-3.63-.86-5.39-1.52-.65-.24-.64-.19-1.18-.55l-.95-.92c-.28-.56-1.06-.3-1.65-.3,.09,.34,.2,.26,.61,.26l1.66,1.05c1.6,2.38,6.43,2.17,9.01,2.74l3.76,.34,.9,.26c1.08,0,2.2,1.2,3.01,1.2,.58,0,1.13,.33,1.68,.55l5.2,.41-.03-.74-2.04,.04Z"/><path class="e" d="M596.37,213.37c-1.59-1.12-2.87-3.56-3.69-3.79-.16-.28-.1-.21-.62-.74-.81-.41-.74-.73-1.35-1.65-.02-1.02-.75-.94-.75-2.24h-.3v.75c0,1.31,1.17,2.54,1.95,3.43l1.21,1.05c1.21,.8,1.25,3.59,2.86,3.59,.58,.57,1.09,.21,1.5,.54,.48,.4,.43,1.21,1.1,1.24l-.35-.73c-.01-.12-.76-.91-1.55-1.46Z"/><path class="e" d="M686.6,91.46l-.86-.16h-.76c-.85-.1-.23-.79-.44-1.31-.38-.97-2.41-1.45-3.31-1.55-1.72-.04-3.16-.58-4.09-.68-.85-.09-1.19,.23-2.68,.44-1.75-.31-3.02-.42-4.26-.53-3.57-.33-5.5,3.44-8.57,4.09-.2,.05-.95-.23-1.49-.16-2.58,.55-4.82,.76-8.61,.58-3.9-.19-6.23-1.17-10.17-1.17-4.63,0-11.92,.24-15.49,2.09,.41-.1-4.61-1.8-8.57-1.34-2.08,.13-3.81,.09-3.52-.28,1.16-1.48,9.22-5.58,11.1-5.63,.63,0,3.31-.14,5.87-.76,2.21-.54,5.61-1.9,8.76-3.15,3.15-1.25,16.14-12.88,22.01-12.75,1.06,0,1.32,.32,2.25-.16h.3c.52,0,.58-.1,1.05-.14,.69-.16,.71-.09,1.05-.59h.6c.08-.12,1.04-.82,1.21-.9v-.15l.18-.74h.26c1.41-.34,1.43-1.05,2.71-1.05s4.45-2.5,4.66-3.3c1.17-.27,4-3.59,1.36-3.59h-.91c-.49,.91-1.49,1.79-2.55,1.79h-.75c-.21,.81-.68,.59-.9,1.18l-.6,.16-.45,.18,.15-.92c.54-.25,.7-.05,.9-.6,.96-.08,.54-.6,1.2-.6,1.37,0,1.29-.48,2.41-1.2,.1-.1,.51-.44,.55-.5,.21-.35-.03-.55,.51-.55,1.02,0,1.77-.09,2.4-1.04h0c.39-.26,.62-.57,.75-1.08l-.44,.33-.16,.28-.59,.16c-.16,.21-.48,.68-.81,.68l-1.73,.07h-.32c-.21,1.79-1.98,.9-2.28,2.08-.96,.02-2.97,2.4-3.13,.47h-.45l-.03,.48,.48,.41c.09,.97,.3,2.13,.3,2.99,0,.34-.34,.9-.45,1.35l-.3,.44c-.47,0-.47-.16-.81-.13l-.24-1.95c-.28-.14-.38-.02-.45,.08-.05,.06,.17,1.84,.15,2.01l-.15,.6c-.85,.58-1.37,2.24-2.56,2.24h-.45c-.3,.16-.44,.31-.9,.31-.49,0-.39,.44-1.2,.44l-1.2-.3h-.45c-4.11,0-17.35,8.25-19.94,10.95-2.58,2.69-10.31,5.2-12.25,5.2-4.4-.14-6.85,.25-9.93,2.44-1.96,.94-7.67,4.74-8.72,4.74h-.45c-.5,.34-2.59-.3-1.77-.87l.12-.17,.17-.45-.47,.15c-.63,.09-1.56-.16-1.77-.8-.16-.38-.66,.33-1.69,.35-.29,0-.27-.05-.44-.15l-.18-.12c-.81-1.13-6.16-2-7.97-2.12l1.95-1.81c2.18-2.16,8.48-5.04,9.8-5.81,3.25-1.9,8.25-2,11.95-3.06,8-6.5,26.82-15.29,37.61-15.29,.66,0,.24-.44,.57-.78,1.04-1.11,1.8-2.73,2.8-3.75,.88-.9,3.53-1.82,4.89-2.26,.23-.16,.25-.24,.37-.36l.09,.39,.4,.45,.52,.16-.19-.82-.19-.14-.2-.42c.33-.37,.77-.8,1.2-1.09,.56-.38,.32-.33,1.08-.54,.53,0,.23-.3,.75-.3h1.2l.56-.13c.87-.46,1.79-.92,2.9-.92,.53,0,.7,.82,.19,1.12-.7,.48-.85,.83-1.54,.98h-.75l-.9,.45-1.07,.32c-.32-.23-.44-.23-.44-.62v-.45c-.42,.04-.6,0-.6,.45,0,.52,.31,.23,.31,.74v.15c0,.3-.35,.58-.66,.91-.52,.4-1.12,.49-1.62,.63l-.23,.41c.7-.24,1.39-.46,2.05-.46,.73,0,.28,1.5,1.22,1.05l-.17-.6-.15-.14c0-.4,1.07-.19,1.47-.25,.25,.27,.3,.71,.3,.96,0,.64-.23,.59-.72,.93-1.46,.58-2.21,.83-4.06,.6-1.64,.04-.5,2.6-2.56,2.09v.63l.6-.18h.45v.75l-.13,.18-.18,.12v.3h.45c.17-.32,.6-.81,.6-1.05v-.6h.59l.16-.3h.3v.9c-.43,.63-.57,.79-1.06,1.34-.35,.39-.9,.8-1.19,1.2-1.25,.83-2.07,.24-3.46-.45l-.15-.15,.15-1.22c-1.24,.2-.76,.4-1.65,.92l-.6,.3-.3,.15v1.2c0,.78,1.96,1.18,1.96,2.09,0,1.01-.06,1.47,.9,1.49v-.44c0-1.97-.39-1.95,2.26-2.55,1.04-.66,2.64-2.33,2.73-2.38,.64-.31,.57-1.02,1-1.42l.22,.9,.46,.06c-.13-.77-.43-1.4-.2-2.09l-.45-.45,.15-.3c1.33,0,2.6-.53,3.6-1.49l.18-.12,.13-.18,.45-.45,.75-.29,.16-.3c.51,0,2.48-.39,2.48-.89h.6c.8,0,1.14-.81,2.45-.59l.25,.39,.23,.05h.17l.19-.29-.07-.46c-.27-.18-.26-.3-.6-.3-.74,0-1.53,.3-2.1,.3-1.13,0-3.4,1.14-4.06,1.79h-.3v-.3c.35-.32,.19-.29,.6-.44,0-.76,2.75-1.82,4.05-2.43,.31-.15,.29-.32,.36-.5,.14-.4-.02-.85-.46-1.1-.23-.12-.39,.06-.64-.03l-.1,.32c1.54,.83-.08,1.22-1.3,1.83-.77,.02-1.47,.53-1.75,.87l-.78,.42c-.37,.53,.32,.42-.42,.62,.02-1.48-2.38,.01-2.4-.6,.36-.39,1.01-.61,1.65-.75,.39-.01,.71-.49,1.06-.75,1.2,0,1.79-.23,2.76-1.03l.4-.31c1.1-.99,.88-1.1-.45-1.51-.88-.08-1.22,0-2.05,.24-2.32,.64-5.77,.72-7.03,3.04-4.11,1.7-6.03,2.71-8.42,6.65-14.8,2.35-27.67,7.03-38.55,15.57-1.97-.15-13.54,2.85-16.05,5.42-4.64-1.23-12.61-2.1-16.24,2.18-2.75,.03-3.95,1.08-5.76,1.36-.88,.11-.64,.01-1.99,.24l-.15-.15h-.32c.06-.16,.11-.3,.17-.45,.07-.02,.15-.05,.23-.08,.02-.03,.05-.05,.07-.07,.47-1.04,.39,.2,.75-.6,.82,.5,2.77-.8,1.81-1.49,.02-.88,.53-1.17,1.35-1.19v-.45c.89-.59,.79-1.31,.33-1.38-1.68-.26,.87-.15,.87-1.16,.47-.32,.24-.96,.6-1.5v-.3h-.3v-.45h.6l.15-.3h.6v-.74h.3c.28-.29,.37-.29,.6-.6l.6-.16v-.3l-.6-.37v-.68c0-.36-.19-.42-.39-.73l-.21-.62c-.82-.01-1.19-.03-1.2-.9l.15-.45-.16-.87-.43-.29-.16-.19v-.58l.3-.16,.6,.74,.9,.15c.2,.01,.26,.01,.28,0-.02,0-.04,.03,.17,.14,.25,0,.23,1.31,0,1.5l-.16,.41,.76-.12,.3-.59,.3-.6,.3-.15c0-.64,.1-1.4-.15-1.79l-.3-.75-.3-.15-.02-.5-.88,.36c-.55,.36-.83,.29-1.49,.29-.24-.85-.29-.9,.58-1.94v-.41l.16-.64,.29-.17v-.73c-.99,0,.19-1.05-1.19-1.05-.51,0-.13,.3-.9,.3-1.39,0-.6,.27-.6-1.07l.45,.16c.58,.2,.6-.03,.9-.59l.03-.12,.27-.78,.3-.15v-.6c0-.34-.12-.33-.3-.6l-.3-.59-.3-.45h-.45c-.5,0-.31-.3-.6-.3s-.24,.23-.3,.45l-.58,.02-.47,.51c-.72,.08-1.34-.59-1.36-1.28l.3-.16v-.6c-.1-.05-.19-.11-.29-.16,0-.1-.01-.19-.01-.28v-.6c-.1-.15-.2-.3-.3-.45-.15-.2-.3-.4-.45-.6v-.3c-.44-.73-1.35-1.22-1.61-1.5-.19-.21-1.14-.23-1.25-.29-.35-.25-.7-.5-1.05-.75v-.3c-.35-.19-.72-.38-1.05-.6-.06-.1-.11-.19-.17-.29-.29-.1-.59-.2-.88-.3h-10.68v.3c1.36,0,1.34,.24,2.11,.75v.3l-.03,.35-.57-.35c.05,.6,.06,.49,.45,.75l.16,.3v.74l-.23-.07c-.94-1.18-2.3-2.35-3.99-1.28l-.15,.45c2.55,0,2.09,.33,4.41,1.53l-.35,.56c-.05,.15-.1,.3-.16,.45-.15,.15-.29,.3-.44,.45v.3c-.2,.59-.29,.45-.9,.45,0-.57-.86-.3-1.35-.3-.1-.34-1.4-1.34-1.8-1.34h-.91c-.52,0-.23,.3-.75,.3-.63,0-.31-.01-.45,.15l-.15,.15-.16,.28-.44,.17-.3,.6c-.08-.5-.63-.55-1.5-.3l.15,.6h-.3l-.45,.45-2.34,.06c-1.5,1.52,.15,.62,1.28,.83l.45,.3,.3,.3c.19-.1,.16-.15,.45-.15,.63,0,.31,.01,.45-.15h.3v.3h.15c.05-.1,.1-.2,.15-.3,0-.88,.12-.85,.84-1.5h.21c0,.88,.3,.6,.3,1.05,.2-.4,.29-.3,.74-.3l.17-.3h.3c0-.64,3.56-.36,4.48-.13l.32-.44c.7,.12,1.74,.1,2.1-.4-.02,.99,2.6,.52,3.16,.53,.05,.1,.11,.19,.16,.29,.16,0,.31,0,.46,.01,.1-.05,.2-.11,.29-.17,.19-.1,.16-.15,.45-.15h.45c.43,0,.28,.07,.45,.3h.61c.26,.49,.24,.37,.59,.74,.15,.38,.42,.47,.11,.63l-.25,.12v.45c0,.51-.15,1.55,.15,1.79l.16,.15,.45,.15c0,.69,.21,.79,.6,1.35l.6,.45c.56,.56,1.82,.75,1.36,1.19,.35,1.45-.85,.62-1.06,1.72v1.87c0,.69-.75,.78,.3,1.05,0,.73-1.03,1.89-1.81,2.1v.3h.45c.62-.31,1.24,.29,1.58-.61,.44-.68,1.22,1.1-.97,1.81-.02,1.81-.39,2.11-.91,3.88v.75c-.24,.4-1.39,1.42-.9,.3l.15-.75c1.02,0-.47-2.2-.44,.31-.72,1.82-1.22,.47-1.96,1.64-1.13,0-.03,1.35-1.95,1.35v.29l-.6,.32c-.9,.18-1.43,.06-1.65-.31,0-.49-.44-.5-.75-.35-.38,.07-1.96,1.22-2.56,.05-.54,0-.39-.83-.45-1.3-.2-.36-.4-.7-.61-1.05,.45-.36,.66,.4,1.36,.4l.15-.15c.17-.75,1.43-.52,2.18-.44,.39,0,.31-.1,.82-.12,.51-.01,.95,.32,1.13,.67,1-.12,1.38-.74,1.9-1.62-2.14,.57-1.86,.12-3.23,.12-.52,0-.74,.23-1.9,.18-1.16-.05-1.26-.39-1.81-.92,.24-.04,.81,.42,2.63,.28,1.77-.3,2.88,.46,4.94-.35,0-.01,.16,.12,.14,.38,.45-.14,.34-1.46-.11-.8-.52,.79-2.18-.59-3.59,0-.15,.05-.45,.1-.65,.1-.2,0-1.42-.31-2.03-.29-.56,.01-1.05,.18-1.35,.34-.31,.16-.33-.27-.42-.25-.13,.04,.04,1.12-.57,1.47-.6,.22-.62-1.1-.35-1.46l.33-1.29,.57-.65h-.61c-.25,.38-.18,.45-.59,.6l-.41,.76-.35,1.63,.3,.6,.15,.6v.3c.41,.61,.58,.29,.6,1.2-.56-.05-.61-.21-1.06-.44,0-.73,.33-1.35-.45-1.35v-1.05c-.23-.25-.3-.26-.3-.75,0-.91-.38-2.06,.49-2.48,1.38-.75,.5-.03,.26-1.26l.3-.15v-.3c-3,0-.99-.45-2.56-.45h-.3c-1.06,.33-1.53-2.14-1.74-3.56,0-.51,.47-.41,.82-.66l.31-.41c.17-.36,.79-.84,.94-.44,.47,1.29,.37,2.29,2.08,2.49l1.05,.2,.89-.3,.31-.45,.75-.6,.15-.9h.76l.15,.15,.18,.44c-.35,.26-.35,.1-.48,.6-.75,1.34,.15,1.4,0,2.24,0,.62-.34,.27-.64,.56-.6,.59-.75,1.67,.27,2.09-.26,.87-1.24,2.1-.03,1.53,.39,.45,1.11-.14,1.3-.14,.28,0,.24,.22,.3,.45,1.26,.39,1.36,.4,1.32-.78l.33-.27v-.3l.16-.16,.29,.16c.1,.13,.24,.44,.45,.44,.22,0,.22-.19,.31-.26,.41-.87,1.21,.1,1.77,.79-.05-.11,.07-.37-.22-.67-.31-.33-.46-.91-.07-1.26,.26-.24,.32-.64,0-.83l-.58-.45c-.33-.46,.09-.24-.6-.3l.15,.9,.15,.15v.45h-.6l-.3-.74v-.3l-.15-.6-.45-.17,.14,1.07v.15l.13,.17-.13,.27-.17,.29h-.58c-.18,.24-.03,.31-.45,.31h-.3c-.86,0-.75-.88-1.81-.45h-.3l.16-.59,.16-.29h.29c.42,.08,.98,.35,.9-.31l-.16-.6s-.59-.8-.15-.9c.41-.36,.1-.52,.11-1.2l.15-1.35c.06-.63,.22-.64-.42-.74l-.3-.1v-.5c.47-.17,.19,.18,.46-.35l.3-.38,1.06-.14-.19-.25-.33-.03c-.13-.06-.44-.39-.8-.19l-.56,.4c-.88-.56-1.31-.24-1.58-.24-.67,0-1.33,.07-2.1,0-1.61-.04-2.07,.24-2.46,.66-.36,.37-.49-.61-.27-1.1,.19-.72,.74-.91,1.37-1.05,.16,0,.31,.02,.47,.02,.14-.11,.29-.21,.43-.33h.46v.3h.45c-.07-.61-.31-.52-.76-.9v-.15c-.11-.02-.22-.05-.33-.08-.06-.05-.12-.09-.17-.14,.01-.18,.03-.35,.05-.52-.05-.05-.11-.1-.15-.15,0-.95,.37-.19,.6,.15,.41,.2,.39-.01,.3-.3-.08-.28-.3-.19-.46-.3,0-.1,.02-.2,.02-.3,.1-.61,.1-1.51-.62-1.04-.05,.1-.1,.2-.15,.3-.23-.15-.37-.19-.3-.75h-.32c.1,.79-.04,1.21,.65,1.65-.06,.2-.12,.4-.17,.6-.05-.05-.1-.1-.16-.15h-.29c-.05,.05-.11,.1-.16,.15-.04,.05-.1,.1-.15,.15,0,.58-.38,.78-.45,.45-.06-.69-.4-.39-.87-.74,.27,.69-.2,1.47-.79,1.48l-.45,.44-.31-.15c-1.7,0-1.75-1.2-3.31-1.2-.13,0-1.21,.65-1.35,.75h-.3v.3h.75l.3-.15,.16-.15c.8,.58,1.18,.71,2.51,.87l.03,.39-.89-.06v.3l.15,.3c-1.83,.63-.75-1.26-1.96-.45v.3l-.3,.15-.17,.6-.28,.15-.6,.17v-.92h.3l-.15-.6-.6,.17v-.47l-.6-.15,.92-1.04h.58v-.46l-.9,.15-.17,.29h-.43l-.3,.75c-.26-.44-.74,.07-.74-.26,.6-.16,.42-.07,.44-.78l.3-.15,.12-.6,.46,.33,.32-.02c.27-.18,.27-.3,.6-.3h.15c.59,0,.02,.23,.9,.3l3.01-.75c.52,0,.23,.3,.75,.3h.6v-.3h.6c-.04-.42,0-.59-.45-.59-1.03,0-1.5-.42-2.71-.3l-.75,.3c-1.15,.44-.94,.02-2.25,.32-.39,.02-.3,.08-.6,.28l-.3,.17c-.09-.36-.04-.47-.45-.47-.27,0-.25,.23-.3,.45l-.6-.15v-.28l.3-.18,.3-.14,.6-.15c.45-.05,.41-.14,.45-.6l-.94-.03-.27,.33h-.6v.58l-.3,.17-.45,.6v.45c.24,.21,.25,.15,.3,.6-.58-.29-1.33-.25-.57-.87l-.63-.18-.3-.15-.15,.3v.3h.45l.15,.29v.45h.6v.3l-.15,.3v.44h.3v.45l-1.5-.15-.29-.16h-.32c.1-.51-.51-.51-.75-.58,0,.99,.3,.8,.3,1.49-.25,.25-.15,.77-.4,1.02l.4,.03v-.3l.35-.73,.1-.32h1.06c.43,0,.28,.06,.46,.26l.75,.19,.61,.27,.73,.25-1.33,.21-1.36,.45h-.45v-.3l1.48-.32-.13-.12-1.2-.16c-.31-.02-.35,.13-.61,.3l-.15,.75h-.15l-.17,.44c.69,.06,.41,.04,.77,.45l.15,.16,.17,.28c-.92,.25-.87,.41-1.45-1.54l-.19,.99,.7,2.1,.56,.25c.34,.65-.04,.28,.45,.45v-.75c-.49-.15,.18-1.35,.6-1.42,.86-.15,2.24-.5,2.63-1.42l.45-.89,.29-.18-.14,1.07-.47,.57,.02,.48-.16,.28h.77l-.19,1.2-.42-.08-1.57-.09-1.05,1.4,.08,.87v.45h-.3l-.15,.15v.3l.45,.15v.89l.29,.17-.14,.57-.6,.15-.75,.18v-.33c-.33-.39-.44-.08-.61,.15v.3l-.3,.15-.16,.29-.44,.18v-1.07h-.3l-.15,1.2v.45l.17,.6,.28,.15,.16,.29h.59c-.01-.44-.3-1.04,0-1.04v-.45h.3l.15-.15c.39-.25,.89-.15,1.51-.15v.45h-.71c-.82,0-.5,1.35-.5,1.94h-.6v.45h.6v.3l.29,.16h.46l.15-.16v-.3h.6v.3l.35,.73,.7,.17,.3,.3h.45v.45h-.45l-.9-.15c-.26-.36-.13-.55-.75-.6l.15,.6,.17,.45h-.48v-.3h-.3l-.3,.3v1.79l.17,.55,.25,.12,.33,.38c.12,.19,.23,.37,.35,.56,.08,0,.17,.02,.25,.03v-.6h-.3l-.15-.6-.33-.11v-.31l.1-.13,.31,.06,.37-.11v-.3l-.3-.15v-.75c1.66-.23,1.05,1.12,1.05,2.69,2.03,0-1.92,.93,.68,2.19,.6,.29,1.52,.17,1.52,.38,.07,1.92-.76,.84-4.23-.41-.99-.36-2.18-.94-4.15-1.13l-.29-.15c-1.7-1.86-7.26-.43-9.78-.43h-.61l-1.53,.3c-3.52-3.69-13.11-5-17.26-4.93,0-.1-2.9-3.01-3.31-3.29-4.13-5.48-19.35-7.89-23.49-8.28-2.15-.2-6.46-2.4-8.54-3.4-3.35-1.15-3.28-2.72-4.02-4l-.79-1.83-.45-.45c-5.38-2.05-3.3-4.64-11.43-4.34-.42,0-.86,.49-1.19,.44-1.28-.24-1.95-1.34-3.62-1.19-3.45-.59-1.17,3.19-.16,3.19,.32,.11,1.37-.1,1.37,.25,.65,.43,.86,.85,1.39,1.21,.36,.25,1.02,.44,1.47,.74l.53,.02-.24,.51-.59,.07-1.04-.19c-.11-.34-.3-.71-.76-.71-.85-.85-1.03-.75-2.26-.75h-.15c-.65,.64-.8-.05-1.05,1.05l.15,.44,.16,.3,.15,.15,.3,.3,.3,.6,.6,.3,.75,.45s.98,.34,1.36,.9c0,0-.92,0-1.26,0-.26,0-.55,.03-.7,.15-.95,.52-.14,1.76,.88,2.52,.49,.36,1.2,.91,2.43,1.53,.53,.27,1.05,.45,1.05,.45,1.37,1.09,2.94,1.45,4.36,2.7l.75,.3c1.36,1.75,2.36,2.05,5.74,3.58,.81,.46,2.05,.4,3.86,1.1,4.52,1.75,8.51,5.02,12.74,6.74,4.12,2.27,8.96,4.79,16.84,6.25,2.29,.25,19.35,6.84,18.1,7.15-.39-.2-.91-.15-1.49-.15h-4.97c-3.29,0-4.79,1.64-7.52,1.65-2.21-.93-4.86-2.4-7.07-2.4-4.05-.56-7.74-.73-11.73-.49-6.27-.31-11.77,2.52-18.22,1.54h-.6c-.23-.73-2.1-.71-2.1-1.35-.52-.73-3.19-1.97-4.04-2.41h-.75l-.6-.3h-2.41c-1.29,0-1.69-1.65-2.86-1.93h-.3l-.44,.32c-1.67-.02-2.12,.24-3.77-.18h-.31c-1.18,0-2.13-.36-2.86,.6l-.32,.43c.19,.62,.18,.57,.62,.76,.39,.73,.59,.9,1.35,.9,.82,0,.81,.28,1.66,.29,.12-.46,4.35,.53,5.05,.53l.58-.1c-1.03-.14-1.9-.38-2.26-.93l-.08-.54,.15-.45c-.23-.22-.13-.25-.58-.3v.59c-.36,.24-.67,.75-1.06,.75h-.3l-.15-.3-.3-.45v-.3c-.49,.13-.62,.26-.76,.75h-1.65c-.42,0-.67-.56-1.2-.75,.01-.48-.05-.75,.45-.75,2.14,0,4.23,.16,6.32-.3,.36,0,.44,.25,.75,.44,.57,.56,1.2,.73,1.65,1.35l2.55,.36,1.07-.06h.3c1.72,1.04,4.55,3.56,6.45,3.6,.29,.57,.41,2.13-.13,2.98-.67,.76-1.05,1.08-1.05,1.65-.44,.65-.62,.37-1.12,.87l.17,.4,.81-.15c.7-.06,.64-.82,.75-1.41l.29,.44v.46c-.01,.68,.26,2.1-.47,2.1h-.3c-.45,0-.75,.6-1.2,.6h-1.2l-1.06,.13-1.04-.17-.61,.04h-.3l-.6-.31h-.46c-.68,.01-1.24-.44-2.25-.44-.75,0-1.43-.74-1.9-.74,0-.97-.69-1.54-1.33-2.34l1.13,.07c1.09-.21,1.45,.76,2.86,.76,.4-.45,2.17-.2,2.56,.45,.7,.13,1.17,.13,1.8,.45,1.51,0,.63-.22,1.35-.75v-.3l-.9,.15-.15,.3h-.3l-.15-.45-.6-.3c-.34-.46-.36-.45-.9-.45-.81-.77-1.96-1.35-3.16-1.35v-.78l.76,.19,.29-.16,.3-.09,.26,.21c.18,.18,.36,.41,.7,.41h.6v-.3h-.6l.13-.24c-1.45-.91-1.67-1.83-3.35-1.94-.52,0-.23-.3-.75-.3-.6,0-.75-.64-.75,.44-1.1,0-1.37-.15-2.11-.15-1.06-.2-.37-.04-1.35-.32l-.46-.43-.3-.59-.17-.45h.63l.15-.15c.39-.24,.88-.14,1.5-.14,.52,.06,.85,.4,.84,1.27h.37c.13-.27,.07-.75-.21-1.13,.3-.08,.78,.05,1.26,0,.2-.02,.82-.02,.91-.13,.17-.2-.05-.56-.11-.54-.54,.14-1.48,.32-2.61,.24h-2.71l-.15,.15c-.19,.22-.32,.18-.75,.15l-2.26-.15c-.71-.07-.9-.26-1.5,.16h-.75c-.93,0-1.79,.08-2.59,.12-.27,.02-.53,.02-.78,.02-.71,.43-1.36,1.86-.39,2.4,.19,.11,.16,.15,.46,.15,.63,0,.31,0,.45,.15h.3c.31,.21,.39,.45,.75,.45,.92,0,2.15-.26,2.51-.26,.56,0,.55,.26,1.1,.26h1.06l.38-.03c.11,.14-.04,.36-.38,.63h0l-4.76,.1c-.69,.3-.71,.36-1.1,.95v.45c.13,.56,.71,1.46,1.21,1.5l2.72-.11,.43-.19c.39,.05,2.11,.47,.75,.59l-.75,.15c-.45,.21-.95,.07-1.06,.6-.1,.53,.57,1.5,1.36,1.5l1.06,.13c1.97-.32,4.01-.14,6.01-.13,.55,0,.62-.18,.98-.35,1.18,.28,.87,.21,1.96,.51,1.1,.77,8.54,1.97,9.23,.59,0-.08,.36-.56,.93-.46,9.87,1.75,21.66,5.62,33.56,3.46,1.75-.36,3-1.15,4.61-1.15,8.68-.47,9.84,.06,11.03,.38,.77,.21,.94,.41,1.62,.76,1.29,.69,3.7,1.21,4.81,1.21h1.66l3.91,.04c6.1-.04,2.43-.09,6.45,1.4l.37,.67c.42,1.58,1.32,.88,1.45,2.22,1.23,2.01,.7,3.96,2.25,5.24,.15,.1,.3,.2,.45,.3l.17,.54c-.75,2.81,.77,4.08,1.17,6.78l.47,1.35c0,2.86,2.87,7.45,3.92,10.21l.44,.18c0,.73-.25,.84-.74,1.17-.72,2.84-2.18,5.04-2.12,8.04,0,.89-.49,2.01,0,3l.3,.15c-1.11,.3-3.91,11.4-3.91,12.86v.45c-1.83,4.04-5.65,7.86-6.47,12.11-1.24,2.46-1.92,4.86-3.15,7.33-.1,.21-.11,.15-.15,.45-.6,.42-1.33,3.97-2.1,5.54-.78,1.56-4.04,13.67-3.01,13.91l-.3,.35c-.37,3.29-5.5,6.2-6.61,9.52-.7,.94-1.29,2.14-2.26,2.85-1.31,1.78-2.73,2.38-4.78,4.87-2.05,2.5-5.31,6.61-7.2,10.38-1.4,1.98-1.49,2.71-1.7,4.19-.1,.21-.11,.15-.15,.45l-.27,.53c-1.79,2.38-5.31,15.68-5.29,19.96v2.1c-.07,1.22-.8,4.45-1.35,4.79-1.03,0-1.8,2.47-1.95,3.14l-.45,.31-.6,.45c-.9,.6-1.2,1.24-2.26,1.79h-.45c-.63-.28-1.5-.55-2.41-.3l-.29,.15-1.05,.18c-.14,.35-.4,.54-.62,.87v.6c-.07,.53-.6,1.98,1.21,2.24-.03,.78,1.49,2.04,2.1,2.09,0,.43,1.49,.97,1.93,.97,.11,1.06,1.91,1.46,2.76,1.26-.34,1.25,5.54,2.7,5.54,2.85h.3c.12-.42,.17-.32,.6-.45,.81-.68,2.87-2.43,1.64-3.52-.19-.41-.18-.76-.58-.99-.03-2.04,2.12-4.47,2.55-6.41,.29-1.3,.3-2.93,.43-4.73,.25-3.44,8.4-14.62,11.46-17.66,4.77-5.21,6.23-13.06,8.86-19.64,.52-.29,1-2.03,2.19-2.95,3.65-2.81,7.76-7.5,8.29-8.85l.19-.32c.96-1.64,5.57-5.78,5.57-7.48l.47-.47,.43,.32h.3l.15,1.35c.19,4.44,2.61,7.93,2.11,11.96,0,2.22-1.02,3.95-1.02,5.7,0,1.57-.33,3.54-.33,5.36,0,1.2-.45,2.15-.45,3.29l-.15,1.2-.16,1.35c-.34,.71-.75,1.7-.75,2.39-1.99,3.95-1.8,10.61-1.8,14.06,0,4.69,3.03,9.53,3.6,12.26,.59,2.72,3.6,9.83,4.36,10.76,2.17,1.9,2.55,3.76,2.55,5.99,0,2.73-.75,4.57-1.2,6.57l-.15,.15c-.43,.22-.15,1.27-.15,1.65v.29l.44,.18c0,.45,.06,.71-.44,.71-1.29,0,.24-1.04-2.55-1.04-.36-.04-.67,.47-1.02,.43-.27,.06-.64,.48-.86,.54-.61,.14-.99-.61-1.59-.22h-.3c-.37,.18-.68,1.26-1.04,1.26-.41,0-.36-.11-.45-.44h-.75c-.05,.1-.09,.2-.15,.3-.33,.39-3.47,.08-3.78,.08v.15l.6,.3c.87,0,1.01,.47,1.95,.6,.34,.08,.35,.15,.75,.15,.64,0,.91,.07,1.25,.36l.75,.15,1.54,.05,1.51-.03-.1,.96v.23l6.32,.07c.4,0,.41-.07,.75-.15,0-.52,.9,.15,.9,.15,.24,0,.47-.67,.9-.15l.17,.29h5.24c-.06-.69,.16-.25-.3-.59-.73-.4,0-.9,0-1.5l-.3-.14v-.3l.3-1.79-1.06,.15v.3c.6,.9,0,1,0,1.95,.26,.77-.12,.42-.3,1.19h-.75c-.19-.37-.6-.59-.6-.9-.08-.33-.15-.34-.15-.74v-.15c0-.58,.03-1.5,.6-1.5h.44l.17-.29,.32-.26-1.08,.1h-.3l-.3-.15-1.2,.3,.62,.88-.02,.31c0,.59-.26,1.37,.3,1.65l.16,.74-.47-.14c-.2-.15-1.05-1.07-1.05-1.35v-.3c0-.33-.12-.32-.31-.6l-.16-.29v-.3l.32-.6v-.3h-.61l-.15,.15-.17,.89c0,.3,.16,.36,.32,.6v1.5h-.3l-.44-.18c-.07-.61,0-.24-.32-.72l-.29-.16v-.29l-.19-.74h-.57c0,1.03,.75,1.43,.75,2.23h-.6c0-.6-.49-.91-.71-1.4-.22-.51-.17-1.19-.04-1.89l-.15-.45h-.3l-.3-.3v-.3l.15-1.79c.5-.26,.38-.24,.76-.6l.45,.15h.3c0-1.09-.3-1.09-.3-1.94,0-1.09,.45-2.15,.45-2.69,0-6.08-6.62-10.26-6.62-16.3-1.43-4.97-3.76-10.04-3.98-15.31-.13-2.85,.67-5.88,.67-8.77,0-1.3,.45-1.83,.45-2.84,0-1.41,1.06-3.06,1.05-4.64h3.01l1.07,.1,1.4,.21h2.35v.74s-.67,.9-.15,.9l.27,.33,.03,.27v.15l.6,.17-.15-.47-.16-.14v-.3l-.15-.3,.15-.45,.16-.9h1.95c0,1.89,.49,1.93,.45,3.44v2.54c.33,2.71,2.1,5.67,2.1,8.37,.18,3.13-.03,5.49-.31,8.52v.3c-.45,4.68,.39,14.2,1.81,18.24v.16c0,1.03,5.22,7.62,3.16,7.62l-.3-1.04h-.31v1.04l.3,.17,.11,.24c.02,.61,1.67,3.47,1.85,3.78l.15,.6h-.3l-.3-.61v-.3h-.45l.15,.6,.42,.48,.04,.27c0,.33-.12,.45,.15,.45l.15,.15c.35-.74,.55-.62,1.44-.07,1,.14,2.02,.61,2.02,1.72v.6h-.29l-.33-.31c-.54,0-1.04,.16-1.63,.16h-.29l-.15,.3c-.27,.4-.5,.39-.5,.88,0,.99,1.19,.42,1.7,.32l.47-.44,.73-.45,.6,.28v.61h.29l-.15,.44v.6l-1.21,.03v.42c3.52,0,5.94,.08,9.33-.45,.58,0,1.52-.98,2.1-1.04l1.96-.16c3.23,.07,4.88,1.81,7.91,1.81l4.04-.39c1.99-.25,2.27,.05,2.84,0,.59,0,.58-.49,1.6-.52l.45,.3c1.5,.6,3.38,.68,4.83,.66l1.06-.66-.15-.41c-2.45,.06-.39-.04-.03-1.38v-.6c0-.55-.24-.14-.3-.75l-.15-.74c-.08-.7-.42-.79-1.36-.75h-.75c-.34,0-.33,.11-.6,.3l1.07,.3-.17,.44c-.46,.14-.48,.11-.83,.12l-.83-.2-.14-.51-.75-.75c-.41-.33-.81-.73-1.21-.74h-.29c-.89-.03-1.18,.29-1.95,.29-2.99,0-4.67-.56-6.86-2.15-1.35-.97-3.39-1.41-4.57-2.49-1.77-1.99-2.37-1.57-3.76-5.38-.61-2.94-1.5-6.31-1.5-9.72,0-8.34,2.55-17.3-.6-25.49v-.83c-.06-3.24,1.65-5.87,1.65-8.82,1.64-8.37,6.37-18.06,5.87-26.77,1.24,.1,10.92,21.88,11.42,25.26,1.24,8.24,2.83,10.21,8.42,16.69,2.1,2.43,2.4,6.01,4.28,8.17,.29,.47,.7,.85,1.01,1.25,.65,.82,1.52,1.61,2.27,2.49,1.27,1.5,3.17,3.25,4.33,4.33,2.13,1.83,4.36,7.46,4.36,8.97,.17,1.5-.05,6.02,3.76,7.03,1.74,.52,4.82-.7,5.87-2.25l.43-.56c.58-.46,.99-1.33,1.55-1.62l.95-.16,1.36-.11,2.16,.07c1.01-.25,2.56-.81,2.86-1.95l.78-.18c1.07-.56,1.44-1.17,2.57-1.87,.39-.39,1.34-1.05,1.47-1.53,.89,0,1.63-.66,2.41-1.2,.29-1.14,.23-3.44-1.5-3.44h-.3c-.52,0-.23,.3-.75,.3h-.75c-2.86-2.46-5.06,.94-6.17,.74h-.9c-.52,0-.23-.3-.75-.3-1.72,0-1.59,.14-2.71-.59-.19-.17-.79-.25-1.36-.3-.72-.4-1.91-.18-3-1.95-3.96-3.94-8.57-15.15-8.57-20.19,0-5.87-11.47-24.48-13.38-26.77,0-.29-.45-2.56-.6-2.84l-.15-.75-.13-.17-.17-.13h-.45c0,.96,.3,1.14,.3,2.09,.25,4.82,7.43,13.91,10.45,20.63,.66,1.46,3.39,6.23,3.39,8.38,0,6.32,4.76,15.86,9.17,20.79,.39,.55,.83,2.4,2.26,2.4l5.26,.45h1.35c.37,0,.88-.5,1.05-.75h.45l.27-.02,.47-.58,.76-.29,.6-.15c.29-.04,.26,.07,.41,.17-.19,.04-.42,.12-.72,.28h-.29v.3h-.3l-.16,.6c1,0,.43-.15,1.05-.6l.3-.3h1.2l.45,.3h.6c.34,0,.33,.12,.6,.3l.14,.45-.45,.45-.2-.05-.1-.1-.75-.3h-.15l-.76-.31-.42,.29h-.01l-.63,.41h0l-.14,.06c-.18,.1-.16,.15-.45,.15l-.55,.03-.35,.41-.16,.3c-.83,.07-.58,.39-.9,1.04l-.15,1.2c.57-.06,.44,.08,.6-.6l.15-.75c.04-.43,.35-.52,.6-.9,.52,0,.9-.09,.9,.45v.59h-.45v-.59c-.26,.06-.6,.17-.6,.45,0,.46,.14,.6,.29,.89h.31c.3,0,1.05-.48,1.05-.89v-.45c0-.39-.04-.37-.16-.61l.16-.29,.04-.16,.75-.58,.41,.14c0,.26,.13,.15,.46,.15,.57,0,.05-.05,.45,.15l.15,.15,.09,.13,.21,.16v1.2c0,.46,.07,.55,.15,.89-.28,.7-.9,.34-1.35,1.19-.58,0-1.56,.63-2.1,.9h-.61l-.14-.15c-.32-.22-.56-.4-1.13-.37l.53,.37v.58l.3,.17,.16,.14,.15,.45-.43,.33-.17-.17c-.05-.55-.05-.55-.6-.61l-1.05-.29h-.46c.17,.62,.12,.45,.91,.45l.3,.29,.02,.33-.32,.43-.33,.27-.71,.48h-.31c-2.04,0-3.73,.07-5.72,.44l-.43,.32-.02,.28c1.05,1.56-2.57,2.92-3.61,3.44-2.72,.77-4.66-2.1-4.66-4.63,0-.26,.07-1.18-.02-1.59,.06-.47,.52-.52,.76-.63l.61,.13h.3c.19,1.31,.28,.84,1.21,1.5,.09-.75-.75-.83-.75-1.79l-.76-.15h-.15l-.45-.3-.45-.9-.29-.16v.46c.4,1.33,.11,.85-.52,.13-.25-.52-.99-1.37-.99-1.76v-.15c-.92-4.08-4.74-6.45-6.62-8.83-1.4-1.53-2.78-2.97-4.1-4.29-.96-1.01-3.19-4.47-3.17-5.85l-.1-2.26h.45l.6,.16v-.6h-.75l-.45-.15-.6-.14c-3.39-1.51-7.02-8.8-7.82-11.97,0-7.25-7.06-24.51-12.63-30.06,.74-6.96,1.58-14.23,1.45-21.24l.05-1.79c-.02-1.24-.17-2.78-.3-3.89,0-1.15-.46-3.8-1.05-4.93v-1.94c0-3.12,.59-4.51,.27-7.87,0-.52,.32-1.93,.32-2.45,0-2.23-.3-4.08-.3-6.28l-.15-1.04c.8,.07,.6,.18,.6,1.04,2.64,2.9,1.99,12.5,3.16,13.91,2.41,8.45,10.82,19,12.03,28.41,.1,4.43,.63,11.3,3.43,13.91l.18,.75h.59c0-3.2-3.99-5.36-3.3-10.47,2.76-2.3-8.92-29.15-11.88-31.71-.38-.19-.71-3.06-1.05-5.83,.01-1.34-.26-2.17-.39-3.45-.35-1.89-.73-2.96-1.56-4.63-1.22-1.22,.15-3.52-1.99-5.35,.27-1.36,1.09-3.91,1.09-5.12,0-2.4-1.15-4.77-1.4-7.26-.15-1.45-.85-1.63-.85-2.17,0-1.4,2.26-4.48,2.42-6.58,.18-3.85,2.99-7.09,2.99-10.92,0-.78,.45-2.27,.45-3.74,0-.93,1.05-1.52,1.05-2.54,.89-.41,1.36-1.52,1.65-2.4,.36-.74,.79-1.71,1.81-1.79,.25-.67,1.36-.7,1.66-1.5,4.36,.86,11.08,.54,14.58-.75,4-.71,8.15-.73,12.22-.3,.87,.09,2.39,.32,2.61,.62,.77,1.23,1.53-.45,8.17,.88,6.64,1.34,13.01-1.34,18.3-2.42,5.29-1.09,7.48,.15,11.02-.87,.64,.6,2.99,.95,3.89,.68,1.14-.16,2.08-.5,3.22-.5h.3c1.12-.2,2.59-.71,3.71-.71,.29,0,.4,.09,.91,.09,1.34,0,2.48-.3,3.91-.3,.73,0,1.26-.46,2.26-.3,1.26,0,2.11-.25,2.13-1.02-.05-1.17,.03-1.53-1.23-1.52h-.31c-1.54,0-2.99-.17-4.51,0h-.3c-.17,.24-.03,.3-.45,.3h-.45c-.58,0-.58-.6-.3-.6,.24-.28,1.16-.15,1.66-.15,.29,0,.27-.04,.45-.15,.09,.03,3.95-.08,4.66-.3,.56,0,.8-.3,1.36-.3,1.15,0,1.47-1.17,1.35-2.08l.75-.16c1.56-.4,1.58-2.25,.86-2.68Zm-15.45-28.58c0-.7,.78-1.04,1.36-1.04l.83-.98,.97-.07c.64,0,1.51-.47,1.51-1.05l.73-.58c.83-.14,1.6,.16,.62,1.33-.43,.8-.36,.35-.75,.9l-1.06,.44-.33,.27c-.44,.02-.73,.46-1.07,.67-.36,.21-.77,.22-.85,.7-.53,.36-1.35,.85-1.96,.9v-1.5Zm-112.98-7.04l.75-.7h.49c.27-.13,.29-.08,.56-.21,.45,.07,1.27,.47,1.64,.86-.95-.04-2.27,.07-3.43,.06Zm7.26,17.53c-.54-.35-1.03-.63-.9-1.28,.93-.05,.9,.31,.9,1.28Zm-6.32-8.55c.49-.06,.43,.22,.65,.45,.29,.28,1.47,.32,1.61-.45l.45-.17c.22,.6-.59,1.35-1.29,1.35-1.3,.02-1.49-.49-1.41-1.18Zm-.14,1.39c2.66,1.05,1.8-.09,2.82-.2l.18,.16c-.43,1.78-3.99,1.4-3.81-.69,.68,.07,.29,.24,.81,.73Zm-11.16-1.54l-.72,.16-.15,.15h-.6v-.29c.48-.33,.11-.25,.75-.3v-.3l.83,.13-.11,.46Zm-90.04,28.27c.46-.04,1.06-.36,1.36,0l.15,.15c.33,.09,.45,.04,.45,.44,0,.5-.27,.45-.75,.45l-.15,.3h-.3l-.9-.6-.81-.38,.95-.36Zm-8.27-.45l-.16-.91-.19,.06c0,1.65-.78,.76-2.21,1.15v-.3h-1.03l-.18-.3-.59-.3v-.89h2.1c.53,0,.23-.3,.75-.3h1.37l.14-.45h1.51l.14,.45h1.5c.41,0,.41-.07,.75-.15,.15,.61,.16,.61,.46,1.04l.89,.62,.31-.02,.6,.45,.76,.15v.47c-1.05-.15-1.15-.47-2.11-.47-.52,0-.23-.3-.75-.3-.26-.34-.31-.6-.75-.6-1.01,1.5-1.67,.6-3.31,.6Zm5.49,1.73l-1.73-.38c-.27-.18-.26-.31-.6-.31h-.6v-.29c0-.27,1.34-.16,1.65-.16,.51,0,1.6,.87,1.28,1.14Zm-5.46,1.61l-.47,.25h-1.81l-.33-.27c-.46-.04-.73,.02-.73-.48,.23-.49,.3-.63,.79-.73,.88-.18,2.36-.02,3.27-.02,0-.7,2.25,.02,2.86,0l1.69,.29-1.13,.47-1.11,.21-.72,.34c-1.07,0-1.56,.26-2.31-.07Zm7.94,2.34c0,.39-.11,.39-.46,.41l-1.05,.17-1.06-.13h-1.05c-.65,0-.56-.53-1.36,0h-1.35l-1.21-.16c-.48-.51,.96-1.04,1.35-1.04l1.81-.3h2.85c.53,0,.23-.3,.75-.3,.4,0,.75,.84,.75,1.05v.3Zm107.52,190.98c-.73,.05-.65-.01-.47-.44l.49-.3h.73c.02,.53-.03,.69-.75,.74Zm78.65-24.06l.6-.17c.38-.55,.45-.17,.45-1.05h.6c.4,0,.45,.22,.6,.45l.15,.6,.15,.45c-.19,.29-.78,1.04-1.2,1.04h-.6c-.5,0-.44-.27-.46-.75l-.3-.3v-.28Zm-46.02-176.49c.53,0,.23,.29,.76,.29,3.26,0,4.51,1.52,7.52,1.95,1.45,2.14,3.03,3.44-3.01,3.44h-.3c-.76,0-3.06,1.22-3.91,1.64-.87,.57-1.95,1.22-2.71,2.24l-.6,.17v-6.16l.3-.15c.14-1.14,.05-1.54,.05-2.44,0-.78,1.31-.86,1.9-1Zm-15.36-2.27c1.45-1.66,3.57-1.53,5.75-1.92,.35,.08,.44,.15,.9,.15,.62,0,2.92-.75,1.36-.75h-1.65c3.09-4.55,11.77-1.45,13.98-1.79-2.29,.58-5.97,3.38-7.02,5.52-1.89-.35-3.38,.79-4.77,.91-2.12,0-6.55-1.47-7.98,.53-.05-.28-.31-1.18-.56-1.33-.57-.81-.66-1.65,0-1.32Zm-1.28,.68c.4-.16,.94,1.51,1.36,2.15l-.65,.03c-.15,0-1.2-.07-1.2,.3l-1.05,.45h-2.71c.19-.69,.6-.45,1.5-.45,1.13-.56,1.59-1.04,2.38-2.21,.12-.1,.25-.18,.37-.28Zm5.07-13.96v.45l-1.05,.3,.36,.2-.06,.4-.15,.45c.37,0-.01,1.3-.6,.6v-.31l-.16-.29-.45-.6c-.4-.19,.13-.15-.45-.15h-1.05l-.15-.3h-.6l.15-.45,.17-.59c.44-.25,.89-.73,1.17-1.14l.32,.13v.86c1.1,.63,1.36,.45,2.55,.45Zm-1.5-2.54l-.45,.3-.17,.29h-.16l-1.16,.3-.32,.46c-.67,.63-1.45,3.29-1.82,1.64h-.73v-.27l.75-.18v-.15l.45-.6c.63,0-.24-.7-.28-.75l-.17-.6-.15-.45h.31l.29,.15v.45c.25-.07,.6-.17,.6-.45,0-.24-.39-.48-.56-.59l-.04-1.05c.5,.19,1.11,.88,1.8,1.35h.3v-.45c-.35-.52-.26-.75-.9-.75v-.3l-.15-.15c0-1.24-1.03-.23-1.36-1.2v-.3c.27-.18,.27-.29,.6-.29h.75c.82,0,.76,.59,.75,1.2l-.17,.59h.93l.12,.18,.18,.12,.45,.6c.23,.34,.29,.3,.3,.9Zm.32-6.31v.29h-.45c-.41,0-1.31-1.04-1.4-1.38,.75,.18,2.14,.18,1.85,1.09Zm-2.42-5.5l.6-.17c.17-.21,.03-.28,.45-.28,.19,0,.73,.62,1.06,.75v.75l-.45,.15v-.45c-.12-.17-1.06-1.06-1.06-.45l-.45,.15-.59,.18,.44-.63Zm-1.06,.89l.75,.15c.56,.06,.48-.1,1.06-.15l.29,.17c0,.64,.18,.81-.43,1.06v.72l-.61,.75h-.45l-.3-.15v-.9h.3v-.45c-.45-.16-.41-.42-.9-.75,.04-.58,.13-.62,.3-.45Zm-5.86,2.99h-.61l-.21-.41c-.18-.02-.36-.04-.54-.06l-.31-.28c-.25-.24-.27-.28-.45-.6v-1.49l.15-.15,.15-.6c.05-.39,.09-.28,.3-.6v-.6l.3-.15v-.3c.01-.15,.03-.3,.04-.44,.04-.05,.07-.11,.1-.16,.1-.05,.2-.1,.3-.15,.1-.04,.2-.1,.3-.15h2.26c.17-.13,.33-.26,.5-.38-.58,0-2.2-.51-2.73-.35,.36-.96-.21-1.06-.68-1.27-.34-.69-.24-.83-1.01-.83-.17-.54-.18-.45-.75-.45-.33,0-.33-.12-.6-.3h-1.05c-.53,.36-.53,.14-.6,.75,.65-.05,.27,.02,.75-.3h.61c.1,.1,.2,.2,.3,.3,1.3,.03,1.22,.56,1.93,.75,.06,.2,.12,.4,.17,.6,.05,.05,.1,.1,.15,.15,.2,1.25-1.09,1.41-1.02,.42-.11-.09-.22-.18-.33-.27,0-.67,.07-.6-.61-.59-.25-.8-1.17-.45-1.95-.45-.18,.71-1.26,.6-1.5,1.5,.66-.01,1.06-.23,1.2-.75h.61c.54-.73,.62,0,1.2,0,.1,0,.18,0,.28,.02,.17,.24,.63,.8,.1,.96-.9,.29-3.13-.08-3.94,.07-.57,0-.7,.05-1.09-.15l-.16-.3c.05-.59,.32-.64,0-.9l-.15-.45c.25-.51,.6-.42,.6,.15,1.04,0,.23-1.06-.29-1.2-.95,1.79-.99,.59-1.36,1.9l-.11,.43-.04-.08v-1.8l.45-.75c.43,0,1.61-.44,.61-.6h-.3l-.45,.15c-.69,.2-.35-.6,0-.6s.7,0,.7-.33l-.7-.12-.14-.6c.4-.07,.52-.11,.3-.45l4.36-.04c.75,.06,1.5,.12,2.26,.19,.15,.1,.3,.2,.45,.3,.56,.53,.08,.87,1.35,.9,.63-.35,.83,.27,1.21,.75,.1,0,.19,0,.29,0,.2,.75,.77,1.34,1.97,1.17,.1,.06,.2,.11,.29,.16,.2,.07,.39,.13,.6,.18,.42,1.46,.97,.91,1.21,2.36v.9c-.18,.27-.3,.26-.3,.6v.15c0,.4,.22,.43,.45,.6l.75,.17v.28h-.3l-.27,.33-.93-.03c-.21-.31-.45-.39-.45-.75v-.6h-.3l-.17,1.34h-.58l.15,.75h.3c.28-.18,.27-.3,.6-.3,.59,0,.07,.21,.75,.28l.6,.17c.16,.22,.28,.49,.45,.74l.3,.15v1.05c0,.44-1.05,1.8-1.05,1.8,0,.4,.22,.44,.45,.6v.15h1.22l.43-.3h1.06c.21,.33,.47,.63,.75,.9v.75h-.45l-.15-.45-.59-.46h-1.52l-.3,.32h-1.06c-.49-.33-.45-.59-.9-.75,.16-.6,1.19-1.73,.75-2.1l-.15-1.05-.45-.6h.45v-.43l-1.05-.16-.45,.15v.6l.75,.17v.58h.3l.15,.15v1.05c-.37,.55-1.05,1.19-1.05,1.79,0,.45-.07,.54-.15,.9l.15,.3,.6,.45c.55-.14,.49-.25,.9-.45l.29,.16,1.06-.46h1.64l.16,.3,.45,.31v.89h-.29l-.3-.29c-.25-.34-.5-.75-.9-.75h-.3c-.29,0-.27,.05-.45,.15l-.6,.17-.38,.5c-.45,1.04-.31,.54-1.13,.67l-.75-.15c0-.32-.39-.6-.75-.6,0-.36-.27-.71-.27-1.07,0-.6,.26-1.19,.25-1.78l.47-.75h-.75c-.13-.49-.26-.62-.75-.75v.3c-1.03-.02-.46-.3-1.05-.3Zm-11.9,20.21c0-1.68,.89-.58,1.07-.17l.17,.65c.16-.05-.08,.45,.57,.3,.52-.12,.51-1.61,.91-1.67,.39-.05,.46,.72,.91,.72,.24-.73,1.26-1.75,1.26-.32-.12,.16-.23,.32-.34,.48-.35,.58-.21,.92,.41,.92,.3-.15,.32-.45,.32-.78,.58-1.11,1.42-2.04,2.73-2.25,.16,.83,.22,1.9-.78,2.56-1.01,.66,1.37,3.32,1.37,4.02l.15,1.2h.31c.1-.04,.2-.09,.29-.15,.05-.05,.1-.1,.15-.15-.05-.15-.1-.3-.15-.45-.18-.27-.3-.26-.3-.59v-.75c.83,.22,.5,.78,1.35,1.35,.05,.05,.1,.1,.15,.15,.2,.1,.4,.2,.6,.3h.3c.06-.05,.1-.1,.15-.15,.05-.04,.1-.1,.15-.15,.47,0-.15-.28-.15-.71-.2-.39-.82-1.23-1.2-1.24-.02-.64-.24-1.8-.91-1.8-.57,0-.05,.05-.45-.15-.34-.55-.3-1.14,.3-1.79,.08,.04,.17,.08,.25,.11,.11-.13,.23-.27,.35-.41,0-.21,0-.42,0-.62,.97-.99,1.84,.22,.85,.96-.46,.05-.66,.11-.87,.41,.05,.25,.1,.5,.16,.74,.36,0,3.15,1.96,3.15,2.09,.19,.1,.16,.16,.45,.16l1.05,.12c.64,.14,1.25,.61,1.61,1.05-.09,.61-.5,1.09-.73,1.49-.14,.23-.27,.5-.61,.63h-.42c-.39,.2,.13,.15-.45,.15h-.6c-.37,0-.76,.6-1.81,.6h-.15c-.53,0-.23,.3-.75,.3h-3.31c-.34,0-.33-.12-.6-.3l-.3,.15-.6,.17v-.62h-.46l-.31,.59h-.89c-.35,0-.46-.1-.46-.45,0-1.21,.75-1.36,.75-2.84l.15-.6c.06-.44,.06-.35,.45-.45v-.3c-1.28,.36-1.05,.03-1.05,1.35-.98,.35-.48,2.31-1.49,2.72-.04,.39,0,.57-.46,.57h-.6c-.74-.39-.69-.28-.9-1.2,.13-.53,.06-1.07-.16-1.64,.12-.02-.36-1.05-.55-2.14-.16-.88-.02-1.81-.07-2.18Zm2.71,7.72v.66c-.34,.29-.68,.33-1.02,.12l-.63-.29-.25-.6c.61,0,1.25,.12,1.9,.12Zm-9.61-15.97c0-.52,.3-.23,.3-.75v-.6c0-.69-.35-.48,0-1.35,.59,.39,.64,3.55,1.5,4.33,.22,.52-.39,.71,.3,1.2l.19,.61c-1.07-.02-1.99-1.19-1.99-2.25-.18-.27-.3-.26-.3-.6v-.6Zm1.65,5.68l.45,.15,.15,.45c.58,.01,2.55,2.39,2.4,2.84,.15,1.74,.81,2.29,1.81,3.29,.43,.64,.16,.88,.16,1.65v.29l.15,.3v.3c-.16,.23-.2,.45-.61,.45h-1.35c-.2-.69-1.75-3.15-2.4-3.15-.24,.18-.3,.03-.3,.45,0,.23,.35,.26,.6,.6,.27,.46,.91,.93,.91,1.2,.09,.06,.19,.11,.29,.17v.57l-1.64,.18-.76-.03c-.46,0-.42-.18-.45-.6v-.46l-.15-.75h.45c.05,.05,.09,.1,.15,.15,.05-.1,.1-.2,.15-.3v-.15c-.09-.1-.2-.2-.29-.3v-1.34l.63-.17c-.4-.96,.31-1.59-.34-2.23h-.29v-.3c-.01-.46-.31-1.79-.76-1.79l-.75-.75c.11-1.02,1.07-.6,1.8-.75Zm-2.55,5.83c0-.5,.27-.44,.75-.45,.09,.18,.15,.16,.15,.45,0,.59-.3,.49-.3,1.35v.3l.16,.15c.08,.17,.12,.19,.13,.18,0,.04,0,.11,.02,.26,.39,1.97,.77,2.7-2.85,.89,0-.65-.04-.58,.59-.76l.52-.68,.54-.05,.15-.59c.08-.34,.15-.35,.15-.75v-.3Zm-.69-21.43l.45-.3c.86-1.24,1.31-.43,.53,.94-.15,.05-.31,.28-.46,.34-1.5,.09-.23-1.17-.53-.98Zm-1.42,21.13c.75-.51,.24-.47,.56-.79,.32-.32,.29,.18,.79-.56l.22-.77,.38,.32v.6l-.15,.9-.3,.17v.58c0,.33-.12,.33-.31,.59-.2,.24-.21,.34-.58,.48-.2,.07-.77,.09-.77,.27-.66,.35-.26-.05-.6,.6h-.3l-.6,.75h.6v.3c-.52,0-1.05,.26-1.05-.3l-.21-.53-.1-.37,.31-.89h.15c.74-.5,1.35-.75,1.95-1.34Zm-3.91-18.84c.37-.26,.45-.26,.75-.6l.13-.18,.32,.33h.3l-.15,.45-.75,.17v.28h-.76l.16-.44Zm0,1.35l.17-.3h.28l.9-.16v-.3l.45,.15,.3,1.05-.45,.31c-.01,.76-.11,1.16-1.05,1.18v-.3l-.44-.18v-.87l-.47-.15-.17-.44h.47Zm-2.26,5.83h-.39c-.72,0,.38,1.66,.39,2.09-.7-.06-.27,.16-.6-.3l-.17-.44-.43-.3h-.3l.15-.6,.13-.18,.17-.13,.16-.3v-.3c.3-.28,.6-.28,.9,0v.45Zm-.15-4.34l-.15,.6-.6,.17,.15-.32,.15-.45,.18-.58-.64-.16c-.18-.27-.3-.26-.3-.6v-.14c0-.34,.12-.34,.3-.61,.52-.36,.41-.46,1.06-.3l.3,.45c.93,0,1.14-.23,1.21,.6h-.45l-.3,.15v.16l-.9,.16,.15,.28,.17,.59h-.32Zm1.65,2.25h-.45v-.45h-.3v-.9l-.15-.15h-.3l.15-.45v-.75h.45v-.3h.3c.74,.02,.74,.01,.75,.75l-.6,.17v1.17c0,.3,.04,.27,.15,.45v.45Zm.26-1.02l.04-.63v-.3h.45v.3c.09,.33,.04,.45,.45,.45,.93,0,.78,.56,0,.75h-.3l-.64-.57Zm-90.19-16.04c-.78-.15-.51-.29-1.13-.67l-.38-.08h-.3c-.56-.45-.77-.9-1.56-1.2-.73,0-1.04,.02-1.45-.59l-.29-.17c0-.21-.35-.44-.39-.64-.16-1.01,.77-.84,1.43-.85l.9,.3c.21,.56,.46,.75,1.05,.75,.16,.21,1.1,.6,1.35,.6h.15c.34,0,.33,.11,.6,.29l.15,.3,.6,.3c.15,.2,.58,.6,.9,.6h.3c.29,0,.27,.04,.45,.15,.81,.54,1.81,1.46,2.09,2.1,.21,.5-3.55-.87-3.75-.9l.3-.44v-.45h-.45c-.19,.2-.4,.39-.6,.6Zm2.84,1.35c-.02,.3-.35,.97-.97,.98-.3,0-1.07-.5-1.37-.64,.08-.52,.32-.77,.69-.84l1.65,.5Zm-7.79-1.05l.17-.14h.6l.24,.23c.4,.59,.39,.29,1.1,.66l.44,.16,.31,.14c.2,.17,.39,.45,.75,.45,.82,0,.96-.14,1.43,.52,.08,.54,.21,.48,.41,.96l-1.54-.29v.3l.49,.46h.3l.49,.42,.26,.03c.54,.17,.41,.18,.31,.72l-1.07-.28h-.02l-.6-.31-.72-.78c-.06-1.11-3.53-.73-3.34-3.26Zm10.82,10.47c-.97,0-.91-.3-1.65-.3-.12-.19-1.04-.53-1.85-1.04-.95-.6-1.81-1.35-2.07-1.35h-.42c-.22-.55-1.93-1.45-2.56-1.5-.34-.58-2.16-1.79-.47-1.79,1.12,0,1.16,1.05,2.1,1.05,.53,0,.23,.3,.75,.3,1.31,0,1.76,.16,2.56,1.35l.3,.15c-.1,.4-.15,.28-.15,.6,0,.2,.32,.36,.46,.48l.44-.17c0-.34-.12-1.95,.15-1.95l.48-.03,.42,.48c0,2.92,1.18,1.84,1.21,3.28l.29,.17v.3Zm-4.36-5.53c1.16,0,1.36,1.57,.93,1.36-.07-.03-.36-.55-.62-.7-.43-.26-.99-.66-.31-.66Zm43.31,41.55c.23,.99-25.64,1.4-27.1-2.3-.43-1.41-.58-4.04-.58-4.7v-.6h-.45v.6c0,1.2,.19,1.19-1.05,1.19-.27-.05-.62,0-.9,0v.6h.9c.56,0,.16,.02,.48-.16h.56c.05,.2,.06,1.05,.22,1.15,.05,.03-.19,.61-.18,.7v-.05c-.34,.17-.88,.45-1.37,.45h-.3c0-.25-1.31-.23-1.51,0v.62l.45-.18c.35,.08,.44,.16,.9,.16h.45l.28-.03,1.04-.41,.18,.89h0c-.3,.61-1.19,.31-1.65,0h-2.56l-.91-.45c-.18-.27-.3-.27-.3-.6l.42-5.91c.1,.19,7.69-1.07,15.69-1.38,6.78-.27,11.41,.04,12.67,.04,.81,0,3.79,.15,5.06,1.41v.6c0,.7,.15,.16,.15,1.64v1.34c.57,2.12-.47,3.97-.6,5.37Zm.9-6.71c.26-.41,.15-1.43,.15-2.09,1.02,0,1.82,.63,3.16,.75l-.31,.6c-.73,.5-1.7,.81-2.55,1.05l-.45,.3v-.6Zm28.42,8.52c-1.99,0-3.82,.3-5.71,.3-2.51,0-3.97-.89-5.54-1.37-.98-.3-1.54-.7-2.43-1-3.47-1.14-14.44,.03-14.56,.05,.02-1.76,.27-2.61,.27-4.56-.21-.91-.03-.83,.75-1.35l.18-.12c.17-.23,1.37-.39,1.93-.92,.31-.23,.84-1.05,1.5-1.05,1.97,0,3.81-1.31,6.09-1.36,2.69-.07,3.08-.21,7.16,.33,2.01,.26,4.15,1.17,6.02,1.97,3.91,1.69,4.08,1.61,4.79,5.65,0,.81,.33,3.44-.45,3.44Zm-2.4-10.32l-.6-.44-.45-.6c-.34-.32-.38-.48-.75-.75l-.16-.44c1.06-.7,3.43-2.04,4.82-1.35v4.64h-.3l-1.19-.47c-.3-.02-.26-.02-.46-.13l-.45,.15c.18,.13,.64,.44,.9,.44l1.46,.69,.05,.06v.45c-1.24-.74-7.56-2.88-7.79-2.94l.42-.36c.4-.19,.7-.47,1.07-.58,.72-.22,.28-.55,1.49,.43l.61,.6c.15,.14,.31,.3,.45,.45l.6,.44h.45v-.29h-.15Zm3.14-4.35l-.39-.12c-.93,0-1.22,.03-2.18,.29-.96,.27-1.98,.7-2.67,1.03l-.44,.18c-2.7-1.46-4.77-2.49-7.52-3.04-1.88-2.12-6.43-2.66-8.72-5.07v-.15l-.6-.17-.27-.31c-.06-.19-.12-.38-.18-.57h-.3v.45l.75,.9,.3,.15,.45,.6,.17,.13,.13,.17c1.7,1.18,4.34,1.89,5.87,3.29,1.53,1.84,8.71,1.86,8.87,4.34-.47,.17-1.31,1.04-1.81,1.04h-.15c-1.35-.73-1.95-.95-2.26-1.04h-.3c-1.42-2.12-5.84-2.84-7.97-3.44-2.48-.56-5.07-2.99-7.52-2.99-.41,0-.42-.07-.75-.15-5.59-4.22-18.14-4.23-23.13-9.3l-.17-.12c-.72-.62-1.39-1.19-1.95-1.94l-1.06-1.04-.6-.45c-.65-.32-.47-.59-1.15-.64l-.36-.41-.45-.45-.9-.6-.62-.15,.74,.76c.23,.55,.38,.33,.78,.73,.5,.43,1.28,.67,1.5,1.05l.45,.3c.36,.31,.62,.7,.9,.9v.3h-.45c-.17-.25-.68-.75-1.06-.75-1.54,0-3.49-1.76-4.96-1.79-.25,0-.9-.4-1.05-.6-.58-.94-.49-.89,.04-2.01l-2.3,.53c-3.55-.01-1.93-1.43-4.51-1.95-.47-.93-.81-.44-.56-1.05,.21-.9,.61-1.05,1.2-.45,.62,.46,4.02,2.06,4.02,.16v-.75c-.18-.05-.41-.15-.45-.15-.43,0-.66,.13-.91,.3,0,.65-3.46-.34-3.46-2.99,.13,0,.29-.05,.43-.14l.04-.03c.16-.11,.28-.25,.28-.43,0-.34-.15-.68-.49-.68l-.69,.05c-.25,0-2.28-1.06-2.28-1.46l-.45-.15c-.01-.48,.05-.75-.45-.75h-1.35c-.34,0-.33-.12-.6-.3-.3-.3-.76-.12-.9-.75,0-.05,0-.11,0-.16,1.4,.65,1.97,.68,3.01-.5,.95,.33,1.82,.64,2.86,1.1l1.96,.3h.45c.57,0,.05-.05,.45,.15l.15,.15,1.05,.15,.6,.45c.17-.29,.3-.34,0-.59l-.6-.3-.27-.03-.33-.27-.13-.17-.17-.12c-.18-.11-.16-.15-.45-.15-.56,0-4.08,.55-3.01-1.05,.94,0-.2-1.56-.53-2.84-.07,.03-.31-.74-.97-.74-.29,0-.1,.3-.6,.3h-.6l-.6-.31h-2.41l-.63-.66c.89-.07,.94-.39,1.53-.39h1.2c.57,0,1.03,.35,1.69,.35,.79,0,2.21-.17,2.23,.98,1.22,.9,5.78,2.94,5.78,4.11,0,1.11,1.82,4.88,3.24,4.88h.75c2.42,0,5.32,3.74,8.27,3.74,3.64,0,9.69,1.11,12.87,2.16,4.67,1.66,9.94,4.87,13.79,8.57l.26,.03v.3l-1.05-.17-.45,.17c-.57,.47-1.23,.6-1.95,.6l.15,.45h.6l.75-.15c.51-.51,1.09-.21,1.8-.14,1.38-.41,2.43-.31,3.91-.31,6.28,0,14.42,4.03,18.49,8.08,.47,.44,1,1.07,1.5,1.37,.05,.57-.09,.43,.46,.58l-.3-.9-.15-.15c-.76-.76-.73-.73-1.2-1.05-.9-.9-1.22-1.12-1.98-2.06l-.8-.57c2.59-.77,6.84-1.96,9.24-.36,.96,.41,9.81,2.71,9.47,3.89l-.45,.15c-.75,.5-.24,.87-1.5,.9-.99,1.96-1.58,.9-3.16,.9s-9.16-.09-9.79,1.03Zm7.87,22.27c-1.03-.36-1.36-2.52-1.84-3.42l-.6-1.04v-.59c1.5,.01,.14-.76-.81-1.26-.91-.49-.74-.72-.93-1.73-.07-.35-.13-.69-.22-1.04l-.3-.6c-.55,.07-.43,.02-.44,.28l.29,.17c-.25,1.76,1.03,1.92-1.2,1.63-.82-.02-.97-.14-1.36-.58l-.15-.3v-5.68l.45-.15c.78,.52,1.43,1.6,1.96,2.4l.28,.16c.29,1.03,1.12,1.44,1.89,2.32,.1,.76,.3,1,.84,1.56,.45,.87,1.66,2.26,2.85,2.84,1.56,3.46,.78,5.59-.72,5.06Zm1.17,84.53l-.19,1.49,.04,.6v.3c-.51,.96-1.25,3.05-2.87,5.62-1.62,2.57-6.18,9.65-10.37,12.78-.28,.19-.42,.41-.66,.54-.26,.14-.5,.17-.79,.41-1.31,1.08-1.9,2.29-2.61,3.54-.84,2.72-2.59,5.92-3.75,8.82h0c-.3,.87-1.04,2.6-1.05,3.44-.13,1.07-3.57,6.87-5.33,7.82-1.76,.95-3.13,4.66-4.48,6.87-.3,.44-1.16,1.07-2.08,2.65-.91,1.59-5.03,5.4-3.76,9.73,.23,2.37-1.51,5.37-2.55,8.01-.18,.44-.22,1.28-.3,1.71v.29l.27,.11,.1,.17,.17,.39c.07,1-.25,1.44-1.14,2.04v.3c0,.47-.12,.6-.6,.6h-.9c.19-.69,.45-.38,.45-.89,0-.33,.11-.45-.15-.45h-.3l-.17,.6-.43,.3c-1.16,.58-3.46-1.14-3.46-2.39,.38-.56,.44-.19,.45-1.05h-.45l-.31,.6v.6h-.29c-.27,.19-.27,.3-.6,.3-2.1-.66-1.93-.79-1.78-1.79h-.3l-.17,.3v.29h-.3c-1.09-.55-2.18-1.55-.75-2.54h.15c.52-.7,.43-.37,.9-1.35h.75v-.45h-.75l-.42-.35-.04,.64-.29,.16v.59l-.62,.45c-.29,.32-.69,.46-.6,1.35l-.29,.15-.31-.02c-.66-.7-.73-1.01-.3-1.94l.15-.3v-.3h-.3l-.6,.6c-1.48,0-1.02-1.74-.15-2.7l.43-.19,.32,.04,.75,.6v.3c-.32,.02-.38,.19-.75,1.05h.3c.21-.32,.44-.39,.75-.6l.3-.17v-.28c0-.46-.14-.42-.27-.87,.48-.07,.69,.03,.9,.41,.33,0,.48-.16,.7-.24,.38-.14,.74-.3,1.09-.64,.77-1.15,1.58-1.22,2.46-1.97l.24-1.17c.15,0,.19-.58,.47-1.09,.3-.52,.85-.97,1-1.16,.87-.31,1.89-4.98,1.99-5.83v-.3l.15-2.39c.48-4.84,2.96-12.01,4.51-16.9,0-.81,.6-1.42,.6-2.09,0-.29,.05-.27,.15-.45,.47-.93,.46-1.43,.77-1.64,.32-.03-.26,.79,.17,1.8v.3l-.82,1.57c1.23-.83,1.38-2.22,1.51-3.97,.05-.64-.36-.82-.29-1.3,.39-2.59,4.38-5.91,5.9-8.2,.52-.77,1.42-2.05,2.06-2.77,.88-.96,4.9-6.35,5.43-5.52,.47-.71,.99-1.22,1.35-2.41,0-1.42,3.09-5.06,4.36-5.53-.07,.85-.23,.19-.3,1.05,.47-.04,.9-.27,.9-.9,0-.52,.11-.58,.15-1.05,.7-.86,.81-1.28,1.54-2.25l.48-1.18,.04-1.22c-.04-.35-.1-.44-.1-.89v-.15c.53-8.74,4.6-17.04,8.02-24.47,.87-1.89,5.41-9.17,5.96-9.17v.9c-.32,2.32-.18,4.48,.32,6.2,0,3.18-.33,5.6-.55,8.77,.1,4.41,.42,8.53,.82,12.86l.02,1.47c-1.18,.62-1.2,1.01-2.1,1.8l-.45,.45-.71,.54-1.09,.5c-.47,.25-1.52,.67-1.75,1.12-.43,.31-.41,.37-.92,.82l-.56,.18c-.35,0-.45,.11-.45,.45l.02,.32,.3-.3,.57-.03c.26-.3,1.73-1.41,2.44-1.73l.33-.07,.6-.45,.3-.15,.7-.43,.35-.32,.15-.15,.6-.6c.38-.4,.98-1.27,1.63-1.34l.17,1.05,.15,.89v.45Zm24.26,89.8c-1.38,.41-3.36-.62-3.36-2.91,0-1-1.05-1.91-1.05-3.89l-.13-.66c0-.58-2.43-3.24-3.42-6.4-1.03-3.25-1.56-9.29-1.56-12.82,0-4.75,.3-8.73,.3-13.61,0-2.4-2.11-4.93-2.11-7.63v-1.35c0-1.16,.3-2.38,.3-3.59,0-.05,.63-1.46,.69-1.53l.11-.53h.87l4.88,.03s-.82,3.9-.84,3.97c-.59,5.04-1.35,8.04-1.35,12.86v.9c.04,4.78,3.77,10.53,3.91,15.55,.14,2.89,1.69,7.79,2.78,10.73,.81,2.2,1.28,5.19,1.38,6.78-.08,.99-.16,3.73-1.4,4.1Zm-4.34-55.41l-4.79,.06h-.9l.05-.7,.15-.7c.87-1.3,1.81-5.31,1.81-6.88,1.55-.93,2.04-5.44,2.1-7.33,0-4.28,.16-8.7,.16-13.61,0-.17,.47-1.55,.57-1.67l.33-1.02,.45-.15,.46,.3c0,1.11,.29,1.72,.29,3.14,0,.59,1.22,9.42,.87,11.88-.08,.33-.57,2.67-.57,3.08,0,4.22-.36,8.01-.54,11.97,.16,1.18-.27,.62-.44,1.63Zm32.11,55.18c.79-.27,1.4-.14,1.8,.44-.13,.17,.18,.18-.45,.18-.52,0-.58-.11-1.05-.15h-.3v-.47Zm-18.95-50.68c0,.52-.24,5.08-.1,5.23l.16,.69c1.36,6.38,.73,13.16,.68,18.91-.59,4.68-.46,12.52,1.65,16.89,.23,.56,.9,1.59,.9,2.09,0,1.31,2.2,2.19,3.2,2.76,3.49,1.69,9.21,5.44,11.98,5.02,1.09,.13,2.87,.39,3.31,1.05l.46,.13s.07,.02,.11,.03h.03c.36,.08,.93,.04,1.22-.02,.64-.07,.89-.58,1.2-1.04h.3l.15,.75c.24,1.91-1.95,3.14-3.6,3.14-.91,0-1.25-.27-1.96-.9v-.3h-.45c0,1-.63,.9-1.65,.9-.74-.49-.14-.75-1.2-.75-.12,.46-.43,1.04-.91,1.04-2.92,0-5.06-1.19-7.81-1.19-1.3-.69-7.58,.07-7.23,.17-1.47,.39-3.32,.88-4.81,.88-5.39,0-2.4-3.92-2.4-6.43,.8-6.54-3.7-13.12-4.36-19.44,0-1.37-.16-2.71-.16-4.04-.39-2.47-.91-2.78,.9-1.87l.3-.52c-1.15,0-2.99-3.94-4-6.32-.51-1.2-.69-1.73-.63-3.02,.27-5.99,2.08-12.04,2.08-17.88l.45-.15h1.5l1.81,.3c.29,.35,.93-.05,1.65,0l2.56,.2,.6-.05h.3l.45,.9,.45,.17c0,.62-.1,1.38,.16,1.77l.6,1.04h.3v-.44c-.33-.49-.4-.56-.45-1.35l-.15-1.04c-.15-.14-.31-.3-.45-.45l-.17-.6h1.83l2.02,.05c0,1.18-.82,2.45-.82,3.69Zm7.68-31.56c-.66,4.09-1.55,9.77-3.05,15.03-1.2,4.21-3.15,8.04-3.12,11.29l-.72,1.05h-1.83l-2.55-.18-.16-.42-.16-1.04h-.28l-.16,1.34h-1.05c-.38-.44-2.43-.16-3.18-.16-.19-.4-.15,.13-.15-.45,0-.2-.42-1.19-.58-1.19v-.15c0-.53-.3-.79-.3-1.2v-.45c0-.36-.27-.54-.45-.75h-.3v.3l.3,.15c.04,.47,.15,.54,.15,1.05v.3c0,.49,.03,1.11,.3,1.34l.15,.3v.75l-1.2,.15h-1.16l-.34-1.2c0-2.44,.68-4.88,1.06-7.33v-.3l-.13-.71s-.02-.1-.03-.18l-.19-1.34,.04-2.4c.43-3.11,.61-5.98,.61-9.12l-.3-2.7c-.25-.61-.76-1.98-.76-2.54v-5.24c-.2-4.42,1.2-8.93,1.2-13.46v-.3c.16-.29,.3-.44,.3-.9v-1.57c.42-.1,.25-.52,.59-.52,.45,0,.72,.75,1.21,.75h1.81c.33,0,.33-.11,.6-.3l.75-.14v.3c0,.69,.45,.95,.45,1.79,.18,.27,.3,.26,.3,.6,0,3.94,6.07,12.12,8.87,14.8,.63,.6,3.46,3.46,3.46,4.34v.6Zm1.84-18.99c-.08,5.57-.82,12.06-1.4,17.2-.51-.01-2.64-2.7-3.19-3.26-.39-.38-.7-.63-.98-1.11-.52-.85-.27-.42-.87-1.09-2.12-2.41-6.84-9.03-6.84-12.04v-.59l-.3-.16c-.05-.59-.14-1.15-.45-1.49l-.36-.79-.09-.55c-.12-.08-.3-.08-.3-.3,0-.43,.65-1.65,.72-2.39l-.12-2.39c-.25-.38-.47-1.14-.59-1.68l-.46,.48v.3l.75,1.34v.15c.02,1.3,.49,2.17-.5,3.39-.34,.44-.65,.83-1.15,1.1l-.46,.3-.44,.17,.15-.61c.25-.64,1.33-1.7,1.33-2.6s-.58-1.6-.54-2.8c.03-1.11-.95-4.08,.26-4.33,.39,.02,.51,.32,.62,.7l.14,.21,.32,.51c-.03-.27,.13-1.71,.53-1.68,.31,.08,.51,.23,.94,.26h5.41c.71,0,3,.38,3.31,0,1.03-.07,2.05,0,2.86,0,.34,0,.45,.11,.45,.45,0,4.43,1,8.88,1.25,13.32Zm2.3-65.18c-.98,2.67-2.38,5.3-2.3,7.46-.17,1.49-2.75,6.61-2.75,7.02v.3c.95,.64,1.71,5.8,2.35,9.19,.36,1.9-.81,3.94-2.51,4.84l-.29,.03-.33,1.12c1.42-.44,1.44-1.62,2.1-1.56l.33,3.58c0,.81-.07,1.1,.3,1.79v2.1c.2,3.47,.07,6.53-.4,9.73l-.35,2.53v2.54h-1.36l-.3,.15c-.57,0-4.7-.13-4.8,.13h-4.68l.13-.22c.61-.32,.91-.21,1.08-.81l.3-.6,.29-.16v-.59l.31-.15c.26,0,.15-.12,.15-.45,0-.57-.04-.06,.15-.45l.17-1.19v-.31c-1.37-2.53-.47,0-.47,.31v.3l-.6,.74v1.2c-.43,.1-.12,.28-.47,.28-.27-.1-.44-.23-.28,.32-.08,.43-.27,.8-.76,.99l-.64,.17,.04-.71,.16-.15c0-.78,.37-.56,.45-1.2l.3-.16c.23-.39,.67-.56,.35-.93-.47,.11-.31,.35-.84,.73-.47,.69-.86,.36-.86,1.25-.39,.26-.4,.15-.45,.75l-.6,.15v.3h-.9l-.3,.45-.13,.17c-.5-.35-.13-.27-.77-.32v-.3l-.46,.15-.15,.3v.27l.45,.18,.06,.04c.2,1.68,.08,2.79,.08,4.4,0,.88,.92,1.75,.92,2.44,0,.56-.87,2.44-1.35,2.69-.17,.26-.32,.6-.75,.6-.68,0-1.59-1.46-1.95-1.94l-.15-.14c-.3-.53-.3-1.35-.3-1.95,.69-1.29,.99-1.16,.53-2.49-.47-1.33-.05-1.84-.07-2.44v-.62l-.45,.17-.15,.15-.3,.45c-.3,0-.11,.11-.11,.45l-.19,1.64c-.06,.57-.24,.84,0,1.05l.05,.45,.08,1.94,.45,1.05,.17,.6-.3,.9-.35,.41c-.64-.12-.67-.48-1.49-.18-.35,0-.8-.27-1.01-.38l-.3,.15c-.02,.31,.2,.61,.75,.89h.31l.6,.3h.9l.45-.3c.86,.64,.3,.91,.35,1.8l-.2,2.83v1.5c-.16,1.46-.5,4.29-1.2,5.68-.33,1.35-2.65,5.58-2.71,6.88-.43,2.34-.85,5.45-.59,7.18,.44,3.56,.3,5.81,.3,9.73-.53,1.55-.86,4.53-1.5,5.23l-.6,.17-.16-.62h-.29v1.04c.18,.27,.29,.27,.29,.6v1.05c0,.42-.04,.27-.29,.45l-.33,1.34c-.99,.3-1.47,1.21-1.47,2.1,.62,0,.41-.23,.75-.74v-.3c.66,.08,.91,.21,.6,.44-.24,.17-.3,.03-.3,.45,0,1.21-.56,2.4-1.65,2.4-.17,.62-.07,.31-.6,.6l-.45-.18-.31,.18h-1.5l-.45-.3c-.04-.55-.05-.55-.6-.6h-.15l-.15-.3c-.31-.29-.36-.4-.6-.75v-2.84h-.45c-.24,.19-.25,2.24,0,2.24l.15,.3v1.05h.3v.6h.45l.16,.29v.31l-.98-.17-5.45-.13-.36-1.2v-.9c.64-1.23,.45-3.52,.45-4.79,0-.91,.3-1.14,.3-1.94,0-1.55,1.05-3.39,1.05-4.79,0-.57-.18-1.96,.16-2.24,1.15-.29,.9,2.22,.9,3.29v.6c0,.46-.12,1.27,.15,1.49l.6,.45v-.45c0-.46-.15-.61-.3-.9v-1.35c0-.97,.47-2.17-.15-2.69-.87-3.75-2.36-7.65-3.31-11.51-.1-.18-.16-.16-.16-.45v-.3c0-.81-.3-.83-.3-1.65,0-1.03-.3-2.46,0-3.43,.16-1.85,5.18-5.98,6.32-6.74l.6-.45c.73-.48,2.08-1.83,2.56-2.54,.99-1.42,2.15-2.32,3-3.89,1.09-1.99,2.33-4.23,3.61-6.13,.29-.4,.22-.7,.75-.9,0,.66-.32,1.89,.3,2.24l.15,.3h.33l-.17-.6c0-1.15-.27-2.98,.6-3.29v-.74l.6-.3v-.46l.15-.29,.16,.9c.04,.59-.1,.47-.16,1.05,.38-.1,.75-.29,.75-.75,0-.76,.32-3.21-.15-3.59h-.3l-.41,.35-.03,.55c0,.31-.35,1.21-.46,1.64l-.14,.15c-.57,.38-.29,.35-.63,.87-.34,.52-.26,.15-.63,.71-.3,.44-.88,1.37-.99,1.85-1.37,1.96-2.52,4.02-3.77,6.13-1.33,2.25-4.22,5.43-6.31,6.88l-.93,.58-.13,.17c-1.89,1.26-2.79,2.86-4.37,4.34-.73,1.24-.3-.74-.3-.89,0-2.24-.75-5.26-.99-7.47-.41-1.33-.22-3.52-.2-4.9,.08-4.24,.44-10.57,.44-11.27l.45-.45h2.4v-.45c-.8,0-1.44-.24-2.23-.24l-.57-.24-.23-1.3-.33-2.09c-.1-1.81,.28-3.61,.49-5.06,0-.52-.3-.23-.3-.74-.43-3.5,1.18-10.72,3.85-12.67,.5-.17,.39,.11,1.14,.22l1.45,1.01c.74,.71,2.62,.36,2.89-.35,.06-.2,.13-.39,.18-.6-.15-.1-.3-.19-.45-.29h-.45c-.41-.1-.82-.19-1.23-.28,.11,.19,.23,.39,.34,.57,.43,.05,1.2-.07,1.2,.41-1.38,.26-2.03,.12-2.42-.18-.14-.53-.81-.59-1.41-.99-.9-.6-.67-.91-1.14-1.25l-.42-.75-.17-1.19,.13-1.05c0-1.34,.45-1.45,.45-2.39,0-1.69,1.67-3.64,1.67-5.5,0-.4,.39-.8,.75-.9,.08-.33,.15-.34,.15-.75v-1.05l-.3-.23c-.13,1.26-2.99-4.02-3.24-4.56,0-.07-.58-3.26-1.14-4.97-.1-.19-.15-.16-.15-.45,0-2.41-1.2-4.32-1.2-6.87,.39-1.86,1.8-1.84,1.8-4.19,.56,0,.6-.13,.6,.45,1.91,1.89,2.32,2.39,5.41,2.39h.3l1.21,.3c1.95,0,3.69-.12,5.26-.9l.45-.3c1.3-.64,3.13-.46,4.06-1.05l.45-.3,.45-.3c.25-.17,.52-.29,.75-.45h1.36v-.3h3.31c.25,.93,.21,0,.76,.71l.75,.18,.3,.15h.75c.66-.22,2.33,1.2,3.31,1.2,.26,0,1.16,.6,1.2,.6,.52,0,.23-.3,.75-.3h.15c.53,0,.23,.3,.75,.3h.45c3.43,0,5.37-1.4,8.09-2.73l.18,.19c2.53,0,1.86,1.03,1.85,2.14,.1,.69,.38,1.11,.41,1.15,.18,.27,.3,.26,.3,.6-.42,1.1-.45,2.78-.97,4.21Zm-10.08-7.62l-.98-.04c-2.09,0-.13-.3-2.1-.3v-.45h2.41v.15l.67,.64Zm.38-.49v-.13l.76-.18h.29c1.5-.01,3.06,.01,4.51,.01v.3l-.49,.41-.57,.18-.75,.3-.16,.29c-1.82,.02-2.98,.54-4.5,.76l.15-.45,.15-.15c.85-.4,.59-.71,1.5-.9l-.9-.45Zm-3.31,.45l.3,.3c.46,.34,.24-.1,.3,.62l-.75-.17-1.36-.44c-.27-.54-1.7-.6-2.26-.6v-.45h1.05c.2,.11,.16,.12,.45,.13,.73,.16,1.53,.62,2.26,.62Zm17.86-5.86l-.43,.48c-1.07,1.96-1.7,3.79-4.06,4.03-.15-.72-1.13-1.31,.15-1.34,0-.58-.02-.59-.6-.59-.46,.24-.69,.72-.76,1.35l.16,.15h.3v.45h-1.21l-.3-.14v-.3l.41-.71c-.2-.61,.29-.16,.67-.57-.02-.3,1.25-3.7,1.66-3.92,.53-.3,.31-.41,.9-.76,.68-.41,.4-.24,.96-.68,.94-.74,2.58-2.04,3.67-2.33v.9c0,.52-.3,.23-.3,.75l-.45,.89v.3c0,.97-.73,1.17-.78,2.06Zm.78-.27c.02-1.13,.45-.53,.45-1.19,0-.7,.51-1.3,.81-2.02-.09,1,.16,3.06-1.26,3.21Zm.76-12.36c.38-.34,.63-.36,.59,.1l-.15,.6c-.1,.75,.38,1.62,0,1.94l.15,1.04c-.04,.52-.1,.44-.18,1.05l-.72,1.95c-.04,1.49-6.55,3.43-6.65,5.2l-.27,.78c0,.61-.58,.98-.73,1.55-.02,.08-1.08,2.11-1.08,2.19l-.47,.58-.72,.32c-1.06,0-2.12,.04-3.17,.04-1.42,0-3,.17-3-.33l.15-.3h.45v-.3c-.67,.01-.83,.13-1.2,.45l-.3,.45h-.6c-.32-.23-.49-.3-1.05-.3-.38,0-2.41-.13-2.41,.14h-.45c-1.23-.64-.29-.3-1.65-.75-1.15,0,.18-.45-1.66-.45l.15-.59,.3-.15c-.27-.58-.58-.79-.9-.75v.32l-.46-.18-.3-.45v-.3l.15-.45,.15-.75h-.45v.75l-.18,.12-.13,.17v.45c.18,.27,.3,.26,.3,.6v1.34l.3,.16c.18,.37,.15,.59,.15,1.05h-.9c-.53,0-.58-.11-1.06-.15h-.44l-.44,.33-.32-.03v-.44l.16-.3,.75-1.2,.07-1.67-.97,1.67-.15,.3v.45l-.6,.89c-.27,.19-.27,.3-.6,.3h-.61l-.6-.15c-.45,0-3.31-.13-3.31,.15h-2.11l-.3,.15-.15,.45c0,.27,1.2,.15,1.5,.15h.31l.6-.3h3.91v.15c-.66,0-.73,.27-1.36,.45-2.38,.75-5.47,2.11-7.82,2l-1.5,.09-.15-.3h-1.36c-.26,0-.72-.32-.9-.45l-.45-.3-.9-.75h-.45v-.42l.6-.18h.6l1.36,.15,.61-.17,.43,.15c1.18-.24-.13,.48,1.21,.48l.15-.15,.6-.15c.66-.09,.18-.28,.75-.28l1.35-.16v-.3l-1.21-.15c-.08-.04-.6-.38-.6,0-.7-.02-.5-.15-1.05-.15-.33,0-.28,.13-.9,.15v-.31l.15-.29v-.3h-.3l-.45,.6c-1.06,0-1.29-.05-2.26-.6l-.3-.15-.9-.45c-1.1,0-1.29-1.13-1.57-1.89-.3-1.15-1.83-1.31-2.49-1.69,0-.55,.01-.45-.58-.61l-.17-.44-.3-.45-.48-.42-.27-.03h-.45l-.3-.6-.15-.15-.43-.15-.47-.6,.15,.45,.15,.45-.29,.16h-.31l-.3-.32v-.58l-.3-.17c-.24-.34-.21-.63-.35-.85-.19-.29-.35-.13-.7-.65l-.75-.9-.43-.16-.17-.29c-.37-.73-.68-.84-1.3-1.7-.44-.59-.51-1.01-.81-1.44l-.6-.6h0v-5.83h.76l1.35-.3,1.2-.15-.6,.75c-1.06,.49-1.42,.39-2.3,1.17l.5,.05,.6-.18h.15c.19-.14,1.46-.62,1.59-.81,.21-.15,.16-.19,.51-.21l.6-.17c.27-.22,1.03-.6,1.5-.6,2.61-.03,6.05-1.7,8.57,1.65,.46,.43,.16,.44,.75,.6v.44h.45v-.3c-.56-1.17,.47-.9,1.5-.9l.45,.15v-.3h.75l.45,.45c1.28,0,2.5-.3,3.76-.3,.65,0,.81,.18,1.35,.3,.27-.18,.26-.3,.6-.3h1.95c.58,.84,.62,.22,.59,1.51l.33,.44,.45,.15c.03-.05,.3-.59,.32-.6l-.18-1.49h1.35v.45l.3,.6c.58,.15,1.11,.93,1.5,.45l1.2-.15,.45-.45v-.61l1.21,.16h.3c.12-.1,.42-.45,.6-.45,.38,0,.36,.04,.6,.15,.31-.07,.42-.17,.61-.19l3.6,.35c.51,.05,.2-.3,.75-.3,.78,0,2.04,.22,2.41,.18l1.19,.13h.43l.17-.3c.39-.25,1.02-.15,1.65-.15v1.34h.3c.19-.18,.6-.55,.6-.89,0-.41,.08-.41,.15-.75,.64-.17,.27-.3,.76-.3h.6c.51-1.88,7.25-.45,8.27-.45,1.41,0,1.97-.75,3.81-.74l-.35,1.49-.08,1.23-.31,.76c0,.21-.17,.84-.06,.75Zm13.68,10.57h-.91c-.52,0-.23,.3-.75,.3-2.18,.14-4.13,.26-6.25-.12l3.33-.55,.94-.22c.69,.06,1.16-.6,1.98-.6h.45c.4,0,.51,.01,.85,.09l2.33,.61c-.71,.02-1.5,.49-1.97,.49Zm53.53-2.54c-2.81,1.12-6.58-.16-11.05,.93-9.52,2.32-12.2,2.85-22.61,1.64-.58-.07-1.02,.05-1.51-.95-.27,0-.31-.62-.31-.96l-.16-.66-.17-1.34h-.28v.45c-.04,1.5,.54,2.24-.9,2.24-.42,.03-1.31-.23-2-.14-.9,.12-1.61,.58-1.92,.58-2.92-.75-5.89-.44-9.32,0-.4,0-.58-.3-1.06-.3h-.3c-1.07-.32-1.91-.65-3.01-.45-.84-.57-1.57,.06-2.43,.51l-.78,.23h-.71l-2.37,.25-2.58,.19-.43,.04-1.36,.3-.33,.27-.82,.13,.07-.43c.38,0,.03-1.22,0-1.35l.16-.75,.3-1.34v-.3l.51-.83c.98-.83,2.24-2.25,3.21-2.39l.94-.53,1.35-.3c.31-.21,.39-.45,.75-.45,4.54-.52,7.99-2.41,11.71-2.58,3.29-.16,6.87,1.12,10.53,1.12,.3,1.14,.93,.92,.84,2.42,0,.07,0,.15,0,.22,.02,.07,.04,.15,.03,.24,0,.07-.03,.13-.04,.2-.02,.52-.05,1.08-.05,1.67l.31,.02,.3-.16c.1-.18,.15-.16,.15-.45v-.3c0-.46,.07-.55,.13-.89l-.13-.61v-.6l.15-1.35,.3-.45h.3c2.63-.53,3.31-1.4,8.66-1.6,5.36-.2,15.35,1.9,23.68,.53,1.17-.43,2.04-.23,2.4,1.07,.16,.38-.03,3.26,0,3.75l.3,2.99c0,.35-.11,.45-.45,.45Zm9.63-1.49l-.15,.75c-1.04,.2-1.68,.82-3,.75-.32,0-.49,.05-.64,.12h-.26l-.93-.08-.59-.04h-.6l-.6-.15h-.3v-.6c.22-1.87,.17-1.17,.6-1.94l.76-.33,.44,.18c1.87,0,1.95-.18,3.46-.9l.6-.3,.6-.3c.67-.45,.84-.1,.9-.89,.57-.57,1.06-1.07,1.06-1.95h.58c.55,.25,.26,.52-.13,.75-.15,.77-.18,1.62-.44,2.31-.3,.79-.81,1.41-.92,2.3l-.29,.17-.15,.16Zm12.88-3.84l-.54,.32-.59,.41-1.77,.04c-.27,0-.56-.17-.86-.17-.45,0-1.14,.1-1.6,.1h-.3c-.22,0-.55,.15-.95,.17-.48,.02-1.02-.09-1.3-.06-.98-.03-.48-.65-.34-1.49l-.4-.05-.7,1.83,.05,.95c-.07,.68-.43,.31-.43,.9v.6h.46v-.6c1.02,.03,.47,.31,1.05,.31h.3c.52,0,.23-.31,.75-.31h.9l1.35-.11c1.07-.14,3.18-.21,3.25,.37,.03,.2,.09,.64-.54,.94l-1.54,.05c-.21-.26-.03-.29-.59-.29-.3,0-.19,.39-.72,.39h-.46l-.64,.05c-1.15,.09-1.66,.25-2.81,.25-.52,0-.23-.3-.75-.3s-.19,.28-.75,.3c-1.17-.07-1.68,.38-2.08-.03l-.03-.27,.15-.3c.25-.17,.52-.29,.75-.45l.16-.29c.2-.31,.45-.39,.45-.75v-.75l.31-.59v-.45l-.18-.3,.17-.6c.23-1.06,.79-.89,1.84-1.19h.3v.31c1.17-.28,2,.21,3.26,.21,.52,0,.23-.3,.75-.3h.31c1.03,0,1.98,.05,3.02,.14,.77,.14,1.9,.17,1.29,1.03Zm1.85-2.14h-.3c-.52,0-.23,.29-.75,.29h-.6c-1.39,0-2.89-.29-4.06-.29h-.3c-.5,0-.31-.3-.6-.3-.21,0-.64,.59-1.05,.59h-.3c-.52,0-.23-.29-.75-.29h-3.44c-.98-.89-1.43-.16-2.28-.16h-1.8c-.34,0-.33-.12-.6-.3l-.78-.21,.02,.36,.45,.3c.41,.54,.5,.68,1.08,.3,1.2,.03,1.93,.02,1.93,.6l-.3,.15v.72l-.3,.18c-.44,.32-.88,.47-1.05,.9h-.6c-.81,0-1.17-.44-2.55-.3-.33,.04-.41-.07-.76-.16-.6-.14-.7-.45-1.05-.45-.39,0-1.05-.57-1.05-1.05l.15-1.2-.29,.4-.17,.13-.13,.17-.15,.15c-.5,.41,.02,2.12,.22,2.72,1.01,.89-.59,1.79-.84,1.84l-.79-2.03,.29-1.6,.04-.1v-2.13c0-.29,.05-.27,.16-.45,.27-.18,.26-.3,.6-.3,2.1,0,3.88-3.15,6.02-3.29,.81,0,1.52,0,2.41,0,.27,0,1.44,.29,2.6,.36,.97-.09,1.17-.36,2.07-.33,1.41,.04,2.88,.4,4.37,.45l.58,.27c.26,.17,.87,.4,1.3,.41l1.01,.07,.32,.4c.14,.72-.27,.92-1.12,.92-.64,0-1.28,.11-1.8-.16l-.75-.14c-.67-.07-.31-.63-1.5-.23v.23h.44l.28,.03,.48,.42,.45,.3h1.05c1.33,0,2.51,.46,3.75,.46h.16c.58,0,1.17-.31,1.17,.58v.31c0,.34-.22,.45-.56,.45Z"/><path class="e" d="M598.97,195.84v-.15l-.45-.15v1.2c-.45-.05-.38-.07-.6-.3-.16-.22-.86-1.12-1.05-1.35v-.15c-.91-.86-1.58-4.79-2.85-4.94,.01,.74,.14,1.05,.6,1.35,.02,1.14,.42,1.33,.81,2.04,.3,.55,.71,1.6,1,2l.15,.3c.27,.4,.91,1.49,1.35,1.65v.89l-.02,.32,.32,.43v1.19h.77c-.83-2.17,.55-2.33-.02-4.34Z"/><path class="e" d="M608.45,247.58v.9l.6,1.05,1.05,1.04,.15,.3,.46,.6,.9,1.05c.33,.31,.46,.57,.75,.9l.3,.15c.27,.4,.58,.72,.9,1.2,.27,.39,.16,.4,.84,.41l-.54-1.01c-.36-.34-.72-.67-1.06-1.05l-.44-.15c-.18-.55-1.23-1.82-1.66-2.39l-.46-.3c0-.32-.3-.88-.6-1.04l-.75-1.2-.15-.15v-.3h-.3Z"/><path class="e" d="M610.55,238.61c.08,.9,.76,1.22,.94,2.34l.57,.95c.88,.64,.87,2.4,1.46,2.45l.16,.75c.3,.9,.56,1.4,1.11,2.45,.07,.47,.29,.5,.5,1.08,.17,.46,.38,1.3,.38,1.79l.3,.9v.3c0,.45,.16,.47,.3,.75,.11,.19,.13,.15,.14,.45l.16,.75,.08,.05,.73,1.78,.26,1.86c.34-.09,.28-.56,.28-.97v-.75c-.66-1.25-1.01-2.09-1.2-3.46l-.3-.75c-.2-.3-.27-.23-.28-.6l-.17-.9c0-1.35,.19-1.41-.55-2.6,.02-.01,.04-.02,.07-.03-.08-.92-1.41-2.36-1.93-3.38v-.57c0-.39-2.66-4.55-3.01-4.64Z"/><path class="e" d="M592.2,95.34l-.45,.75-.3,.45c-1.55,1.03-3.52,3.77-3.76,5.68-.3,.25-.25,.79-.3,1.19l.45-.3,.15-.6c.04-.3,.04-.24,.15-.44,.3-.6,.25-.87,.75-1.5,.43-1.02,1.26-1.09,1.92-2,.38-.52,.49-1.21,.94-1.88,.48-.49,.62-.95,1.17-1.36,.43-.77,.62-1.28,.96-1.77l.12-.48c-.38,.14-.85,.58-1.2,.92l-.6,1.35Z"/><path class="e" d="M580.31,147.97c-.55,.22-.41,.56-.74,1.06l-.15,.6c-.24,.16-.45,.2-.45,.61l-.3,1.79v.9c0,.52-.3,.22-.3,.75v.33c-.22,.32-.47,.86-.76,1.11-.24,.21-.48,1.12-.75,1.42-.79,.89-1.65,1.59-1.95,2.22,1.62-.13,4.81-6.24,4.81-8.07v-.45c0-.41,.07-.41,.15-.75,.33-.49,.6-.75,.61-1.32l.3-.18c.35-.52,1.53-.87,2.3-1.3l.43-.47c-1.29,.38-2.41,.49-3.2,1.75Z"/><path class="e" d="M678.22,90.85c-.13-.11-.6-.39-1.05-.52-.7-.19-1.35,.04-1.4-.25-.62-.47-1.25-.31-1.98-.44-.32-.08-.44,.24-.61,.2-.44-.09-1.04-.15-1.36-.49-.42,0-.72,.16-1.1,.23-.34,.06-.76,.05-1.13,.05v.51l1.62-.06,.33-.16c.73,.49,1.32,.59,1.82,.47,.85-.57,1.77-.21,2.44,.29-.25,.39-.27,.82,.3,1.34,.33,.19,.87,.17,1.79-.27l.32-.33c.12,.16,.14,.36,.08,.66-.44,.43-.63,.46-.73,.94,.75-.32,1.1-.86,1.1-1.6,0-.4-.22-.44-.45-.6Zm-1.98,.76c-.46-.24-.11-.22-.13-.91h.75l.75,.31,.41,.26c-.16,.28-1.58,.85-1.78,.34Z"/><path class="e" d="M568.29,91.6h-.45c0,.62-.04,.84,.3,1.35v.45l-1.5,.59-.45,.3c-.8,.53-.37,.66-.9,1.05l-.3-.15-.45-.6c-.1-.12-.77-.75-.91-.75-.49,0-.43,.26-.44,.76,.88-.25,.41,.11,1.05,.43,.01,.67,.3,.67,.3,1.34,.61-.05,.54-.29,1.2-.29,.04-.76,.39-.95,.9-1.5h.16c1.02,0,1.09-.45,2.12-.46l-.17-.6c-.31-.3-.46-1.55-.46-1.94Z"/><path class="e" d="M659.57,97.12l-.75,.17s-1.06,.15-1.5,.15h-.46l-.3,.15h-2.11l-.59,.3h-.75v.3h.3l1.81-.16,.6,.18,.44-.31h1.06l1.8-.3h.9c-.08-.3-.04-.49-.45-.46Z"/><path class="e" d="M619.27,99.07c-.18,.11-.16,.16-.45,.16-.55,0-1.83-.17-2.1,.15-.3,.16-.44,.3-.91,.3h-5.11l-.31,.15-.15,.3h.3l1.36-.15h.6l3.32,.14c.75,0,1.37-.44,2.24-.44l2.26-.3,1.13,.02-.37-.47c-.64,0-1.41-.1-1.8,.15Z"/><path class="e" d="M547,258.02c.02,.16,.51,1.48,.59,1.48l.06,.75,.11,1.2,.35,.58,.04,.45,.58,1.48,.31,.16-.43-1.34v-.32l-.07-.75-.36-.58-.02-.3c-.1-1.15,.12-2.62-.62-3.58l-.04-.45c.34-2.08-.2-1.02-.03-3.75l-.6,.02,.14,1.65-.13,1.95,.12,1.35Z"/><path class="e" d="M567.85,60.33c-.68,0-1.16-.01-1.81,.19-1.65-.37-2.51-.47-2.7,.27h.45l.42-.11,1.83,.11h.45c.92,.04,1.28-.22,2.75,.11,.64-.13-.27-.52-1.4-.57Z"/><path class="e" d="M613.71,86.36h-.3c-.24,.25-.27,.28-.61,.44h-.3c-.71,0-1.42,.9-2.41,.9-.55,0-.35,.45-.9,.45-.96,0-.98,.64-1.88,.65-.45,.37-.53,.55-.25,1.01,.05,.08,.16,.14,.26,.18l1.7-1.1c.29-.48,3.1-1.26,3.77-1.49l.31-.43,.6-.18,.3-.14,.27-.03,.33-.27,.15-.15,.44-.66-.89,.36-.15,.15-.45,.3Z"/><path class="e" d="M642.43,69.47l-.45,.3-.9,.9-.15,.3-.3,.15-.84,.65-.52,.7-1.49,.89c.7-.06,1.45-.29,1.79-.75,.29-.19,1.2-.81,1.36-1.04l.45-.45c.44-.62,.38-.6,1.05-1.04l.3-.31c.3-.34,.38-.34,.75-.59l1.35-.61-.61-.33c-.45,.2-.67,.39-1.03,.49-.21,.64-.38,.24-.75,.75Z"/><path class="e" d="M554.39,281.48l.07-.55,.3-.15v-.45h-.3c-.54,.47-1.03,.79-1.05,1.79-.44,.32-.26-.05-.29,.5,0,.03,0,.06,0,.1h0v1.79l.29,.6,.45,.17-.14-.77c-.33-.88-.16-1.68,.15-2.24l.53-.8Z"/><path class="e" d="M572.89,64.3c1.59,.35,1.33-.02-.14-.66-1.61-.69-2.82,0-3.42,0-.86,0-1.49-.42-2.18,.05-.55,.22-.17-.27-.5-.83-.03-.07-1.38,1.94,.74,2.27,.49,.08,.12,.47-.18,.91-.11,.48,.19,.82,.63,1.18,.49,0,1.05,.78,1.05,1.34l-.17,.44h1.22c.58,0-.1-.76-.3-.89v-.42l.9-.18c.27,.12,1.05,.06,1.32-.27,.08-.3-1.46-.36-2.07-.48-1.39-.96-.4-1.07,.6-.3h.76l.29-.15,.87-.69c.34,.46-.43,.82,.24,.88,.3-.51,.06-1.14-.01-1.72,.08-.32-.07-.24,.34-.49Zm-3.59,1.19c-.06-.06-.17-.58,.08-.58,.65,0,.54,.45,1.15,.46,.61,.01,.69-.19,.81-.37,.27-.22,.55-.29,.67-.12,.02,.73-1.79,1.53-2.72,.6Z"/><path class="e" d="M575.52,147.98c0-.61,.17-1.88-.2-2.18l-.15-.15-.41-.81v1.19l.11,1.35c.1,.35-.41,.46-.66,.75-.4,.48-.73,1.03-1.27,1.03,.07,.84,.6,.42,.6,1.64-.6,.05-.76,.24-.9,.77,0,.36,.2,.42,.9-.17,.08-.33,.51-.99,.96-1.65,.27-.42,.7-.82,.7-1.34,.25-.17,.31-.02,.31-.45Z"/><path class="e" d="M567.54,266.42v-.75l-.3-.59v-3.44l-.3-.45v-.45l.24-.59c.45-.7,.57-3.15-.54-3.15v1.64c-.07,1.33-.3,2.06-.3,3.3,0,.17,.38,1.49,.46,1.49v1.95l.31,.59v.45l.44,1.5,.3,.17v-.92l-.31-.43,.02-.32Z"/><path class="e" d="M571.45,239.36c.1-.42,.15-.25,.15-.6v-.3c-.38-.79-.72-2.42-1.5-2.99,0-.66,.05-.69-.59-.75v.9l.45,.14v.61c.64,.42,.76,1.82,.94,2.53,.03,.45,.1,.41,.57,.45Z"/><path class="e" d="M572.95,253.71c-.33,.09-.45,.04-.45,.45v.75l-.9,.18v.27c.42,.03,.59,0,.59,.45v.9l-.07,2.24c-.35,.9-.68,3.15-.68,4.04v2.24c.66-.17,.45-.33,.45-1.19v-1.49c.21-.31,.45-.39,.45-.75v-.75c0-.81,.3-.82,.3-1.64v-.16c0-.64,.18-.81,.3-1.34-.07-.32-.21-.5-.15-.9l.15-1.2c.05-.33-.06-.41-.15-.6,.13-.26,.3-.66,.3-1.05,0-.04-.1-.27-.15-.45Z"/><path class="e" d="M524.77,210.36c.18,.87,.31,.84,.52-.17,.13-.58-.28-.53-.46-1.05,0-2.5,3.46-3.44,3.46-4.93,.15-.76,.55-1.25,.6-1.84,.75-.27,1.55-1.62,1.91-2.15,.73-.24,.86-.12,.86-.88-.61,.01-.69-.03-.74,.45l-.42,.13c-.18,.24-1.49,1.89-1.76,2.37-.64,.11-.32,.53-.6,1.02l-.15,.3c-1.21,1.34-3.69,3.73-3.61,5.53,0,.5,.67,.97,.38,1.22Z"/><path class="e" d="M522.88,210.05c-.31,.22-.31,.32-.6,.6-.11,.12-.16,.18-.19,.23,.13,0-.07,.13,0,0-.04,0-.12,.02-.27,.08v.6l-.33,.27,.03,.48v1.34c.1,.42,.15,.26,.15,.6v.3c-.3,.63-.24,.51-.6,1.05v.15l-.18,.6,.47-.15,.15-.15c.3-.23,.45-.53,.45-1.05,0-.35,.05-.39,.16-.6l-.16-1.8,.16-.3,.16-.75c.02-.38,.08-.3,.28-.6l.6-.75,.18-.44h-.47v.3Z"/><path class="e" d="M527.69,215.73c-.43,0-.66,.13-.9,.3l-.3,.15-1.66-.13c-.45-.07-.24,.25-.9,.43l-.15,.59-.18,.45,.24-.07c.72,0,.16-.82,.98-.82h.15c.29,0,.27,.05,.45,.15h.3c.9,0,1.19,.01,1.95-.45l.25-.04c.19-.72,.73-.31,.81-1.3-1.17,.1-.15,.75-1.05,.75Z"/><path class="e" d="M571.2,223.1c-.06-.04-.11-.08-.16-.11-.04-.5-.72-2.02-.95-2.33v-1.49c.23-.34,.2-.43,.2-.81,0-.46,.03-.88-.2-1.14,0-1.64-.9-3.43-.9-5.53,0-.89,.99-2.85,1.2-3.74l.45-.89v-.3c1.12-.75,.26-.54-.45-.15,0,1.07-1.3,2.98-1.5,4.18v.45l-.3,.45v3.14c.18,.27,.3,.26,.3,.6v.3c0,1.29,.61,2.56,.61,3.89,.48,.7-.35,.52,.59,1.67l.39,1.45c.04,.69,.23,1.01,.23,1.56v.3c.39,.33,.18,.4,.72,.45-.03-.53-.24-1.17-.24-1.64v-.3Z"/><path class="e" d="M551.31,219.47c0,.48-.08,.49-.3,.74-.13,.71-.13,1.17-.46,1.79v.61c.01,.63-.2,1.08-.2,1.72-.25,.76,.97,.36,.97-.67s-.47,.12-.3-.89l.16-1.2c.17-1.16,.45-1.55,.45-2.84l-.3,.37v.38Z"/><path class="e" d="M551.89,152.42l.79,1.24,.24,.55c.27,.36,.21,.02,.47,.81,.04,.79,.27,.5,.68,1.01l.22,.2c.61,.81,.24,.66,1.12,1.2-.07-.85-.34-1.16-.72-1.64l-.22-.2-.24-.41-.42-.61c-.22-.62-.6-.8-.66-1.31l-.65-1.29c-.03-.58-.52-.7-1-.8l.02,.42,.36,.83Z"/><path class="e" d="M570.19,162.46l-.54-.12-.16,.27-.74,.17-.46-.14-.75,.15c-.25,.17-.75,.68-.75,1.05,0,.63,.01,.31-.16,.45l-.3,.15v.75l-.27-.02-.48-.58-.45-.45-.15-.3v-1.2c-.02-.66,.04-.69-.6-.75v.3l.15,.75v.75c-.45-.05-.39-.07-.61-.3h-1.04l-.16,.3c-.39,.26-.4,.15-.43,.8l.74-.35,.15-.15,.3-.15,.6,.15h.29l.31,.45,.61,.45,.6,.75v.45l-.15,.75c0,.87-.08,1.1,.3,1.65l.15,.3h.45v-.3l-.3-.3-.3-.15c0-.7,.07-1.27,.45-1.34,.11,.19,.13,.16,.13,.45l.18,.89,.35,.42,.39,.03-.29,.45-.16,.6-.29,.15-1.35-.19-.91,.04v-.3c-.05-.29-.2-.49-.45-.6l-.43-.16-.17-.29v-.15l-.3-.15v-.45c-.12-.49-.27-.49-.45,0,.04,.5,.23,.73,.45,1.05l.45,.6c-.58-.05-.76-.29-1.05-.6h-.37l.07,.3,.75,.45v.3l-1.36,.15c-.5,.02-.44-.29-.45-.75h-1.06v-.3l-.59-.18c-.14-.45,.02-.56-.47-.69-.07-.02-.12-.07-.17-.11-.16-.27,.09-.47,.2-.65h0v-.02c.15-.62-.85-2.2-.48-2.45,.25,.16,.56,.25,.9,.29,.39,.03,.6-.1,.61-.52-.12-.61-.27-.92-.6-1.19v.45c0,1.59-.45,.3-.9,0-.22-.4-.06-.8,.15-1.2-.74,.07-.73,.45-1.05,.9-.26,0-.15,.12-.15,.45,0,1.05,.5,1.49,.9,2.09,.05,.21,.08,.41,.11,.58,.05,.25-.03,.5-.15,.74h0c-.26,.6-.21,1.14,.31,1.72l.03,.25-.15,.45h-3.16l-.15,.3h-8.27c.16,.6,.04,.44,.75,.45h7.52l1.21-.15,1.95-.18,1.66,.03c.52,0,.23,.3,.75,.3h1.81l.15,.3h.46c.27-.18,.26-.3,.59-.3h1.79l.17-.3,.44,.15v.3h.46c.52,0,.58,.11,1.08,.14l-.18-.44v-.75l.31-.15v-.3l-.31-.75-.15-.15-.29-.9,.02-.32-.32-.43v-.75l.09-.59,.21-.45v-.6h.29v-.3l.15-.45h.76v.45c0,.57,.05,.05-.15,.45v.45l.3,.45,.15,.45,.15-.45s-.14-.37-.14-.45v-.15c0-.52,.3-.23,.3-.75v-.6h.46v-.28l.75-.17-.06-.18Z"/><path class="e" d="M566.94,140.5l-.15-.3-.03-.27-.27-.34v-1.04c-.11-.2-.1-.16-.13-.45l-.17-1.34v-.3l.61-.6c.05-.07,.45-.7,.45-.75,0-.27-.23-.24-.45-.3v.3h-.61v.3l-.15,.15-.6-.6-.15-.15-.29-.15-.17-.9c-.83,0-.87-.19-1.04,.45v.3c1.06,0,1.86,1.65,1.66,2.67l.29,.17c0,.54,.3,.05,.3,.75v.45c0,1.48-.75,.58-.75,1.8-.48-.13-.57,.39-.46,.6l-.6,.15c-.37,.56-.43,.2-.45,1.05,.63-.01,1.24-.39,1.5-.75l.3-.9,.15,.3h.3v.62l.3-.17,.3-.15c.37,.37,.39,.45,.9,.45-.04-.58-.31-.73-.6-1.05Z"/><path class="e" d="M563.94,117.63l.6-.31c.43-.45,.44-.15,.6-.75h.61l.15-.45c.6,0,.44,.17,.9,.4v-.54c-.2-.97-.77-.78,.29-2.54l.16-.15c.25-.27-.13-.4,.25-.54l.1-.45-.8,.68v.16l-.73,.75c-.32,1.84-.27,1.79-1.83,3.14-.2,.11-.15,.11-.45,.13l-.4,.27-.2,.37,.45-.17h.31Z"/><path class="e" d="M565.91,119.41l-.17-.29-.75-.75h-.76l-.3-.31h-.3c-.21,1.05,.04,.75,1.05,.75l.61,.75h.3v.45c.06,.7-.16,.26,.33,.62,.74-.22,1.12,1.6,1.17-1.07,.39-.1,1.12-.85,1.21-1.19-1.4,.03-.62,1.04-2.38,1.04Z"/><path class="d" d="M475.84,98.24h0s0,0,.01,.03v-.03Z"/><path class="d" d="M558.89,167.58h0l.04,.05s-.03-.03-.04-.05Z"/><polygon class="d" points="595.36 101.17 595.36 101.17 595.66 99.83 595.36 101.17"/><polygon class="d" points="567.09 169.52 567.09 169.52 566.8 169.67 567.09 169.52"/></g><g><g><path class="e" d="M90.28,53.97c-2.91,0-2.58,4.18-2.58,6.96v21.33c5.31,.66,13.81,.75,18.6,.42v-21.75c0-3.62,.29-6.96-2.44-6.96h-.98v-1.32h1.55c.66,0,1.36,.09,2.02,.19,.56,.09,1.17,.14,1.74,.14s1.18-.05,1.74-.14c.65-.09,1.26-.19,1.92-.19h1.55v1.32h-.98c-2.63,0-2.59,3.33-2.59,7v17.85c0,4.32,1.74,3.99,3.34,3.99,.85,0,1.6-.28,2.4-.66v2.4c-1.93-.23-2.54,1.18-4.37,3.95-3.53,5.4-6.63,7.15-9.86,7.15-2.72,0-4.33-.71-5.4-1.6,.7-.38,1.32-.8,1.83-1.27,.89,1.65,2.3,1.79,3.24,1.79,2.78,0,4.37-2.91,5.6-4.6,2.11-2.91,3.8-4.18,6.62-5.54l-.05-.24c-1.27,.05-7.66,.38-11.65,.38-11.18,0-12.03-.47-14.66-.47-.98,0-.19,.09-5.97,.47v-1.32h.99c2.25,0,2.3-4.7,2.3-7.32v-14.99c0-2.58,.28-6.96-2.44-6.96h-.99v-1.32h1.55c2.92,0,1.46,.33,3.86,.33,2.02,0,2.35-.33,3.57-.33h1.55v1.32h-.99Z"/><path class="e" d="M129.87,70.89h0c1.23,0,2.49-.04,3.71-.09-.09-3.57-2.59-5.78-5.5-5.78-2.02,0-5.07,1.36-5.68,5.78,4.74,.09,6.44,.09,7.47,.09m7.8,10.06c-5.68,2.91-6.67,4.09-9.72,4.09-5.64,0-9.21-5.45-9.21-10.39,0-6.48,5.08-10.67,10.81-10.67,6.29,0,7.89,5.08,8.12,8.03-2.39,.24-4.55,.28-7.23,.28-2.96,0-5.64-.19-8.08-.37-.43,6.9,4.09,10.38,8.17,10.38,2.63,0,5.36-1.22,7.14-3.06v1.7Z"/><path class="e" d="M142.92,64.45c.61,0,1.27,.14,1.88,.19,.33,.04,.66,.04,.99,.04s.66,0,.98-.04c.61-.05,1.27-.19,1.88-.19h2.02v1.23h-.7c-2.06,0-2.68,.75-2.68,4.46v2.82c1.51,.28,3.2,.47,5.36,.47s3.86-.19,5.36-.47v-2.82c0-3.71-.61-4.46-2.68-4.46h-.7v-1.23h2.02c.61,0,1.27,.14,1.88,.19,.32,.04,.66,.04,.98,.04s.66,0,.99-.04c.61-.05,1.26-.19,1.88-.19h2.21v1.23h-.89c-1.97,0-2.77,.28-2.77,5.45v6.06c0,3.29,0,6.15,2.44,6.15h1.22v1.22h-2.06c-.57,0-1.18-.14-1.74-.19-.42-.05-.89-.09-1.32-.09s-.89,.05-1.32,.09c-.61,.05-1.17,.19-1.78,.19h-1.74v-1.22h.85c2.68,0,2.54-3.2,2.54-6.06v-2.73c-3.62,.18-4.74,.18-5.36,.18s-1.73,0-5.36-.18v2.73c0,2.86-.14,6.06,2.54,6.06h.84v1.22h-1.74c-.61,0-1.18-.14-1.78-.19-.42-.05-.9-.09-1.32-.09s-.89,.05-1.32,.09c-.57,.05-1.18,.19-1.74,.19h-2.07v-1.22h1.22c2.44,0,2.44-2.87,2.44-6.15v-6.06c0-5.17-.8-5.45-2.77-5.45h-.89v-1.23h2.21Z"/><path class="e" d="M175.57,65.77c-.47,0-2.63,0-3.85,.37-2.16,.66-3.33,2.73-3.15,5.03h-1.27v-7.09c8.84,.42,4,.37,9.77,.37,3,0,6.29,0,10.52-.37-.28,2.06-.56,3.43-1.27,7.09h-1.36c.1-.52,.14-1.04,.14-1.6,0-2.49-.52-3.76-6.63-3.81v11.89c0,3.01,.14,5.68,2.44,5.68h1.23v1.22h-2.02c-.61,0-1.18-.09-1.78-.19-.42-.05-.89-.09-1.37-.09-.42,0-.88,.05-1.32,.09-.56,.09-1.07,.19-1.64,.19h-2.06v-1.22h1.27c2.26,0,2.35-3.01,2.35-5.68v-11.89Z"/><path class="e" d="M197.07,83.29h0c.99,.37,2.21,.61,3.71,.61,4.93,0,8.18-4.65,8.18-9.3,0-6.25-3.57-8.32-6.67-8.32-1.79,0-3.76,.99-5.22,2.68v14.33Zm-8.22-18.23c5.03-.19,7.33-.99,8.45-1.5-.33,1.41-.56,2.91-.7,4.41,3.86-3.05,6.06-3.99,8.32-3.99,4.51,0,7.66,3.95,7.66,9.44,0,6.53-5.68,11.61-13.3,11.61-.75,0-1.45,0-2.21-.09v3.62c0,2.82,.1,6.53,2.54,6.53h2.11v1.22h-3.06c-.6,0-1.26-.14-1.88-.19-.38-.05-.75-.05-1.13-.05-.42,0-.8,0-1.17,.05-.61,.05-1.27,.19-1.88,.19h-2.06v-1.22h1.17c2.31,0,2.44-3.72,2.44-6.53v-15.03c0-5.83-.28-7.24-3.53-7.24h-1.78v-1.22Z"/><path class="e" d="M238.17,63.98c1.22,3.99,2.25,6.63,3.57,10.05l2.02,5.31c1.45,3.76,3.06,4.09,4.13,3.99v1.22h-1.78c-.42,0-.9-.09-1.32-.19-.42-.05-.84-.09-1.27-.09-1.74,0-.8,.28-3.15,.28h-1.6v-1.22c.28,.05,.52,.05,.75,.05,1.79,0,1.55-1.41,1.27-2.35l-3.76-11.66-.52-1.97h-.28c-.8,3.43-1.26,3.99-2.26,7.19l-1.36,4.32c-.38,1.22-1.08,3.05-.52,3.8,.37,.47,1.46,.71,2.21,.61v1.22h-1.46c-.42,0-.85-.09-1.27-.19-.42-.09-.89-.09-1.31-.09-.48,0-.95,.05-1.37,.09-.51,.09-1.03,.19-1.55,.19h-1.13v-1.22c2.63,.19,3.39-1.83,3.95-3.2l2.25-5.54c1.27-3.15,1.6-4.47,3.81-10.24l1.93-.38Z"/><path class="e" d="M260.25,84.56c.24-1.88,.51-2.82,.89-4.37l2.12-8.74c.65-2.63,.79-3.34,.79-3.9,0-1.46-1.03-2.16-2.35-1.88v-1.23c3.29,.19,3.85,.19,4.23,.19,1.22,0,1.78-.09,3.8-.19v1.23c-2.86,.09-3.14,1.92-4.18,5.17l-2.96,9.44-2.26,8.36c-.75,2.77-1.64,7.56-5.45,7.56-1.32,0-2.72-.7-3.62-1.69,.98-1.6,1.45-2.86,1.74-3.71,.33,.8,1.27,2.35,2.92,2.35,2.49,0,3.8-2.49,2.25-7l-5.64-16.12c-.32-.94-1.45-4.36-3.24-4.36h-.85v-1.23c2.16,.05,2.58,.19,4.7,.19s2.72-.19,4.46-.19v1.23c-2.72-.19-2.58,1.92-1.83,4.23l3,9.3c.66,1.97,.94,3.71,1.08,5.36h.38Z"/><path class="e" d="M284.06,70.37c0-1.88,.05-4.7-1.6-4.7h-1.08v-1.23h1.41c.66,0,1.36,.14,2.02,.19,.28,.04,.57,.04,.89,.04,.28,0,.57,0,.85-.04,.66-.05,1.36-.19,2.02-.19h1.97v1.23h-1.04c-2.77,0-2.49,3.66-2.53,7.98v2.73c0,2.49-.28,6.95,2.3,6.95h1.27v1.22h-2.07c-.52,0-1.08-.09-1.59-.19-.48-.05-.95-.09-1.42-.09s-.94,.05-1.41,.09c-.57,.09-1.08,.19-1.65,.19h-2.44v-1.22h1.41c2.54,0,2.68-2.91,2.68-6.39v-1.6c-1.74,.61-3.95,1.13-6.11,1.13-4.51,0-5.12-2.68-5.21-4.84-.05-.56,0-1.13,0-1.69,.04-1.13,.19-4.27-1.41-4.27h-.76v-1.23h1.32c1.88,0,.38,.19,2.25,.19,2.4,0,.19-.19,3.24-.19h1.17v1.23h-1.03c-1.74,0-1.88,2.49-1.88,3.43,0,4.32,.51,5.97,4.32,5.97,1.78,0,3.34-.66,4.09-.99v-3.71Z"/><path class="e" d="M304.91,70.89h0c1.22,0,2.49-.04,3.71-.09-.09-3.57-2.59-5.78-5.5-5.78-2.02,0-5.08,1.36-5.68,5.78,4.74,.09,6.44,.09,7.47,.09m7.8,10.06c-5.68,2.91-6.67,4.09-9.73,4.09-5.64,0-9.21-5.45-9.21-10.39,0-6.48,5.08-10.67,10.81-10.67,6.29,0,7.89,5.08,8.13,8.03-2.39,.24-4.55,.28-7.23,.28-2.96,0-5.64-.19-8.09-.37-.42,6.9,4.09,10.38,8.18,10.38,2.63,0,5.36-1.22,7.14-3.06v1.7Z"/><path class="e" d="M325.34,73.66h0c2.16,0,3.76-1.64,3.76-3.57,0-1.65-.42-4.23-4.46-4.23-.8,0-1.55,.09-2.3,.28-.14,3.24-.14,7.75-.14,10.48,0,4.6-.33,7.19,3.48,7.19,2.77,0,4.98-1.79,4.98-4.37,0-1.93-1.04-4.65-5.4-4.65-.42,0-.85,.05-1.27,.09v-1.22h1.36Zm-9.39,9.68h.89c2.87,0,2.44-5.64,2.44-8.55,0-1.22-.05-2.44-.05-3.62,0-2.25,.28-5.5-2.4-5.5h-.89v-1.23c1.69,.19,3.43,.19,5.54,.19,1.79,0,3.24-.19,4.37-.19,5.96,0,6.86,3.15,6.86,4.8,0,2.11-1.45,4.18-4.74,4.46v.52c1.32,.14,1.69,.19,2.21,.28,1.64,.33,4.09,1.69,4.09,4.65,0,2.21-1.13,5.78-7.09,5.78-2.58,0-2.92-.56-5.87-.56-1.22,0-2.44,.19-3.71,.19h-1.64v-1.22Z"/><path class="e" d="M348.59,83.62h0c3.62,0,6.72-2.58,6.72-7.47,0-6.11-3.52-10.76-7.84-10.76-2.96,0-6.48,2.39-6.48,7.85,0,4.51,2.54,10.39,7.61,10.39m-.14-19.64c6.81,0,10.47,5.03,10.47,9.91,0,6.01-4.65,11.14-11,11.14-7.33,0-10.57-5.45-10.57-10.39,0-5.22,3.89-10.67,11.09-10.67Z"/><path class="e" d="M382.83,51.63h0c-1.18,2.11-4.46,6.95-9.3,6.95-3.24,0-4.84-2.35-5.5-4.09,1.55-1.5,2.16-2.4,2.54-3.2l.42,.14c-.75,3.39,2.03,4.98,4.56,4.98,2.72,0,5.08-2.35,5.92-5.45l1.36,.66Zm-14.43,29.46c2.02-2.82,2.3-3.06,6.06-7.71,4.89-6.06,6.39-8.27,7.19-9.39l1.27,.28c-.14,2.25-.19,3.85-.23,6.34,0,1.93-.05,3.85,0,5.73,0,1.36,.05,2.68,.14,4.13,.05,1.22,.18,3.2,3.47,2.87v1.22h-2.06c-.61,0-1.17-.14-1.79-.19-.42-.05-.85-.09-1.32-.09-.42,0-.85,.05-1.27,.09-.56,.05-1.18,.19-1.74,.19h-2.02v-1.22c4.18,.38,3.66-3.2,3.66-6.91,0-2.87,.09-4.98,.42-7.52l-.52-.14c-3.85,5.55-7.09,9.16-13.25,16.31l-1.41-.24c.09-1.08,.24-3.19,.24-10.1s-.09-9.06-2.63-9.06h-.89v-1.23h2.21c.66,0,1.27,.14,1.93,.19,.33,.04,.61,.04,.94,.04s.61,0,.94-.04c.66-.05,1.27-.19,1.93-.19h2.25v1.23h-.95c-2.2,0-2.91,1.17-2.81,5.36v3.1c0,2.87,.05,4.04-.19,6.82l.42,.14Z"/></g><g><path class="e" d="M130.09,132.29h4.37c1.13,0,2.3-.05,3.43-.09-1.51-3.94-3.57-9.91-4.79-14.33h-.24c-1.55,5.68-2.53,7.75-5.02,14.43h2.25Zm-7.05-.38c.66,.23,2.12,.42,2.73,.05,.56-.33,1.18-1.46,2.39-4.7,1.51-4.04,2.92-7.24,4.75-13.91l1.5-.28c1.31,4.09,3.9,11.23,4.74,13.44,1.83,4.7,2.02,5.22,2.35,5.45,.47,.37,2.44,.18,3.29-.05-1.32,3.2-1.51,4.32-2.87,8.69h-1.55c.19-.61,.75-2.91,.75-3.99,0-2.21-1.56-2.73-6.49-2.73-.56,0-1.17,.05-1.73,.05-.89,0-1.79-.05-2.73-.05-2.86,0-5.36-.05-5.73,6.72h-1.41v-8.69Z"/><path class="e" d="M153.58,130.41c2.02-2.82,2.3-3.06,6.06-7.71,4.89-6.06,6.39-8.27,7.19-9.39l1.27,.28c-.14,2.25-.18,3.85-.24,6.34,0,1.93-.05,3.85,0,5.73,0,1.36,.05,2.68,.14,4.13,.05,1.22,.19,3.2,3.48,2.87v1.22h-2.07c-.61,0-1.18-.14-1.78-.19-.42-.05-.85-.09-1.32-.09-.42,0-.85,.05-1.27,.09-.57,.05-1.17,.19-1.74,.19h-2.02v-1.22c2.91,.28,3.34-1.55,3.48-2.77,.19-1.46,.19-2.77,.19-4.13,0-2.82,.05-4.7,.42-7.52l-.52-.14c-3.85,5.55-7.1,9.16-13.25,16.31l-1.41-.24c.1-1.08,.23-3.19,.23-10.1s-.09-9.06-2.63-9.06h-.88v-1.23h2.2c.66,0,1.27,.14,1.93,.19,.33,.04,.61,.04,.94,.04s.61,0,.95-.04c.66-.05,1.26-.19,1.92-.19h2.25v1.23h-.94c-2.21,0-2.91,1.17-2.82,5.36v3.1c0,2.87,.05,4.04-.19,6.82l.43,.14Z"/><path class="e" d="M179.88,126.61h0c-.99,.75-1.7,1.97-1.7,3.24,0,1.97,1.7,3.1,3.24,3.1,2.21,0,5.68-1.65,5.45-7.94-4.32,.33-6.06,.89-7,1.6m14.57,4.65c-3.48,2.86-4.56,3.1-5.13,3.1-.98,0-2.11-.66-2.62-3.25-2.07,2.12-4.8,3.25-7.19,3.25-4.18,0-4.93-2.68-4.93-4.04,0-5.17,9.77-6.3,12.45-6.53v-1.41c0-3.62-.38-5.12-.89-5.97-.89-1.55-2.16-1.69-3.1-1.69-3.19,0-3.71,1.88-3.71,2.58,0,.42,.14,.85,.42,1.27l-3.9,2.35c-.29-.56-.42-1.08-.42-1.65,0-2.68,2.77-4.23,6.2-5.31,1.13-.38,2.3-.66,3.52-.66,2.3,0,3.71,.89,4.41,1.83,.57,.75,.94,1.64,.94,2.58,0,1.64-.56,2.82-.56,11.84,0,.94-.09,2.68,1.27,2.68,.79,0,2.77-2.02,3.24-2.58v1.6Z"/><path class="e" d="M210.41,120.54c.14-1.22-.14-2.96-.85-3.8-1.08-1.22-3.24-1.36-4.28-1.36-.56,0-1.13,0-1.69,.05-.19,1.74-.33,4.28-.33,10.01,0,2.82-.33,7.24,2.31,7.24h1.73v1.22h-2.49c-.66,0-1.27-.14-1.92-.19-.38-.05-.76-.05-1.18-.05-.37,0-.75,0-1.13,.05-.61,.05-1.27,.19-1.88,.19h-2.02v-1.22h1.13c2.44,0,2.39-3.8,2.44-7.28,.05-2.91,.09-4.13,.09-5.31,0-3.99-.09-5.59-3.67-5.07v-1.23h2.07c.89,0,1.79,.1,2.68,.14,1.22,.05,2.49,.05,3.71,.05,2.63,0,3.99,0,6.82-.19v6.77h-1.55Z"/><path class="e" d="M216.74,113.78c.61,0,1.27,.14,1.88,.19,.33,.04,.66,.04,.99,.04s.66,0,.99-.04c.61-.05,1.27-.19,1.88-.19h2.02v1.23h-.7c-2.06,0-2.68,.75-2.68,4.46v2.82c1.51,.28,3.2,.47,5.36,.47s3.86-.19,5.36-.47v-2.82c0-3.71-.61-4.46-2.68-4.46h-.7v-1.23h2.02c.61,0,1.27,.14,1.88,.19,.33,.04,.66,.04,.99,.04s.66,0,.99-.04c.61-.05,1.27-.19,1.88-.19h2.21v1.23h-.89c-1.97,0-2.78,.28-2.78,5.45v6.06c0,3.29,0,6.15,2.45,6.15h1.22v1.22h-2.07c-.56,0-1.18-.14-1.74-.19-.42-.05-.89-.09-1.32-.09s-.89,.05-1.32,.09c-.61,.05-1.17,.19-1.78,.19h-1.74v-1.22h.85c2.68,0,2.53-3.2,2.53-6.06v-2.73c-3.62,.18-4.74,.18-5.36,.18s-1.74,0-5.36-.18v2.73c0,2.86-.14,6.06,2.54,6.06h.84v1.22h-1.74c-.61,0-1.17-.14-1.78-.19-.42-.05-.9-.09-1.32-.09s-.89,.05-1.31,.09c-.57,.05-1.17,.19-1.74,.19h-2.07v-1.22h1.22c2.44,0,2.44-2.87,2.44-6.15v-6.06c0-5.17-.8-5.45-2.77-5.45h-.89v-1.23h2.2Z"/><path class="e" d="M252.73,132.95h0c3.62,0,6.72-2.58,6.72-7.47,0-6.11-3.52-10.76-7.84-10.76-2.96,0-6.48,2.39-6.48,7.85,0,4.51,2.53,10.39,7.61,10.39m-.14-19.64c6.81,0,10.47,5.03,10.47,9.91,0,6.01-4.65,11.14-10.99,11.14-7.33,0-10.57-5.45-10.57-10.39,0-5.22,3.9-10.67,11.09-10.67Z"/><path class="e" d="M284.62,130.41c-5.54,2.77-5.82,3.95-8.69,3.95-6.34,0-9.77-5.55-9.77-10.06,0-5.35,4.04-10.99,11.23-10.99,1.51,0,3.99,.28,5.5,2.82-1.17,.66-2.3,1.5-3.43,2.54-.23-.85-1.22-3.95-4.27-3.95-1.84,0-5.83,1.13-5.83,7.09,0,4.65,2.21,7.52,4.23,8.74,1.36,.84,3.01,1.18,4.6,1.18,1.22,0,3.8-.33,6.44-3.1v1.78Z"/><path class="e" d="M294.62,115.1c-.47,0-2.63,0-3.85,.37-2.16,.66-3.34,2.73-3.15,5.03h-1.27v-7.09c8.84,.42,3.99,.37,9.77,.37,3.01,0,6.3,0,10.53-.37-.28,2.06-.56,3.43-1.27,7.09h-1.36c.09-.52,.14-1.04,.14-1.6,0-2.49-.52-3.76-6.63-3.81v11.89c0,3.01,.14,5.68,2.44,5.68h1.22v1.22h-2.02c-.61,0-1.17-.09-1.79-.19-.42-.05-.89-.09-1.36-.09-.42,0-.89,.05-1.32,.09-.56,.09-1.08,.19-1.64,.19h-2.07v-1.22h1.27c2.25,0,2.35-3.01,2.35-5.68v-11.89Z"/><path class="e" d="M315.23,130.41c2.02-2.82,2.3-3.06,6.06-7.71,4.89-6.06,6.39-8.27,7.19-9.39l1.26,.28c-.14,2.25-.19,3.85-.23,6.34,0,1.93-.05,3.85,0,5.73,0,1.36,.05,2.68,.14,4.13,.05,1.22,.19,3.2,3.48,2.87v1.22h-2.07c-.6,0-1.17-.14-1.78-.19-.42-.05-.84-.09-1.32-.09-.42,0-.84,.05-1.26,.09-.57,.05-1.18,.19-1.74,.19h-2.02v-1.22c2.91,.28,3.33-1.55,3.47-2.77,.19-1.46,.19-2.77,.19-4.13,0-2.82,.05-4.7,.42-7.52l-.52-.14c-3.86,5.55-7.1,9.16-13.25,16.31l-1.41-.24c.09-1.08,.23-3.19,.23-10.1s-.09-9.06-2.63-9.06h-.89v-1.23h2.21c.66,0,1.27,.14,1.93,.19,.32,.04,.61,.04,.94,.04s.61,0,.94-.04c.66-.05,1.27-.19,1.93-.19h2.25v1.23h-.94c-2.21,0-2.91,1.17-2.82,5.36v3.1c0,2.87,.05,4.04-.19,6.82l.42,.14Z"/><path class="e" d="M359.53,133.19h0c-.99,.65-2.49,1.18-3.48,1.18-3.06,0-5.21-3.9-7.23-6.49-1.32-1.74-2.44-2.96-4.14-4.32,5.54-5.21,7.14-6.77,7.14-7.75,0-.47-.65-.94-1.51-.79v-1.23c1.37-.04,1.55,.14,2.45,.28,1.31,.19,2.25-.28,4.32-.28h1.27v1.23c-1.23-.19-2.49,.09-4.18,1.41-2.21,1.69-2.3,2.3-7.05,6.34,1.83,.56,3.62,1.74,6.48,6.06,.76,1.13,2.5,3.85,4.37,3.85,.47,0,1.08-.19,1.55-.7v1.22Zm-23.26-19.41h2.26c.61,0,1.18,.14,1.79,.19,.37,.04,.75,.04,1.13,.04,.32,0,.7,0,1.08-.04,.56-.05,1.18-.19,1.74-.19h1.74v1.23c-3.24-.24-3.06,1.78-3.15,5.4-.04,1.69-.04,3.48,0,5.22,.05,1.36,.14,2.63,.23,4.04,.05,.99,.33,3.48,2.91,3.01v1.22h-1.55c-.61,0-1.17-.14-1.79-.19-.42-.05-.84-.09-1.26-.09s-.85,.05-1.27,.09c-.61,.05-1.18,.19-1.79,.19h-2.07v-1.22c1.32,.38,2.35-.23,2.82-.85,.57-.7,.85-1.93,.85-6.15v-5.27c-.04-3.62-.04-6.44-3.67-5.4v-1.23Z"/><path class="e" d="M368.41,130.41c2.02-2.82,2.3-3.06,6.06-7.71,4.89-6.06,6.39-8.27,7.19-9.39l1.27,.28c-.14,2.25-.19,3.85-.24,6.34,0,1.93-.05,3.85,0,5.73,0,1.36,.05,2.68,.14,4.13,.05,1.22,.19,3.2,3.48,2.87v1.22h-2.07c-.61,0-1.18-.14-1.78-.19-.42-.05-.85-.09-1.32-.09-.42,0-.85,.05-1.27,.09-.57,.05-1.17,.19-1.74,.19h-2.02v-1.22c2.91,.28,3.34-1.55,3.48-2.77,.19-1.46,.19-2.77,.19-4.13,0-2.82,.04-4.7,.42-7.52l-.52-.14c-3.85,5.55-7.1,9.16-13.25,16.31l-1.42-.24c.1-1.08,.24-3.19,.24-10.1s-.09-9.06-2.63-9.06h-.89v-1.23h2.2c.66,0,1.27,.14,1.93,.19,.33,.04,.61,.04,.94,.04s.61,0,.95-.04c.66-.05,1.26-.19,1.92-.19h2.25v1.23h-.94c-2.21,0-2.91,1.17-2.82,5.36v3.1c0,2.87,.05,4.04-.19,6.82l.43,.14Z"/></g><g><path class="e" d="M6.67,186.77c2.02-2.81,2.3-3.05,6.06-7.7,4.89-6.06,6.39-8.27,7.19-9.4l1.27,.28c-.14,2.25-.19,3.85-.23,6.34,0,1.93-.05,3.85,0,5.73,0,1.36,.04,2.68,.14,4.13,.04,1.22,.19,3.2,3.47,2.87v1.22h-2.07c-.61,0-1.17-.14-1.79-.19-.42-.04-.85-.09-1.32-.09-.42,0-.85,.05-1.27,.09-.56,.05-1.18,.19-1.74,.19h-2.02v-1.22c2.91,.28,3.33-1.55,3.47-2.77,.19-1.46,.19-2.77,.19-4.13,0-2.82,.04-4.7,.42-7.51l-.51-.14c-3.86,5.54-7.1,9.16-13.25,16.3l-1.41-.23c.09-1.08,.23-3.19,.23-10.1s-.09-9.07-2.63-9.07H0v-1.22H2.21c.66,0,1.27,.14,1.93,.19,.33,.05,.61,.05,.94,.05s.6,0,.94-.05c.66-.04,1.27-.19,1.93-.19h2.25v1.22h-.93c-2.21,0-2.92,1.18-2.82,5.36v3.1c0,2.87,.04,4.04-.19,6.81l.42,.14Z"/><path class="e" d="M41.76,180.24c2.02-1.79,3.28-2.21,4.27-2.21,.65,0,1.27,.24,1.92,.42,.7,.19,1.41,.37,2.12,.37,1.36,0,2.06-.66,2.25-1.08,.42-1.04-1.64-4.28-2.82-5.26-1.17-.98-2.77-1.69-4.32-1.69-2.82,0-4.89,2.4-6.06,4.14-.61-.94-1.27-1.83-1.88-2.58,3.2-2.21,6.15-2.68,8.74-2.68,7.28,0,10.29,5.07,10.29,9.96,0,2.72-1.04,6.48-5.08,9.07-1.93,1.22-4.37,2.02-6.62,2.02-1.98,0-4.7-.52-6.67-1.98,1.22-.98,2.25-1.97,3.1-3,1.41,3.1,3.62,3.71,4.98,3.71,3.57,0,6.96-3.38,6.67-10.33l-.19-.05c-.94,1.22-2.21,1.64-3.1,1.64-.85,0-2.07-.28-2.87-.51-.56-.14-1.08-.38-1.64-.38-1.37,0-2.16,.89-2.5,1.41l-.6-.99Z"/><path class="e" d="M60.72,170.14c.61,0,1.27,.14,1.88,.19,.33,.05,.66,.05,.99,.05s.66,0,.99-.05c.61-.04,1.27-.19,1.88-.19h2.02v1.22h-.7c-2.07,0-2.68,.75-2.68,4.46v2.82c1.51,.28,3.2,.47,5.36,.47s3.85-.19,5.36-.47v-2.82c0-3.71-.61-4.46-2.68-4.46h-.7v-1.22h2.02c.61,0,1.27,.14,1.88,.19,.33,.05,.66,.05,.99,.05s.66,0,.99-.05c.61-.04,1.27-.19,1.88-.19h2.21v1.22h-.89c-1.97,0-2.78,.28-2.78,5.45v6.06c0,3.29,0,6.15,2.44,6.15h1.22v1.22h-2.07c-.56,0-1.18-.14-1.74-.19-.42-.04-.89-.09-1.32-.09s-.89,.05-1.32,.09c-.61,.05-1.17,.19-1.79,.19h-1.74v-1.22h.85c2.68,0,2.53-3.2,2.53-6.06v-2.73c-3.62,.19-4.74,.19-5.36,.19s-1.74,0-5.36-.19v2.73c0,2.86-.14,6.06,2.54,6.06h.84v1.22h-1.74c-.61,0-1.17-.14-1.78-.19-.42-.04-.9-.09-1.32-.09s-.89,.05-1.31,.09c-.57,.05-1.17,.19-1.74,.19h-2.06v-1.22h1.22c2.44,0,2.44-2.87,2.44-6.15v-6.06c0-5.17-.8-5.45-2.77-5.45h-.89v-1.22h2.2Z"/><path class="e" d="M90.88,188.65h4.37c1.13,0,2.3-.05,3.43-.09-1.51-3.95-3.57-9.91-4.79-14.33h-.24c-1.55,5.68-2.54,7.75-5.02,14.43h2.25Zm-7.05-.38c.66,.23,2.12,.42,2.73,.05,.56-.33,1.18-1.46,2.39-4.7,1.51-4.04,2.92-7.24,4.75-13.91l1.5-.28c1.31,4.09,3.9,11.23,4.74,13.44,1.83,4.7,2.02,5.21,2.35,5.45,.47,.38,2.44,.19,3.29-.05-1.32,3.2-1.51,4.32-2.87,8.69h-1.55c.19-.61,.75-2.91,.75-3.99,0-2.21-1.56-2.73-6.49-2.73-.56,0-1.17,.05-1.73,.05-.89,0-1.79-.05-2.73-.05-2.86,0-5.36-.05-5.73,6.72h-1.41v-8.69Z"/><path class="e" d="M118.17,189.31h0c3.62,0,6.72-2.59,6.72-7.47,0-6.1-3.52-10.76-7.85-10.76-2.96,0-6.48,2.39-6.48,7.84,0,4.51,2.54,10.39,7.61,10.39m-.14-19.64c6.81,0,10.48,5.02,10.48,9.91,0,6.01-4.65,11.14-11,11.14-7.33,0-10.57-5.45-10.57-10.38,0-5.22,3.9-10.66,11.09-10.66Z"/><path class="e" d="M149.12,186.77c-5.54,2.78-5.83,3.95-8.69,3.95-6.34,0-9.77-5.54-9.77-10.05,0-5.36,4.04-10.99,11.23-10.99,1.5,0,3.99,.28,5.5,2.82-1.17,.66-2.3,1.5-3.43,2.54-.23-.85-1.22-3.95-4.27-3.95-1.84,0-5.83,1.13-5.83,7.09,0,4.65,2.21,7.52,4.23,8.74,1.36,.85,3,1.17,4.6,1.17,1.23,0,3.81-.32,6.44-3.1v1.78Z"/><path class="e" d="M173.83,189.55h0c-.99,.65-2.49,1.17-3.48,1.17-3.06,0-5.21-3.9-7.23-6.48-1.32-1.74-2.44-2.96-4.14-4.32,5.54-5.22,7.14-6.77,7.14-7.75,0-.47-.66-.94-1.51-.8v-1.22c1.37-.05,1.55,.14,2.45,.28,1.31,.19,2.25-.28,4.32-.28h1.27v1.22c-1.23-.19-2.49,.09-4.18,1.41-2.21,1.69-2.3,2.3-7.05,6.34,1.83,.56,3.62,1.74,6.48,6.06,.76,1.13,2.5,3.85,4.37,3.85,.47,0,1.08-.19,1.55-.7v1.22Zm-23.26-19.41h2.26c.61,0,1.18,.14,1.79,.19,.37,.05,.75,.05,1.13,.05,.33,0,.7,0,1.08-.05,.56-.04,1.18-.19,1.74-.19h1.74v1.22c-3.24-.24-3.06,1.78-3.15,5.4-.04,1.69-.04,3.48,0,5.22,.05,1.36,.14,2.63,.24,4.04,.05,.99,.33,3.48,2.91,3.01v1.22h-1.55c-.61,0-1.17-.14-1.79-.19-.42-.04-.84-.09-1.26-.09s-.85,.05-1.27,.09c-.61,.05-1.18,.19-1.79,.19h-2.07v-1.22c1.32,.38,2.35-.24,2.82-.85,.57-.7,.85-1.93,.85-6.15v-5.26c-.04-3.62-.04-6.44-3.67-5.4v-1.22Z"/><path class="e" d="M186.51,189.31h0c3.62,0,6.72-2.59,6.72-7.47,0-6.1-3.53-10.76-7.84-10.76-2.97,0-6.49,2.39-6.49,7.84,0,4.51,2.54,10.39,7.61,10.39m-.14-19.64c6.81,0,10.48,5.02,10.48,9.91,0,6.01-4.65,11.14-10.99,11.14-7.33,0-10.57-5.45-10.57-10.38,0-5.22,3.9-10.66,11.09-10.66Z"/><path class="e" d="M207.41,190.25c-.56,0-1.18-.09-1.74-.19-.42-.04-.9-.09-1.32-.09s-.9,.05-1.32,.09c-.57,.09-1.18,.19-1.74,.19h-2.07v-1.22h1.22c2.59,0,2.54-3.34,2.54-6.96v-5.26c.05-4.51-.85-5.45-2.92-5.45h-.84v-1.22c8.5,.28,5.3,.47,11.74,.47s3.24-.19,11.75-.47v1.22h-.85c-2.06,0-2.96,.94-2.91,5.45v5.26c0,3.62-.05,6.96,2.54,6.96h1.22v1.22h-2.07c-.56,0-1.18-.09-1.74-.19-.42-.04-.89-.09-1.32-.09s-.89,.05-1.31,.09c-.56,.09-1.17,.19-1.74,.19h-1.74v-1.22h.94c2.72,0,2.3-3.53,2.3-6.2v-7.23l-.09-3.81c-1.79,.09-3.15,.14-4.98,.14s-3.19-.05-4.98-.14l-.09,3.81v7.23c0,2.68-.42,6.2,2.3,6.2h.94v1.22h-1.74Z"/><path class="e" d="M231.59,186.77c2.03-2.81,2.31-3.05,6.07-7.7,4.89-6.06,6.39-8.27,7.19-9.4l1.27,.28c-.14,2.25-.19,3.85-.24,6.34,0,1.93-.05,3.85,0,5.73,0,1.36,.04,2.68,.14,4.13,.05,1.22,.19,3.2,3.48,2.87v1.22h-2.07c-.61,0-1.18-.14-1.78-.19-.42-.04-.85-.09-1.32-.09-.42,0-.85,.05-1.27,.09-.56,.05-1.17,.19-1.74,.19h-2.02v-1.22c2.91,.28,3.34-1.55,3.48-2.77,.19-1.46,.19-2.77,.19-4.13,0-2.82,.05-4.7,.42-7.51l-.52-.14c-3.85,5.54-7.09,9.16-13.25,16.3l-1.42-.23c.1-1.08,.24-3.19,.24-10.1s-.1-9.07-2.63-9.07h-.89v-1.22h2.21c.66,0,1.27,.14,1.92,.19,.33,.05,.61,.05,.94,.05s.61,0,.95-.05c.65-.04,1.26-.19,1.92-.19h2.26v1.22h-.94c-2.21,0-2.91,1.18-2.81,5.36v3.1c0,2.87,.04,4.04-.19,6.81l.42,.14Z"/><path class="e" d="M263.86,176.06c0-1.88,.05-4.7-1.6-4.7h-1.08v-1.22h1.42c.66,0,1.36,.14,2.02,.19,.28,.05,.56,.05,.89,.05,.28,0,.56,0,.85-.05,.66-.04,1.36-.19,2.02-.19h1.98v1.22h-1.04c-2.78,0-2.49,3.67-2.54,7.99v2.72c0,2.49-.28,6.96,2.3,6.96h1.27v1.22h-2.07c-.52,0-1.08-.09-1.6-.19-.47-.04-.94-.09-1.41-.09s-.94,.05-1.42,.09c-.56,.09-1.08,.19-1.64,.19h-2.44v-1.22h1.41c2.54,0,2.68-2.91,2.68-6.39v-1.6c-1.74,.61-3.94,1.12-6.1,1.12-4.51,0-5.12-2.68-5.22-4.84-.04-.56,0-1.13,0-1.69,.05-1.13,.19-4.28-1.41-4.28h-.75v-1.22h1.32c1.87,0,.37,.19,2.25,.19,2.4,0,.19-.19,3.24-.19h1.18v1.22h-1.04c-1.74,0-1.88,2.49-1.88,3.43,0,4.32,.52,5.96,4.32,5.96,1.78,0,3.34-.65,4.08-.98v-3.71Z"/><path class="e" d="M283.77,176.58h0c1.22,0,2.49-.05,3.71-.09-.09-3.57-2.58-5.78-5.49-5.78-2.02,0-5.08,1.36-5.69,5.78,4.75,.09,6.44,.09,7.47,.09m7.8,10.06c-5.69,2.91-6.67,4.09-9.73,4.09-5.64,0-9.21-5.45-9.21-10.38,0-6.48,5.07-10.66,10.8-10.66,6.3,0,7.9,5.07,8.13,8.04-2.4,.23-4.56,.28-7.24,.28-2.96,0-5.64-.19-8.08-.38-.42,6.9,4.09,10.38,8.17,10.38,2.63,0,5.36-1.23,7.15-3.06v1.69Z"/><path class="e" d="M312.14,186.77c-5.54,2.78-5.83,3.95-8.69,3.95-6.35,0-9.77-5.54-9.77-10.05,0-5.36,4.04-10.99,11.23-10.99,1.5,0,3.99,.28,5.5,2.82-1.17,.66-2.3,1.5-3.43,2.54-.24-.85-1.23-3.95-4.28-3.95-1.83,0-5.83,1.13-5.83,7.09,0,4.65,2.21,7.52,4.23,8.74,1.36,.85,3.01,1.17,4.61,1.17,1.23,0,3.8-.32,6.44-3.1v1.78Z"/><path class="e" d="M336.85,189.55h0c-.98,.65-2.49,1.17-3.48,1.17-3.05,0-5.21-3.9-7.23-6.48-1.32-1.74-2.44-2.96-4.14-4.32,5.55-5.22,7.14-6.77,7.14-7.75,0-.47-.65-.94-1.5-.8v-1.22c1.36-.05,1.55,.14,2.45,.28,1.31,.19,2.26-.28,4.32-.28h1.27v1.22c-1.22-.19-2.49,.09-4.18,1.41-2.21,1.69-2.3,2.3-7.05,6.34,1.83,.56,3.62,1.74,6.49,6.06,.75,1.13,2.49,3.85,4.37,3.85,.47,0,1.08-.19,1.55-.7v1.22Zm-23.26-19.41h2.26c.61,0,1.17,.14,1.78,.19,.37,.05,.75,.05,1.13,.05,.32,0,.7,0,1.08-.05,.56-.04,1.17-.19,1.74-.19h1.74v1.22c-3.24-.24-3.05,1.78-3.15,5.4-.05,1.69-.05,3.48,0,5.22,.05,1.36,.14,2.63,.23,4.04,.04,.99,.33,3.48,2.91,3.01v1.22h-1.55c-.61,0-1.17-.14-1.79-.19-.42-.04-.84-.09-1.26-.09s-.85,.05-1.27,.09c-.61,.05-1.18,.19-1.79,.19h-2.07v-1.22c1.32,.38,2.35-.24,2.82-.85,.57-.7,.85-1.93,.85-6.15v-5.26c-.05-3.62-.05-6.44-3.67-5.4v-1.22Z"/><path class="e" d="M349.53,189.31h0c3.62,0,6.72-2.59,6.72-7.47,0-6.1-3.53-10.76-7.84-10.76-2.97,0-6.49,2.39-6.49,7.84,0,4.51,2.54,10.39,7.61,10.39m-.14-19.64c6.82,0,10.48,5.02,10.48,9.91,0,6.01-4.65,11.14-10.99,11.14-7.33,0-10.58-5.45-10.58-10.38,0-5.22,3.9-10.66,11.09-10.66Z"/><path class="e" d="M382.83,157.31h0c-1.18,2.11-4.46,6.96-9.3,6.96-3.24,0-4.84-2.35-5.5-4.09,1.55-1.5,2.16-2.4,2.54-3.19l.42,.14c-.75,3.39,2.02,4.98,4.56,4.98,2.73,0,5.08-2.35,5.92-5.45l1.36,.66Zm-14.43,29.46c2.02-2.81,2.3-3.05,6.06-7.7,4.89-6.06,6.39-8.27,7.19-9.4l1.27,.28c-.14,2.25-.19,3.85-.23,6.34,0,1.93-.05,3.85,0,5.73,0,1.36,.04,2.68,.14,4.13,.04,1.22,.19,3.2,3.48,2.87v1.22h-2.07c-.61,0-1.17-.14-1.79-.19-.42-.04-.84-.09-1.32-.09-.42,0-.84,.05-1.26,.09-.57,.05-1.18,.19-1.74,.19h-2.02v-1.22c4.18,.38,3.66-3.2,3.66-6.91,0-2.87,.1-4.98,.42-7.51l-.51-.14c-3.86,5.54-7.1,9.16-13.25,16.3l-1.41-.23c.09-1.08,.24-3.19,.24-10.1s-.09-9.07-2.63-9.07h-.89v-1.22h2.21c.66,0,1.27,.14,1.93,.19,.33,.05,.6,.05,.94,.05s.61,0,.94-.05c.66-.04,1.27-.19,1.93-.19h2.25v1.22h-.94c-2.2,0-2.91,1.18-2.82,5.36v3.1c0,2.87,.04,4.04-.19,6.81l.42,.14Z"/></g><g><path class="e" d="M199.04,219.47h1.5c.52,0,1.03,.09,1.54,.14,.57,.04,1.18,.04,1.74,.04,2.87,0,.89-.19,3.15-.19h1.22v1.22h-.7c-.89,0-1.41,.85-.47,2.26,1.79,2.72,1.97,2.91,2.96,4.65l1.98-2.82c1.45-2.11,1.64-2.68,1.64-3.05,0-.52-.47-1.04-1.03-1.04h-.85v-1.22h1.03c.38,0,.8,.09,1.18,.14,.51,.04,1.08,.04,1.6,.04,.42,0,.89,0,1.32-.04,.47-.05,.89-.14,1.36-.14h1.26v1.22h-1.31c-1.88,0-3.15,1.88-4.71,3.99l-2.81,3.8,3.85,5.97c1.55,2.39,2.12,3.95,4.98,3.9v1.22h-1.03c-1.93,0-2.25-.19-3.62-.19s-2.07,.19-3.06,.19h-1.13v-1.22h.75c.66,0,1.84-.61-.05-3.57-1.13-1.79-1.41-2.35-2.91-4.46l-2.3,2.82c-.76,.94-1.93,3.25-1.93,4.04,0,.47,.56,1.18,1.17,1.18h1.27v1.22h-1.36c-.47,0-.89-.09-1.36-.14-.52-.05-1.04-.05-1.55-.05s-.99,0-1.51,.05c-.42,.05-.89,.14-1.32,.14h-1.32v-1.22h.75c1.5,0,3.85-2.87,4.28-3.38,1.64-2.02,2.81-3.48,4.46-5.64-1.41-2.11-2.16-3.15-3.06-4.32-1.93-2.59-2.87-4.33-4.65-4.33h-.98v-1.22Z"/><path class="e" d="M227.55,236.1c2.02-2.81,2.3-3.05,6.06-7.7,4.89-6.06,6.39-8.27,7.19-9.4l1.27,.28c-.14,2.25-.19,3.85-.23,6.34,0,1.93-.05,3.85,0,5.73,0,1.36,.05,2.68,.14,4.13,.05,1.22,.19,3.2,3.48,2.87v1.22h-2.06c-.61,0-1.17-.14-1.79-.19-.42-.04-.85-.09-1.32-.09-.42,0-.85,.05-1.27,.09-.56,.05-1.17,.19-1.74,.19h-2.02v-1.22c2.91,.28,3.34-1.55,3.47-2.77,.19-1.46,.19-2.77,.19-4.13,0-2.82,.05-4.7,.42-7.51l-.51-.14c-3.86,5.54-7.1,9.16-13.25,16.3l-1.41-.23c.09-1.08,.23-3.19,.23-10.1s-.1-9.07-2.63-9.07h-.89v-1.22h2.21c.66,0,1.26,.14,1.92,.19,.33,.05,.61,.05,.94,.05s.61,0,.94-.05c.66-.04,1.27-.19,1.93-.19h2.25v1.22h-.95c-2.21,0-2.91,1.18-2.81,5.36v3.1c0,2.87,.05,4.04-.19,6.81l.42,.14Z"/><path class="e" d="M254.75,238.31h0c.98,.37,2.21,.61,3.71,.61,4.93,0,8.17-4.65,8.17-9.3,0-6.25-3.57-8.32-6.67-8.32-1.79,0-3.76,.99-5.21,2.68v14.33Zm-8.22-18.23c5.03-.19,7.33-.99,8.46-1.5-.33,1.41-.57,2.91-.7,4.42,3.85-3.05,6.06-3.99,8.31-3.99,4.51,0,7.66,3.94,7.66,9.44,0,6.53-5.69,11.6-13.3,11.6-.75,0-1.46,0-2.21-.09v3.62c0,2.82,.09,6.53,2.53,6.53h2.12v1.22h-3.06c-.61,0-1.27-.14-1.88-.19-.38-.05-.76-.05-1.14-.05-.42,0-.79,0-1.17,.05-.61,.04-1.27,.19-1.88,.19h-2.07v-1.22h1.18c2.3,0,2.44-3.71,2.44-6.53v-15.03c0-5.83-.28-7.23-3.53-7.23h-1.78v-1.22Z"/><path class="e" d="M283.07,239.58c.23-1.88,.52-2.82,.89-4.37l2.11-8.74c.66-2.63,.8-3.34,.8-3.9,0-1.46-1.04-2.16-2.35-1.88v-1.22c3.29,.19,3.85,.19,4.23,.19,1.22,0,1.79-.09,3.81-.19v1.22c-2.87,.09-3.15,1.93-4.18,5.17l-2.96,9.45-2.25,8.36c-.75,2.77-1.64,7.56-5.45,7.56-1.31,0-2.72-.7-3.62-1.69,.99-1.6,1.46-2.86,1.74-3.71,.33,.8,1.27,2.35,2.91,2.35,2.49,0,3.8-2.49,2.25-7l-5.64-16.11c-.33-.94-1.46-4.37-3.24-4.37h-.85v-1.22c2.16,.05,2.58,.19,4.7,.19s2.72-.19,4.46-.19v1.22c-2.73-.19-2.59,1.93-1.84,4.23l3.01,9.3c.66,1.97,.94,3.71,1.08,5.36h.38Z"/><path class="e" d="M300.86,238.31h0c.99,.37,2.21,.61,3.71,.61,4.94,0,8.18-4.65,8.18-9.3,0-6.25-3.57-8.32-6.67-8.32-1.78,0-3.76,.99-5.21,2.68v14.33Zm-8.22-18.23c5.02-.19,7.32-.99,8.46-1.5-.33,1.41-.57,2.91-.7,4.42,3.85-3.05,6.06-3.99,8.31-3.99,4.51,0,7.65,3.94,7.65,9.44,0,6.53-5.68,11.6-13.29,11.6-.76,0-1.46,0-2.21-.09v3.62c0,2.82,.09,6.53,2.54,6.53h2.11v1.22h-3.05c-.61,0-1.27-.14-1.88-.19-.37-.05-.75-.05-1.13-.05-.42,0-.79,0-1.17,.05-.61,.04-1.27,.19-1.88,.19h-2.07v-1.22h1.18c2.3,0,2.44-3.71,2.44-6.53v-15.03c0-5.83-.28-7.23-3.52-7.23h-1.79v-1.22Z"/><path class="e" d="M332.52,226.24c.14-1.22-.14-2.96-.85-3.8-1.08-1.22-3.24-1.36-4.27-1.36-.56,0-1.13,0-1.69,.05-.19,1.74-.33,4.27-.33,10.01,0,2.82-.33,7.24,2.31,7.24h1.73v1.22h-2.49c-.66,0-1.27-.14-1.93-.19-.37-.04-.75-.04-1.17-.04-.37,0-.75,0-1.13,.04-.61,.05-1.26,.19-1.88,.19h-2.02v-1.22h1.13c2.44,0,2.39-3.8,2.44-7.28,.04-2.92,.09-4.13,.09-5.31,0-3.99-.09-5.59-3.66-5.07v-1.22h2.06c.89,0,1.79,.09,2.68,.14,1.22,.04,2.49,.04,3.71,.04,2.63,0,3.99,0,6.81-.19v6.77h-1.55Z"/><path class="e" d="M342.1,236.1c2.02-2.81,2.31-3.05,6.06-7.7,4.89-6.06,6.39-8.27,7.19-9.4l1.26,.28c-.14,2.25-.18,3.85-.23,6.34,0,1.93-.05,3.85,0,5.73,0,1.36,.05,2.68,.14,4.13,.04,1.22,.19,3.2,3.48,2.87v1.22h-2.07c-.61,0-1.17-.14-1.78-.19-.42-.04-.84-.09-1.32-.09-.42,0-.84,.05-1.27,.09-.57,.05-1.17,.19-1.74,.19h-2.02v-1.22c2.91,.28,3.34-1.55,3.47-2.77,.19-1.46,.19-2.77,.19-4.13,0-2.82,.05-4.7,.42-7.51l-.51-.14c-3.86,5.54-7.1,9.16-13.25,16.3l-1.41-.23c.09-1.08,.23-3.19,.23-10.1s-.09-9.07-2.63-9.07h-.89v-1.22h2.21c.66,0,1.27,.14,1.93,.19,.33,.05,.61,.05,.94,.05s.61,0,.94-.05c.66-.04,1.27-.19,1.93-.19h2.25v1.22h-.94c-2.21,0-2.91,1.18-2.82,5.36v3.1c0,2.87,.04,4.04-.19,6.81l.42,.14Z"/><path class="e" d="M368.4,236.1c2.02-2.81,2.31-3.05,6.06-7.7,4.89-6.06,6.39-8.27,7.19-9.4l1.26,.28c-.14,2.25-.18,3.85-.23,6.34,0,1.93-.05,3.85,0,5.73,0,1.36,.05,2.68,.14,4.13,.04,1.22,.19,3.2,3.48,2.87v1.22h-2.07c-.61,0-1.17-.14-1.78-.19-.42-.04-.84-.09-1.32-.09-.42,0-.84,.05-1.27,.09-.57,.05-1.17,.19-1.74,.19h-2.02v-1.22c2.91,.28,3.34-1.55,3.47-2.77,.19-1.46,.19-2.77,.19-4.13,0-2.82,.05-4.7,.42-7.51l-.51-.14c-3.86,5.54-7.1,9.16-13.25,16.3l-1.41-.23c.09-1.08,.23-3.19,.23-10.1s-.09-9.07-2.63-9.07h-.89v-1.22h2.21c.66,0,1.27,.14,1.93,.19,.33,.05,.61,.05,.94,.05s.61,0,.94-.05c.66-.04,1.27-.19,1.92-.19h2.26v1.22h-.94c-2.21,0-2.91,1.18-2.82,5.36v3.1c0,2.87,.04,4.04-.19,6.81l.42,.14Z"/></g></g></g></g></g></svg>