<svg xmlns="http://www.w3.org/2000/svg" xmlns:xlink="http://www.w3.org/1999/xlink" id="&#x421;&#x43B;&#x43E;&#x439;_1" data-name="&#x421;&#x43B;&#x43E;&#x439; 1" viewBox="0 0 700 700"><defs><style>.cls-1,.cls-4{fill:none;}.cls-2{clip-path:url(#clip-path);}.cls-3{fill:#fff;}.cls-4{stroke:#87003d;stroke-linecap:round;stroke-miterlimit:10;stroke-width:4px;}</style><clipPath id="clip-path"><rect class="cls-1" width="700" height="700"></rect></clipPath></defs><title>Иллюстрации_Бюст_мост</title><g class="cls-2"><path class="cls-3" d="M460.2,348.65A140,140,0,0,0,350,396.58a140,140,0,0,0-110.2-47.93c-76.13,2.49-135.63,67-135.63,143.19v33.8a5.49,5.49,0,0,0,5.49,5.49h58.55a5.49,5.49,0,0,0,5.49-5.49V490.92c0-38.06,29.19-70.86,67.21-72.73a70.84,70.84,0,0,1,74.33,70.68v36.77a5.49,5.49,0,0,0,5.49,5.49h58.54a5.49,5.49,0,0,0,5.49-5.49V490.92c0-38.06,29.19-70.86,67.21-72.73a70.84,70.84,0,0,1,74.33,70.68v36.77a5.49,5.49,0,0,0,5.49,5.49h58.55a5.49,5.49,0,0,0,5.49-5.49v-33.8c0-76.17-59.49-140.7-135.63-143.19"></path><path class="cls-4" d="M361.2,300.21c15.44-51.52,23.5-68.29,55.45-77.11s61.5,5.25,67.93,21.85,9,51.72-15.76,69.8-56.16,12.84-56.16,12.84"></path><path class="cls-4" d="M379.74,299c4.25-31,30-73.39,30-73.39"></path><path class="cls-4" d="M457.29,244.4c7.88,16.23,10.68,36.62,1,51.69s-44.33,22.17-47,22.62-1.06-7-9.17-6-5.47,2.85-5.47,2.85"></path><path class="cls-4" d="M410,212.14c-5.76,6.77-12.92,3.8-15.25-2.36s-7.07-30.91,13.61-39.4S428.12,177,428.12,177s10.44-.76,11.81,18.72S430.36,211,430.36,211"></path><path class="cls-4" d="M430.41,220.68c-6.43-12.14-1.57-17.31-1.66-22.17s-4.47-12.77-8.28-15.15-16.11,7.37-14.43,16.72c1,5.38,4,15,12.35,10.2s0,12.41,0,12.41"></path><path class="cls-4" d="M477.88,306s9.24,29.9,6.84,34.8c-.6,1.23-2.55,2.15-5.42,2.83-8.62,2.06-25.57,2-39.39,2.06-18.42,0-28.58-7.37-28.58-7.37"></path><path class="cls-4" d="M479.16,345.66c-2.63,10.91-36.22,28.53-57.2,38.72-9.54,4.64-17.49,18.91-23.21,34.32-6.86,18.48-10.52,38.59-9.87,45.66,1.2,13-34.75,6.86-37.75,7.59s-3.53-58.83,10.07-90.12S389,344.75,389,344.75"></path><path class="cls-4" d="M390.83,465.53c5.63,3.91,7.36,2.14,7.36,2.14s15.28-2.4,16.85-17.7-16.29-31.27-16.29-31.27"></path><path class="cls-4" d="M348.75,429.23c-6.52-10-24.35-33.32-22.13-54.7s18-34.06,18-34.06"></path><polyline class="cls-4" points="422.9 337.26 405.55 337.61 402 337.68 340.21 338.9 328.31 301.53 389.01 300.21 403.72 336.87"></polyline><path class="cls-4" d="M367.28,473.62c3.63,4.16-17.67,23.28-16.15,28.32s30-9.56,31.49-16.16-1.67-13-1.67-13"></path><path class="cls-4" d="M399.59,467.18c3.82,5.91-6.54,16-6,25.72s7.44-.51,12.82-9.64,9.75-14.71,7.73-17.82-2.44-3.82-2.44-3.82"></path></g></svg>