<svg id="Слой_1" data-name="Слой 1" xmlns="http://www.w3.org/2000/svg" xmlns:xlink="http://www.w3.org/1999/xlink" viewBox="0 0 789.33 414.67"><defs><style>.cls-1{fill:none;}.cls-2{clip-path:url(#clip-path);}.cls-3{fill:#f8b5be;}</style><clipPath id="clip-path"><rect class="cls-1" x="-160" y="-388" width="1080" height="1080"/></clipPath></defs><title>Посты_Бюст_Млст1</title><g class="cls-2"><path class="cls-3" d="M526.5,157.53A92,92,0,0,0,598.93,126a92,92,0,0,0,72.43,31.5c50-1.63,89.14-44,89.14-94.11V41.21a3.61,3.61,0,0,0-3.61-3.6H718.41a3.6,3.6,0,0,0-3.6,3.6V64c0,25-19.19,46.57-44.18,47.8a46.55,46.55,0,0,1-48.85-46.45V41.21a3.61,3.61,0,0,0-3.61-3.6H579.69a3.61,3.61,0,0,0-3.61,3.6V64c0,25-19.18,46.57-44.17,47.8a46.55,46.55,0,0,1-48.85-46.45V41.21a3.61,3.61,0,0,0-3.61-3.6H441a3.61,3.61,0,0,0-3.61,3.6V63.42c0,50.07,39.1,92.48,89.14,94.11"/><path class="cls-3" d="M324.72,319.79a2.49,2.49,0,0,1,2.39,3.17c-10.73,38-44.45,66.88-85.56,68.22a92,92,0,0,1-72.43-31.5,92,92,0,0,1-72.42,31.5C55.59,389.84,21.86,361,11.14,323a2.49,2.49,0,0,1,2.39-3.17H56.66a2.5,2.5,0,0,1,2.19,1.33,46.55,46.55,0,0,0,43.26,24.36c16.57-.82,30.6-10.59,38.16-24.37a2.48,2.48,0,0,1,2.17-1.32h52.94a2.47,2.47,0,0,1,2.18,1.33,46.55,46.55,0,0,0,43.26,24.36c16.59-.82,30.61-10.59,38.17-24.38a2.49,2.49,0,0,1,2.18-1.31Z"/><path class="cls-3" d="M96.7,186.35a92,92,0,0,0,72.43-31.5,92,92,0,0,0,72.42,31.5c50-1.64,89.14-44,89.14-94.11V12.4a3.61,3.61,0,0,0-3.6-3.61H288.61A3.61,3.61,0,0,0,285,12.4V92.84c0,25-19.19,46.58-44.17,47.81A46.58,46.58,0,0,1,192,94.19V12.4a3.61,3.61,0,0,0-3.61-3.61H149.89a3.61,3.61,0,0,0-3.61,3.61V92.84c0,25-19.19,46.57-44.17,47.81A46.57,46.57,0,0,1,53.25,94.19V12.4a3.61,3.61,0,0,0-3.61-3.61H11.17A3.61,3.61,0,0,0,7.56,12.4V92.24c0,50.06,39.1,92.47,89.14,94.11"/><path class="cls-3" d="M777.64,257.25H739.16a3.61,3.61,0,0,0-3.61,3.6v51.06c0,24.37-18.21,45.45-42.24,47.66H664.58v.1a46.57,46.57,0,0,1-43.5-46.41V260.85a3.61,3.61,0,0,0-3.61-3.6H579a3.61,3.61,0,0,0-3.61,3.6v51.06c0,24.37-18.2,45.45-42.24,47.66h-28v0a46.56,46.56,0,0,1-42.82-46.35V260.85a3.61,3.61,0,0,0-3.61-3.6H420.22a3.6,3.6,0,0,0-3.6,3.6v50.46c0,49.85,38.77,92.1,88.51,94.07v0H525.8q3,.09,5.93,0h2.18v-.09a92.06,92.06,0,0,0,64.32-31.41,92,92,0,0,0,66.35,31.49h.15q2.94.09,5.93,0h22.7v-.07c49.43-2.3,87.89-44.4,87.89-94V260.85a3.61,3.61,0,0,0-3.61-3.6"/></g></svg>