<svg id="Слой_1" data-name="Слой 1" xmlns="http://www.w3.org/2000/svg" xmlns:xlink="http://www.w3.org/1999/xlink" viewBox="0 0 612.44 749.33"><defs><style>.cls-1{fill:none;}.cls-2{clip-path:url(#clip-path);}.cls-3{fill:#fff;}.cls-4{fill:#87003d;}</style><clipPath id="clip-path"><rect class="cls-1" x="-62.22" y="-325.33" width="1080" height="1080"/></clipPath></defs><title>Посты_Бюст_Млст</title><g class="cls-2"><path class="cls-3" d="M445.51,515a46.73,46.73,0,0,0,36.79-16,46.72,46.72,0,0,0,36.79,16c25.41-.83,45.27-22.37,45.27-47.8V455.91a1.83,1.83,0,0,0-1.83-1.83H543a1.83,1.83,0,0,0-1.84,1.83V467.5c0,12.71-9.74,23.66-22.43,24.28a23.65,23.65,0,0,1-24.82-23.59V455.91a1.83,1.83,0,0,0-1.83-1.83H472.53a1.83,1.83,0,0,0-1.84,1.83V467.5c0,12.71-9.74,23.66-22.43,24.28a23.65,23.65,0,0,1-24.82-23.59V455.91a1.83,1.83,0,0,0-1.83-1.83H402.07a1.83,1.83,0,0,0-1.84,1.83V467.2c0,25.43,19.86,47,45.28,47.8"/><path class="cls-3" d="M265,515a46.73,46.73,0,0,0,36.79-16,46.72,46.72,0,0,0,36.79,16c25.41-.83,45.27-22.37,45.27-47.8V455.91a1.83,1.83,0,0,0-1.83-1.83H362.49a1.83,1.83,0,0,0-1.84,1.83V467.5c0,12.71-9.74,23.66-22.43,24.28a23.65,23.65,0,0,1-24.82-23.59V455.91a1.83,1.83,0,0,0-1.83-1.83H292a1.83,1.83,0,0,0-1.83,1.83V467.5c0,12.71-9.74,23.66-22.43,24.28a23.65,23.65,0,0,1-24.82-23.59V455.91a1.83,1.83,0,0,0-1.83-1.83H221.56a1.83,1.83,0,0,0-1.83,1.83V467.2c0,25.43,19.86,47,45.28,47.8"/><path class="cls-3" d="M445.51,410.61a46.73,46.73,0,0,0,36.79-16,46.72,46.72,0,0,0,36.79,16c25.41-.83,45.27-22.37,45.27-47.8V351.53a1.83,1.83,0,0,0-1.83-1.83H543a1.83,1.83,0,0,0-1.84,1.83v11.59c0,12.7-9.74,23.65-22.43,24.28a23.66,23.66,0,0,1-24.82-23.6V351.53a1.83,1.83,0,0,0-1.83-1.83H472.53a1.83,1.83,0,0,0-1.84,1.83v11.59c0,12.7-9.74,23.65-22.43,24.28a23.66,23.66,0,0,1-24.82-23.6V351.53a1.83,1.83,0,0,0-1.83-1.83H402.07a1.83,1.83,0,0,0-1.84,1.83v11.28c0,25.43,19.86,47,45.28,47.8"/><path class="cls-3" d="M265,410.61a46.73,46.73,0,0,0,36.79-16,46.72,46.72,0,0,0,36.79,16c25.41-.83,45.27-22.37,45.27-47.8V351.53A1.83,1.83,0,0,0,382,349.7H362.49a1.83,1.83,0,0,0-1.84,1.83v11.59c0,12.7-9.74,23.65-22.43,24.28a23.66,23.66,0,0,1-24.82-23.6V351.53a1.83,1.83,0,0,0-1.83-1.83H292a1.83,1.83,0,0,0-1.83,1.83v11.59c0,12.7-9.74,23.65-22.43,24.28a23.66,23.66,0,0,1-24.82-23.6V351.53a1.83,1.83,0,0,0-1.83-1.83H221.56a1.83,1.83,0,0,0-1.83,1.83v11.28c0,25.43,19.86,47,45.28,47.8"/><path class="cls-3" d="M84.51,410.61a46.73,46.73,0,0,0,36.79-16,46.71,46.71,0,0,0,36.78,16c25.42-.83,45.28-22.37,45.28-47.8V351.53a1.83,1.83,0,0,0-1.83-1.83H182a1.83,1.83,0,0,0-1.84,1.83v11.59c0,12.7-9.74,23.65-22.43,24.28a23.66,23.66,0,0,1-24.82-23.6V351.53a1.83,1.83,0,0,0-1.83-1.83H111.52a1.83,1.83,0,0,0-1.83,1.83v11.59c0,12.7-9.74,23.65-22.43,24.28a23.66,23.66,0,0,1-24.82-23.6V351.53a1.83,1.83,0,0,0-1.83-1.83H41.06a1.83,1.83,0,0,0-1.83,1.83v11.28c0,25.43,19.86,47,45.28,47.8"/><path class="cls-3" d="M445.51,306.22a46.7,46.7,0,0,0,36.79-16,46.69,46.69,0,0,0,36.79,16c25.41-.82,45.27-22.37,45.27-47.8V247.14a1.83,1.83,0,0,0-1.83-1.83H543a1.83,1.83,0,0,0-1.84,1.83v11.59c0,12.71-9.74,23.66-22.43,24.28a23.65,23.65,0,0,1-24.82-23.59V247.14a1.83,1.83,0,0,0-1.83-1.83H472.53a1.83,1.83,0,0,0-1.84,1.83v11.59c0,12.71-9.74,23.66-22.43,24.28a23.65,23.65,0,0,1-24.82-23.59V247.14a1.83,1.83,0,0,0-1.83-1.83H402.07a1.83,1.83,0,0,0-1.84,1.83v11.28c0,25.43,19.86,47,45.28,47.8"/><path class="cls-4" d="M265,306.22a46.7,46.7,0,0,0,36.79-16,46.69,46.69,0,0,0,36.79,16c25.41-.82,45.27-22.37,45.27-47.8V247.14a1.83,1.83,0,0,0-1.83-1.83H362.49a1.83,1.83,0,0,0-1.84,1.83v11.59c0,12.71-9.74,23.66-22.43,24.28a23.65,23.65,0,0,1-24.82-23.59V247.14a1.83,1.83,0,0,0-1.83-1.83H292a1.83,1.83,0,0,0-1.83,1.83v11.59c0,12.71-9.74,23.66-22.43,24.28a23.65,23.65,0,0,1-24.82-23.59V247.14a1.83,1.83,0,0,0-1.83-1.83H221.56a1.83,1.83,0,0,0-1.83,1.83v11.28c0,25.43,19.86,47,45.28,47.8"/><path class="cls-3" d="M84.51,306.22a46.7,46.7,0,0,0,36.79-16,46.68,46.68,0,0,0,36.78,16c25.42-.82,45.28-22.37,45.28-47.8V247.14a1.83,1.83,0,0,0-1.83-1.83H182a1.83,1.83,0,0,0-1.84,1.83v11.59c0,12.71-9.74,23.66-22.43,24.28a23.65,23.65,0,0,1-24.82-23.59V247.14a1.83,1.83,0,0,0-1.83-1.83H111.52a1.83,1.83,0,0,0-1.83,1.83v11.59c0,12.71-9.74,23.66-22.43,24.28a23.65,23.65,0,0,1-24.82-23.59V247.14a1.83,1.83,0,0,0-1.83-1.83H41.06a1.83,1.83,0,0,0-1.83,1.83v11.28c0,25.43,19.86,47,45.28,47.8"/><path class="cls-3" d="M445.51,201.84a46.73,46.73,0,0,0,36.79-16,46.72,46.72,0,0,0,36.79,16c25.41-.83,45.27-22.37,45.27-47.8V142.76a1.83,1.83,0,0,0-1.83-1.84H543a1.84,1.84,0,0,0-1.84,1.84v11.58c0,12.71-9.74,23.66-22.43,24.29A23.66,23.66,0,0,1,493.9,155V142.76a1.83,1.83,0,0,0-1.83-1.84H472.53a1.84,1.84,0,0,0-1.84,1.84v11.58c0,12.71-9.74,23.66-22.43,24.29A23.66,23.66,0,0,1,423.44,155V142.76a1.83,1.83,0,0,0-1.83-1.84H402.07a1.84,1.84,0,0,0-1.84,1.84V154c0,25.43,19.86,47,45.28,47.8"/><path class="cls-3" d="M265,201.84a46.73,46.73,0,0,0,36.79-16,46.72,46.72,0,0,0,36.79,16C364,201,383.86,179.47,383.86,154V142.76a1.83,1.83,0,0,0-1.83-1.84H362.49a1.84,1.84,0,0,0-1.84,1.84v11.58c0,12.71-9.74,23.66-22.43,24.29A23.66,23.66,0,0,1,313.4,155V142.76a1.83,1.83,0,0,0-1.83-1.84H292a1.83,1.83,0,0,0-1.83,1.84v11.58c0,12.71-9.74,23.66-22.43,24.29A23.66,23.66,0,0,1,242.94,155V142.76a1.83,1.83,0,0,0-1.83-1.84H221.56a1.83,1.83,0,0,0-1.83,1.84V154c0,25.43,19.86,47,45.28,47.8"/><path class="cls-3" d="M84.51,201.84a46.73,46.73,0,0,0,36.79-16,46.71,46.71,0,0,0,36.78,16c25.42-.83,45.28-22.37,45.28-47.8V142.76a1.83,1.83,0,0,0-1.83-1.84H182a1.84,1.84,0,0,0-1.84,1.84v11.58c0,12.71-9.74,23.66-22.43,24.29A23.66,23.66,0,0,1,132.9,155V142.76a1.83,1.83,0,0,0-1.83-1.84H111.52a1.83,1.83,0,0,0-1.83,1.84v11.58c0,12.71-9.74,23.66-22.43,24.29A23.66,23.66,0,0,1,62.44,155V142.76a1.83,1.83,0,0,0-1.83-1.84H41.06a1.83,1.83,0,0,0-1.83,1.84V154c0,25.43,19.86,47,45.28,47.8"/><path class="cls-3" d="M445.51,97.45a46.73,46.73,0,0,0,36.79-16,46.72,46.72,0,0,0,36.79,16c25.41-.83,45.27-22.37,45.27-47.8V38.37a1.83,1.83,0,0,0-1.83-1.83H543a1.83,1.83,0,0,0-1.84,1.83V50c0,12.7-9.74,23.65-22.43,24.28a23.66,23.66,0,0,1-24.82-23.6V38.37a1.83,1.83,0,0,0-1.83-1.83H472.53a1.83,1.83,0,0,0-1.84,1.83V50c0,12.7-9.74,23.65-22.43,24.28a23.66,23.66,0,0,1-24.82-23.6V38.37a1.83,1.83,0,0,0-1.83-1.83H402.07a1.83,1.83,0,0,0-1.84,1.83V49.65c0,25.43,19.86,47,45.28,47.8"/><path class="cls-3" d="M265,97.45a46.73,46.73,0,0,0,36.79-16,46.72,46.72,0,0,0,36.79,16c25.41-.83,45.27-22.37,45.27-47.8V38.37A1.83,1.83,0,0,0,382,36.54H362.49a1.83,1.83,0,0,0-1.84,1.83V50c0,12.7-9.74,23.65-22.43,24.28a23.66,23.66,0,0,1-24.82-23.6V38.37a1.83,1.83,0,0,0-1.83-1.83H292a1.83,1.83,0,0,0-1.83,1.83V50c0,12.7-9.74,23.65-22.43,24.28a23.66,23.66,0,0,1-24.82-23.6V38.37a1.83,1.83,0,0,0-1.83-1.83H221.56a1.83,1.83,0,0,0-1.83,1.83V49.65c0,25.43,19.86,47,45.28,47.8"/><path class="cls-3" d="M84.51,97.45a46.73,46.73,0,0,0,36.79-16,46.71,46.71,0,0,0,36.78,16c25.42-.83,45.28-22.37,45.28-47.8V38.37a1.83,1.83,0,0,0-1.83-1.83H182a1.83,1.83,0,0,0-1.84,1.83V50c0,12.7-9.74,23.65-22.43,24.28a23.66,23.66,0,0,1-24.82-23.6V38.37a1.83,1.83,0,0,0-1.83-1.83H111.52a1.83,1.83,0,0,0-1.83,1.83V50c0,12.7-9.74,23.65-22.43,24.28a23.66,23.66,0,0,1-24.82-23.6V38.37a1.83,1.83,0,0,0-1.83-1.83H41.06a1.83,1.83,0,0,0-1.83,1.83V49.65c0,25.43,19.86,47,45.28,47.8"/><path class="cls-3" d="M269.9,715.33a46.73,46.73,0,0,0,36.79-16,46.71,46.71,0,0,0,36.78,16c25.42-.83,45.28-22.37,45.28-47.8V656.25a1.83,1.83,0,0,0-1.83-1.83H367.38a1.83,1.83,0,0,0-1.84,1.83v11.59c0,12.7-9.74,23.65-22.44,24.28a23.65,23.65,0,0,1-24.81-23.6V656.25a1.83,1.83,0,0,0-1.83-1.83H296.91a1.83,1.83,0,0,0-1.83,1.83v11.59c0,12.7-9.74,23.65-22.43,24.28a23.66,23.66,0,0,1-24.82-23.6V656.25a1.83,1.83,0,0,0-1.83-1.83H226.45a1.83,1.83,0,0,0-1.83,1.83v11.28c0,25.43,19.86,47,45.28,47.8"/><path class="cls-3" d="M89.4,715.33a46.75,46.75,0,0,0,36.79-16,46.71,46.71,0,0,0,36.78,16c25.42-.83,45.28-22.37,45.28-47.8V656.25a1.83,1.83,0,0,0-1.83-1.83H186.88a1.83,1.83,0,0,0-1.84,1.83v11.59c0,12.7-9.74,23.65-22.44,24.28a23.65,23.65,0,0,1-24.81-23.6V656.25a1.83,1.83,0,0,0-1.83-1.83H116.41a1.83,1.83,0,0,0-1.83,1.83v11.59c0,12.7-9.74,23.65-22.43,24.28a23.66,23.66,0,0,1-24.82-23.6V656.25a1.83,1.83,0,0,0-1.83-1.83H46a1.83,1.83,0,0,0-1.83,1.83v11.28c0,25.43,19.86,47,45.28,47.8"/><path class="cls-3" d="M450.4,610.94a46.7,46.7,0,0,0,36.79-16,46.68,46.68,0,0,0,36.78,16c25.42-.83,45.28-22.37,45.28-47.8V551.86a1.83,1.83,0,0,0-1.83-1.83H547.88a1.83,1.83,0,0,0-1.84,1.83v11.59c0,12.71-9.74,23.66-22.43,24.28a23.65,23.65,0,0,1-24.82-23.59V551.86A1.83,1.83,0,0,0,497,550H477.41a1.83,1.83,0,0,0-1.83,1.83v11.59c0,12.71-9.74,23.66-22.43,24.28a23.65,23.65,0,0,1-24.82-23.59V551.86A1.83,1.83,0,0,0,426.5,550H407a1.83,1.83,0,0,0-1.83,1.83v11.28c0,25.43,19.86,47,45.28,47.8"/><path class="cls-3" d="M269.9,610.94a46.7,46.7,0,0,0,36.79-16,46.68,46.68,0,0,0,36.78,16c25.42-.83,45.28-22.37,45.28-47.8V551.86a1.83,1.83,0,0,0-1.83-1.83H367.38a1.83,1.83,0,0,0-1.84,1.83v11.59c0,12.71-9.74,23.66-22.44,24.28a23.64,23.64,0,0,1-24.81-23.59V551.86a1.83,1.83,0,0,0-1.83-1.83H296.91a1.83,1.83,0,0,0-1.83,1.83v11.59c0,12.71-9.74,23.66-22.43,24.28a23.65,23.65,0,0,1-24.82-23.59V551.86A1.83,1.83,0,0,0,246,550H226.45a1.83,1.83,0,0,0-1.83,1.83v11.28c0,25.43,19.86,47,45.28,47.8"/><path class="cls-3" d="M89.4,610.94a46.72,46.72,0,0,0,36.79-16,46.68,46.68,0,0,0,36.78,16c25.42-.83,45.28-22.37,45.28-47.8V551.86a1.83,1.83,0,0,0-1.83-1.83H186.88a1.83,1.83,0,0,0-1.84,1.83v11.59c0,12.71-9.74,23.66-22.44,24.28a23.64,23.64,0,0,1-24.81-23.59V551.86A1.83,1.83,0,0,0,136,550H116.41a1.83,1.83,0,0,0-1.83,1.83v11.59c0,12.71-9.74,23.66-22.43,24.28a23.65,23.65,0,0,1-24.82-23.59V551.86A1.83,1.83,0,0,0,65.5,550H46a1.83,1.83,0,0,0-1.83,1.83v11.28c0,25.43,19.86,47,45.28,47.8"/><path class="cls-4" d="M85,515.59a46.7,46.7,0,0,0,36.79-16,46.69,46.69,0,0,0,36.79,16c25.41-.82,45.27-22.37,45.27-47.8V456.51a1.83,1.83,0,0,0-1.83-1.83H182.49a1.83,1.83,0,0,0-1.84,1.83V468.1c0,12.71-9.74,23.66-22.43,24.28a23.65,23.65,0,0,1-24.82-23.59V456.51a1.83,1.83,0,0,0-1.83-1.83H112a1.83,1.83,0,0,0-1.83,1.83V468.1c0,12.71-9.74,23.66-22.43,24.28a23.65,23.65,0,0,1-24.82-23.59V456.51a1.83,1.83,0,0,0-1.83-1.83H41.56a1.83,1.83,0,0,0-1.83,1.83v11.28c0,25.43,19.86,47,45.28,47.8"/><path class="cls-4" d="M450.4,715.33a46.7,46.7,0,0,0,36.79-16,46.71,46.71,0,0,0,36.78,16c25.42-.83,45.28-22.37,45.28-47.8V656.25a1.83,1.83,0,0,0-1.83-1.83H547.88a1.83,1.83,0,0,0-1.84,1.83v11.59c0,12.71-9.74,23.65-22.44,24.28a23.65,23.65,0,0,1-24.81-23.6V656.25a1.83,1.83,0,0,0-1.83-1.83H477.41a1.83,1.83,0,0,0-1.83,1.83v11.59c0,12.7-9.74,23.65-22.43,24.28a23.66,23.66,0,0,1-24.82-23.6V656.25a1.83,1.83,0,0,0-1.83-1.83H407a1.83,1.83,0,0,0-1.83,1.83v11.28c0,25.43,19.86,47,45.28,47.8"/></g></svg>